<svg width="229" height="198" viewBox="0 0 229 198" fill="none" xmlns="http://www.w3.org/2000/svg">
<path d="M91 197.505V169.661C55.5523 166.568 27.7439 136.787 27.7439 100.505C27.7439 64.224 55.5523 34.4432 91 31.3499V3.50543C40.2146 6.65804 4.50917e-06 48.8813 0 100.505C-4.50917e-06 152.13 40.2146 194.353 91 197.505Z" fill="#DD264E"/>
<path d="M52.2683 97.4114C56.2068 98.5284 60.7171 99.192 65.8017 99.3998M142.178 124.138C141.644 120.743 141.138 117.023 140.686 113.374C141.179 112.395 142.885 112.322 143.41 113.416C144.499 117.564 144.924 121.173 145.402 124.184C150.889 122.328 155.783 124.337 155.267 128.788C152.256 127.547 148.924 129.403 144.965 130.578C141.005 131.752 135.844 132.415 132.154 129.584C126.153 132.443 126.821 141.687 134.85 143.335C150.643 145.72 164.166 144.626 175.244 139.978M138.966 124.195C138.52 120.828 137.856 117.009 137.546 113.417C138.039 112.438 139.988 112.342 140.686 113.351M135.324 124.422C134.877 121.055 134.386 117.179 134.076 113.587C134.569 112.608 136.691 112.328 137.603 113.494M132.097 129.641C131.295 124.488 130.797 119.184 130.607 113.728C131.099 112.75 133.222 112.47 134.134 113.635M122.703 87.1623C119.494 104.012 120.468 118.519 125.509 131.138M102.792 101.796C106.558 109.107 109.369 114.828 111.223 118.957M124.547 55.0594C124.738 50.5229 125.076 46.5826 125.297 42.5078M105.588 66.2047C101.825 65.8257 99.7295 65.7454 96.3498 65.4266M141.733 65.7017C145.383 65.2377 148.881 64.7158 152.228 64.1384M120.739 55.3617C119.866 50.0754 119.516 47.127 118.949 43.1206M106.115 69.2122C101.558 69.5262 99.166 69.6904 95.8161 70.0163M141.79 68.7706C146.357 68.7328 150.086 68.8083 152.973 68.9973M121.603 81.138C123.954 81.6681 125.828 81.5831 127.825 80.8829M111.891 66.0772C113.059 64.6969 114.777 64.3863 116.265 64.3013C119.54 64.1112 122.592 66.3145 122.475 69.8285C122.438 71.9291 122.475 74.3981 122.414 77.1174C122.927 77.9003 124.095 78.8496 124.985 79.1779C125.827 78.591 126.478 77.9853 126.936 77.1895C126.554 74.5374 126.171 72.1889 125.846 70.1426C125.158 62.49 133.78 61.6753 137.317 67.1316M171.611 141.347C169.719 147.521 167.462 152.143 164.73 155.439M159.166 144.009C157.522 148.65 155.342 152.458 152.629 155.431M101.517 125.648C95.9152 135.459 88.3641 141.962 78.4051 145.41M126.133 87.1906C135.749 95.4501 142.115 102.799 144.715 105.489M160.691 136.124C170.086 134.726 173.066 123.354 165.732 116.743C149.879 101.518 133.447 89.2251 129.17 86.3534M107.782 127.424C103.595 139.167 95.2944 148.572 83.5374 155.468M145.46 144.358C143.911 148.601 141.254 152.314 137.488 155.496M134.191 143.1C133.321 146.784 131.018 150.904 127.28 155.461M108.215 91.9102C101.71 87.7019 95.7146 79.7872 95.7146 70.8404C95.7146 55.1952 108.545 42.5054 124.363 42.5054C140.183 42.5054 153.012 55.1952 153.012 70.8404C153.012 78.1152 150.18 85.1172 145.108 90.3822M117.173 129.721C115.912 140.451 111.332 148.937 104.725 155.435M63.8521 105.489C57.5248 104.561 52.9177 103.472 48.9995 102.127C47.5562 102.469 46.8972 103.416 47.013 104.957C61.6423 110.585 74.7245 114.175 86.146 115.723M58.3915 101.659C55.26 101.179 52.5285 100.511 50.0883 99.5982C49.9737 98.4528 51.0923 97.4444 52.3829 97.4964C52.1441 96.4349 52.8509 95.4548 54.2178 95.2376C59.6856 96.2448 64.5601 96.6333 68.3255 96.7088M58.2602 104.485C57.8113 103.263 58.3187 101.077 59.2069 100.422C61.1767 100.471 63.2122 100.622 65.3433 100.849M89.1437 102.194C83.9051 98.2911 78.6677 95.7524 73.4865 94.6921C70.2941 95.5068 67.8288 96.7383 66.0894 98.3288C65.4388 100.564 65.0185 102.875 64.8275 105.261C68.4019 105.413 70.275 103.974 70.3896 100.943C71.4414 100.526 72.5314 99.8827 73.6596 99.0102C74.8248 101.019 76.4878 102.42 78.6486 103.216M94.0182 99.8627C101.014 113.368 109.1 121.873 117.014 125.605C117.563 115.214 111.282 107.611 112.153 99.8296C112.851 93.5928 116.367 89.5179 119.436 86.1421M89.0279 103.556C93.4248 109.22 98.2993 115.49 103.767 122.594M129.291 131.705L125.853 106.997L147.741 105.297L150.32 123.433M130.552 85.6591C171.653 112.031 174.441 110.699 176.046 155.279M115.425 83.875C108.817 89.995 104.157 97.5897 102.82 101.896C100.716 100.818 98.0653 99.7635 94.8145 99.0172C94.5626 99.2487 94.3238 99.5793 94.1041 99.9678C92.3647 99.3337 90.7399 98.9169 89.2297 98.6902C89.4887 104.125 88.1516 110.85 85.0584 118.783C97.3956 125.168 112.255 129.513 129.635 131.818M132.815 84.13C147.512 92.4592 164.022 98.5709 170.139 105.102C178.005 113.501 178.367 124.946 180 155.505L78.4409 155.477C76.6549 145.154 80.2448 133.972 89.1831 120.825M114.687 68.5474C114.762 68.4647 114.844 68.3892 114.928 68.3195C115.935 67.5 117.554 67.6099 118.311 68.5238C117.438 69.6384 115.439 69.6148 114.687 68.5474ZM133.241 67.9428C132.351 66.9722 130.667 67.0195 129.917 67.931C130.721 68.9512 132.554 68.9241 133.241 67.9428ZM112.714 68.5002C112.868 68.29 113.034 68.0952 113.207 67.9192C115.263 65.834 118.573 66.115 120.122 68.4447C118.34 71.2821 114.254 71.2207 112.714 68.5002ZM135.051 67.8932C133.231 65.4231 129.788 65.5411 128.255 67.8637C129.897 70.4614 133.647 70.3929 135.051 67.8932ZM124.721 87.291C117.21 86.9533 111.799 81.6717 110.558 71.5277C110.211 72.7887 108.428 72.8123 107.768 72.1062C105.825 69.9348 104.662 65.0499 106.54 63.7027C106.699 63.5893 107.06 63.5149 107.404 63.587C112.599 53.1218 133.072 51.8005 139.949 62.3401C142.286 62.9635 142.63 69.1956 140.7 71.6198C140.093 72.3495 138.645 72.2692 138.233 71.0518C137.615 80.7637 132.906 86.1846 125.921 87.1788C125.531 87.2343 125.129 87.291 124.721 87.291Z" stroke="#292526" stroke-miterlimit="22.926"/>
<path fill-rule="evenodd" clip-rule="evenodd" d="M216.05 0L213.591 2.45792L211.63 0.418586L211.398 0.177772L211.064 0.177772L199.59 0.177771L198.805 0.177771L198.805 0.962775L198.805 12.2321L198.805 12.5574L199.035 12.7873L201.096 14.8483L199.035 16.9092L198.805 17.1391L198.805 17.4643L198.805 28.935L198.805 29.72H199.59L210.863 29.72H211.188L211.418 29.4901L213.48 27.4288L216.194 30.1424L213.542 32.7937L211.63 30.8056L211.398 30.5648H211.064L199.59 30.5648H198.805L198.805 31.3498L198.805 42.6192L198.805 42.9467L199.037 43.1771L201.106 45.2252L199.035 47.2962L198.805 47.5262L198.805 47.8514L198.805 59.322L198.805 60.107H199.59H210.863H211.188L211.418 59.8772L213.53 57.7656L216.194 60.4288L213.542 63.0801L211.63 61.0921L211.398 60.8513H211.064H199.59H198.805L198.805 61.6363L198.805 72.9056L198.805 73.2331L199.037 73.4635L201.106 75.5116L199.035 77.5827L198.805 77.8126L198.805 78.1378L198.805 89.6085L198.805 90.3934H199.59H210.863H211.188L211.418 90.1636L213.48 88.1023L216.194 90.8159L213.591 93.4179L211.63 91.3785L211.398 91.1377H211.064H199.59H198.805L198.805 91.9227L198.805 103.192L198.805 103.52L199.037 103.75L201.106 105.798L199.035 107.869L198.805 108.099L198.805 108.424L198.805 119.895L198.805 120.68H199.59H210.863H211.188L211.418 120.45L213.48 118.389L216.194 121.102L213.591 123.704L211.63 121.665L211.398 121.424H211.064H199.59H198.805L198.805 122.209L198.805 133.479L198.805 133.806L199.037 134.036L201.106 136.084L199.035 138.156L198.805 138.385L198.805 138.711L198.805 150.081L198.805 150.866H199.59H210.863H211.188L211.418 150.636L213.429 148.625L216.194 151.389L213.542 154.04L211.63 152.052L211.398 151.811H211.064H199.59H198.805L198.805 152.596L198.805 163.866L198.805 164.193L199.037 164.423L201.106 166.471L199.035 168.543L198.805 168.773L198.805 169.098L198.805 180.568V181.353H199.59H210.863H211.188L211.418 181.124L213.53 179.012L216.194 181.675L213.591 184.277L211.63 182.238L211.398 181.997H211.064H199.59H198.805V182.782V194.051V194.377L199.035 194.607L202.054 197.625L203.164 196.515L200.375 193.726L200.375 183.567H210.73L212.481 185.387L209.806 188.061L209.405 187.66L209.166 187.422L208.83 187.431L204.904 187.531L204.139 187.551V188.316V191.938V192.264L204.369 192.494L209.603 197.726L210.208 197.12L210.411 197.323L213.569 194.166L215.531 196.205L215.763 196.446H216.097H227.571L228.356 196.446V195.661V184.392V184.064L228.123 183.834L225.802 181.536L228.026 179.312L228.256 179.082V178.757V167.488V166.703L227.471 166.703H216.197H215.872L215.642 166.933L213.48 169.095L210.916 166.532L213.569 163.88L215.531 165.919L215.763 166.16H216.097H227.571L228.356 166.16V165.375V154.105V153.778L228.123 153.548L225.802 151.249L228.026 149.026L228.256 148.796V148.471L228.256 137.201V136.416L227.471 136.416H216.197H215.872L215.642 136.646L213.53 138.758L210.916 136.145L213.569 133.493L215.531 135.532L215.763 135.773H216.097L227.571 135.773H228.356V134.988V123.718V123.391L228.123 123.161L225.852 120.912L228.026 118.74L228.256 118.51V118.184V106.915V106.13H227.471H216.197H215.872L215.642 106.36L213.53 108.471L210.916 105.858L213.569 103.206L215.531 105.246L215.763 105.486H216.097H227.571H228.356V104.701V93.432V93.1045L228.123 92.8741L225.802 90.5757L228.026 88.3525L228.256 88.1226V87.7973V76.5279V75.7429H227.471H216.197H215.872L215.642 75.9728L213.48 78.1347L210.916 75.572L213.569 72.9198L215.531 74.9591L215.763 75.1999H216.097H227.571H228.356V74.4149L228.356 63.1456V62.8181L228.123 62.5877L225.802 60.2893L228.026 58.066L228.256 57.8361V57.5109L228.256 46.2415V45.4565H227.471H216.197H215.872L215.642 45.6863L213.48 47.8483L210.916 45.2856L213.569 42.6333L215.531 44.6727L215.763 44.9135H216.097H227.571H228.356V44.1285V32.8591V32.5316L228.123 32.3012L225.852 30.0529L228.026 27.8802L228.256 27.6503V27.3251V15.9551V15.1701H227.471L216.197 15.1701H215.872L215.642 15.3999L213.53 17.5115L210.916 14.8986L213.569 12.2463L215.531 14.2856L215.763 14.5264H216.097L227.571 14.5264H228.356V13.7414V2.47206V2.14456L228.123 1.91417L226.19 0H223.958L226.786 2.79956V12.9564L216.431 12.9564L214.68 11.1361L217.254 8.56269L217.756 9.0644L217.994 9.3026L218.331 9.29397L222.257 9.19334L223.022 9.17374V8.4086V4.78631V4.46107L222.792 4.23113L218.559 0H216.05ZM218.628 7.71585L218.365 7.45272L221.079 4.73916L221.452 5.11154V7.64347L218.628 7.71585ZM217.305 0.965934L219.969 3.62918L209.806 13.7886L207.142 11.1253L217.305 0.965934ZM208.746 7.30179L206.031 10.0153L205.709 9.69328V7.16135L208.533 7.08897L208.746 7.30179ZM212.481 3.5681L209.856 6.19182L209.405 5.74042L209.166 5.50222L208.83 5.51086L204.904 5.61147L204.139 5.63108V6.39622V10.0185V10.3437L204.369 10.5737L212.42 18.6215L209.756 21.2847L200.375 11.9069L200.375 1.74777L210.73 1.74777L212.481 3.5681ZM205.958 19.7081L208.645 22.3947L208.323 22.7165L205.609 22.7165V20.0253L205.958 19.7081ZM202.207 15.9582L204.846 18.5968L204.296 19.097L204.039 19.3306V19.678L204.039 23.5015V24.2865H204.824L208.648 24.2865H208.974L209.203 24.0567L216.523 16.7401H226.686V26.9998L224.736 28.9484L222.11 26.3483L222.892 25.566L223.122 25.336V25.0108V21.3885V20.6035H222.337H218.412H218.087L217.857 20.8333L210.538 28.15L200.375 28.15L200.375 17.7896L202.207 15.9582ZM221.552 24.6856L220.994 25.2438L218.317 22.5937L218.737 22.1735H221.552V24.6856ZM214.59 26.3189L217.206 23.7037L226.786 33.1866V43.3435H216.431L214.68 41.5232L217.305 38.8994L217.756 39.3508L217.994 39.589L218.331 39.5804L222.257 39.4798L223.022 39.4602V38.695V35.0727V34.7475L222.792 34.5176L214.59 26.3189ZM218.628 38.0023L218.415 37.7895L221.129 35.0759L221.452 35.398V37.9299L218.628 38.0023ZM217.305 31.2524L220.019 33.9659L209.806 44.1756L207.091 41.4621L217.305 31.2524ZM208.696 37.6385L205.981 40.3521L205.709 40.0803V37.5484L208.533 37.476L208.696 37.6385ZM212.432 33.9039L209.806 36.5286L209.405 36.1275L209.166 35.8893L208.83 35.8979L204.904 35.9985L204.139 36.0181V36.7833V40.4056V40.7308L204.369 40.9607L212.369 48.9582L209.752 51.5744L200.375 42.2917L200.375 32.1348H210.73L212.432 33.9039ZM205.94 50.0102L208.642 52.6844L208.323 53.003H205.609V50.3118L205.94 50.0102ZM202.222 46.3297L204.823 48.9042L204.296 49.3835L204.039 49.6171V49.9644V53.788V54.573H204.824H208.648H208.974L209.203 54.3431L216.523 47.0265H226.686V57.1856L224.686 59.1848L222.16 56.6848L222.892 55.953L223.122 55.7231V55.3979V51.7756V50.9906H222.337H218.412H218.087L217.857 51.2204L210.538 58.537H200.375L200.375 48.1766L202.222 46.3297ZM221.552 55.0726L221.044 55.5803L218.367 52.9302L218.737 52.5606H221.552V55.0726ZM214.64 56.6556L217.257 54.0402L226.786 63.4731V73.6299H216.431L214.68 71.8096L217.305 69.1859L217.756 69.6373L217.994 69.8755L218.331 69.8668L222.257 69.7662L223.022 69.7466V68.9815V65.3592V65.0339L222.792 64.804L214.64 56.6556ZM218.628 68.2887L218.415 68.0759L221.129 65.3623L221.452 65.6844V68.2163L218.628 68.2887ZM217.305 61.5388L220.019 64.2524L209.806 74.4621L207.091 71.7485L217.305 61.5388ZM208.696 67.925L205.981 70.6385L205.709 70.3668V67.8348L208.533 67.7625L208.696 67.925ZM212.432 64.1903L209.806 66.815L209.405 66.4139L209.166 66.1757L208.83 66.1843L204.904 66.285L204.139 66.3046V67.0697L204.139 70.692V71.0173L204.369 71.2472L212.369 79.2447L209.752 81.8608L200.375 72.5781L200.375 62.4213H210.73L212.432 64.1903ZM205.94 80.2966L208.642 82.9708L208.323 83.2894H205.609V80.5982L205.94 80.2966ZM202.222 76.6161L204.823 79.1906L204.296 79.6699L204.039 79.9035V80.2508V84.0744V84.8594H204.824H208.648H208.974L209.203 84.6296L216.523 77.3129H226.686V87.4721L224.686 89.4712L222.16 86.9713L222.892 86.2395L223.122 86.0095V85.6843V82.062V81.277H222.337H218.412H218.087L217.857 81.5068L210.538 88.8234H200.375L200.375 78.4631L202.222 76.6161ZM221.552 85.3591L221.044 85.8668L218.367 83.2166L218.737 82.847H221.552V85.3591ZM214.59 86.9923L217.257 84.3266L226.786 93.7595L226.786 103.916H216.431L214.68 102.096L217.254 99.5226L217.756 100.024L217.994 100.263L218.331 100.254L222.257 100.153L223.022 100.134V99.3685V95.7462V95.421L222.792 95.1911L214.59 86.9923ZM218.628 98.6758L218.365 98.4127L221.079 95.6991L221.452 96.0715V98.6034L218.628 98.6758ZM217.305 91.9258L219.969 94.5891L209.806 104.749L207.142 102.085L217.305 91.9258ZM208.746 98.2617L206.031 100.975L205.709 100.653L205.709 98.1213L208.533 98.0489L208.746 98.2617ZM212.481 94.528L209.856 97.1517L209.405 96.7004L209.166 96.4622L208.83 96.4708L204.904 96.5714L204.139 96.591V97.3561L204.139 100.978V101.304L204.369 101.534L212.42 109.581L209.803 112.197L200.375 102.865L200.375 92.7077H210.73L212.481 94.528ZM205.993 110.636L208.693 113.307L208.323 113.676H205.609V110.985L205.993 110.636ZM202.222 106.903L204.876 109.529L204.296 110.057L204.039 110.291V110.638L204.039 114.461V115.246H204.824H208.648H208.974L209.203 115.017L216.522 107.7H226.686V117.859L224.736 119.808L222.16 117.258L222.892 116.526L223.122 116.296V115.971V112.348V111.563H222.337H218.412H218.087L217.857 111.793L210.538 119.11H200.375L200.375 108.75L202.222 106.903ZM221.552 115.646L221.044 116.153L218.367 113.503L218.737 113.133H221.552V115.646ZM214.59 117.279L217.257 114.613L226.786 124.046V134.203H216.431L214.68 132.382L217.254 129.809L217.756 130.311L217.994 130.549L218.331 130.54L222.257 130.44L223.022 130.42V129.655L223.022 126.033V125.707L222.792 125.478L214.59 117.279ZM218.628 128.962L218.365 128.699L221.079 125.986L221.452 126.358V128.89L218.628 128.962ZM217.305 122.212L219.969 124.876L209.806 135.035L207.142 132.372L217.305 122.212ZM208.746 128.548L206.031 131.262L205.709 130.94V128.408L208.533 128.335L208.746 128.548ZM212.481 124.814L209.856 127.438L209.405 126.987L209.166 126.749L208.83 126.757L204.904 126.858L204.139 126.877V127.643V131.265V131.59L204.369 131.82L212.42 139.868L209.803 142.484L200.375 133.151L200.375 122.994H210.73L212.481 124.814ZM205.993 140.922L208.693 143.594L208.323 143.963H205.609L205.609 141.272L205.993 140.922ZM202.222 137.189L204.876 139.816L204.296 140.343L204.039 140.577V140.924L204.039 144.748V145.533H204.824H208.648H208.974L209.203 145.303L216.522 137.986H226.686V148.146L224.686 150.145L222.059 147.545L222.892 146.712L223.122 146.482V146.157V142.534V141.749H222.337H218.412H218.087L217.857 141.979L210.538 149.296H200.375L200.375 139.036L202.222 137.189ZM221.552 145.831L220.943 146.44L218.266 143.79L218.737 143.319H221.552V145.831ZM214.54 147.515L217.156 144.9L226.786 154.433V164.59H216.431L214.68 162.77L217.305 160.146L217.756 160.597L217.994 160.835L218.331 160.827L222.257 160.726L223.022 160.707V159.941V156.319V155.994L222.792 155.764L214.54 147.515ZM218.628 159.249L218.415 159.036L221.129 156.322L221.452 156.644V159.176L218.628 159.249ZM217.305 152.499L220.019 155.212L209.806 165.422L207.091 162.708L217.305 152.499ZM208.696 158.885L205.981 161.598L205.709 161.327V158.795L208.533 158.722L208.696 158.885ZM212.432 155.15L209.806 157.775L209.405 157.374L209.166 157.136L208.83 157.144L204.904 157.245L204.139 157.264V158.03V161.652V161.977L204.369 162.207L212.369 170.205L209.752 172.821L200.375 163.538L200.375 153.381H210.73L212.432 155.15ZM205.94 171.257L208.642 173.931L208.323 174.249H205.609V171.558L205.94 171.257ZM202.222 167.576L204.823 170.151L204.296 170.63L204.039 170.863V171.211V175.034V175.819H204.824H208.648H208.974L209.203 175.589L216.522 168.273H226.686L226.686 178.432L224.686 180.431L222.16 177.931L222.892 177.199L223.122 176.969V176.644V173.022V172.237H222.337H218.412H218.087L217.857 172.467L210.538 179.783H200.375L200.375 169.423L202.222 167.576ZM221.552 176.319L221.044 176.827L218.367 174.177L218.737 173.807H221.552V176.319ZM214.64 177.902L217.257 175.287L226.786 184.719L226.786 194.876H216.431L214.68 193.056L217.305 190.432L217.756 190.884L217.994 191.122L218.331 191.113L222.257 191.013L223.022 190.993V190.228V186.606V186.28L222.792 186.05L214.64 177.902ZM218.628 189.535L218.415 189.322L221.129 186.609L221.452 186.931V189.463L218.628 189.535ZM217.305 182.785L220.019 185.499L209.806 195.708L207.091 192.995L217.305 182.785ZM208.696 189.171L205.981 191.885L205.709 191.613V189.081L208.533 189.009L208.696 189.171Z" fill="#DD264E"/>
</svg>
