<svg width="229" height="199" viewBox="0 0 229 199" fill="none" xmlns="http://www.w3.org/2000/svg">
<path d="M91 194V166.156C55.5523 163.062 27.7439 133.281 27.7439 97C27.7439 60.7185 55.5523 30.9378 91 27.8445V0C40.2146 3.1526 4.50917e-06 45.3759 0 97C-4.50917e-06 148.624 40.2146 190.847 91 194Z" fill="#42CFEE"/>
<path d="M78.1009 97.9477C77.8865 99.5563 78.9589 100.843 80.7819 101.058M77.8865 97.1971C79.0661 96.7681 80.2457 97.0898 81.1037 97.9477C82.176 99.1274 82.3905 100.843 83.2484 102.237M79.7095 96.5536C83.8919 96.2319 83.8919 100.2 86.5729 101.916M65.8756 100.307C64.9105 99.0201 65.6612 97.3043 68.0204 97.4115C70.7014 96.4464 75.7417 95.8029 78.1009 96.2319C83.1412 93.9799 89.1466 96.3391 90.1118 101.058M90.1118 101.058C90.7552 102.666 93.1145 104.168 94.9375 104.06M90.1118 101.058C91.1842 99.9853 92.9 99.5563 94.1869 100.307C96.2244 101.379 97.833 104.275 99.5488 104.811C97.5113 106.527 93.2217 106.312 90.8624 104.382C91.7204 108.779 86.8946 111.031 81.9616 108.35C79.7095 106.956 76.7068 105.776 73.8114 105.026C71.5593 104.489 69.3073 104.597 67.9132 104.382C66.948 104.275 66.7336 103.739 66.6263 103.202C67.6987 102.774 71.4521 102.666 74.1331 102.774C71.6666 102.023 68.3422 101.701 66.3046 101.808C65.9829 101.808 65.5539 101.701 65.4467 101.379C65.125 100.95 65.3394 100.093 66.1974 100.2C66.7336 100.307 67.1625 100.414 67.4842 100.2C67.9132 99.9853 68.1277 99.4491 67.9132 98.9129C67.6987 98.4839 67.2698 98.3767 66.948 98.4839C66.6263 98.5912 66.3046 98.9129 66.1974 99.3418M77.5648 106.205C83.7846 110.173 87.7525 122.077 87.1091 129.476M109.522 108.028C108.45 105.347 107.914 98.5912 108.986 94.3016C107.806 94.0871 106.412 93.6582 105.876 93.2292C105.018 94.6233 104.053 98.055 104.482 101.165C102.015 91.7279 103.302 78.6446 108.021 74.0333C104.696 74.6768 99.1199 74.1406 96.8679 72.9609C97.7258 74.9985 98.0475 81.9691 97.6185 86.9021M103.624 113.283C108.557 111.245 112.632 104.597 112.632 99.7708M124.643 107.385C123.034 109.744 122.391 114.463 123.356 116.929M115.956 97.5188C115.956 96.4464 115.528 95.6957 114.562 95.2668C113.275 94.7306 111.023 96.0174 109.522 95.2668C109.2 98.4839 112.096 100.736 115.528 99.6636C114.562 104.918 118.745 108.886 124.107 107.599C126.788 106.741 129.683 106.741 130.648 106.956C133.222 107.17 134.509 105.454 134.402 103.631C133.329 103.846 132.579 103.739 131.184 103.524C133.865 103.417 134.616 102.345 134.509 101.165M92.5783 117.465C87.1091 122.506 85.715 132.372 89.1466 137.09M90.8624 136.554C88.1815 130.656 91.8276 122.291 97.9402 119.932M91.3986 146.313C83.6774 145.884 83.9991 135.482 93.7579 136.554M120.246 125.079C115.956 133.551 120.568 142.988 129.361 146.313M69.8435 146.313H131.935C135.581 146.42 135.581 141.058 131.506 140.2M131.399 132.479C130.541 132.264 129.469 133.015 129.683 134.087C130.005 136.232 133.222 136.554 134.294 133.98C135.367 131.192 132.364 128.511 129.254 129.476C125.608 130.656 124.965 136.232 128.611 138.806C130.327 139.986 132.686 140.522 134.187 140.093C138.691 138.806 140.729 132.264 136.117 126.688C129.79 116.607 110.702 110.709 97.6185 114.141" stroke="#292526" stroke-miterlimit="22.926"/>
<path d="M79.8189 99.0127C80.2927 99.0127 80.6768 98.6286 80.6768 98.1548C80.6768 97.681 80.2927 97.2969 79.8189 97.2969C79.345 97.2969 78.9609 97.681 78.9609 98.1548C78.9609 98.6286 79.345 99.0127 79.8189 99.0127Z" fill="#292526"/>
<path d="M79.8189 99.0127C80.2927 99.0127 80.6768 98.6286 80.6768 98.1548C80.6768 97.681 80.2927 97.2969 79.8189 97.2969C79.345 97.2969 78.9609 97.681 78.9609 98.1548C78.9609 98.6286 79.345 99.0127 79.8189 99.0127Z" stroke="#292526" stroke-miterlimit="22.926"/>
<path d="M125.619 97.5152C126.37 99.4455 125.298 101.269 123.367 101.161M121.115 101.805C121.33 99.4455 123.475 97.0862 125.298 97.1935M119.292 99.66C119.721 97.9441 121.973 96.3356 123.582 96.55M74.895 80.7858C74.4661 81.9655 73.7154 82.8234 72.4285 83.5741C69.6403 85.1826 66.3159 84.6464 62.5625 85.3971C64.2783 82.8234 65.5652 78.7483 68.2462 76.9252C70.0693 75.6383 72.1068 75.1021 74.5733 75.2094M81.4366 77.6759C87.7638 74.6732 95.8067 78.8555 97.6298 86.0406M80.5787 71.885C89.0507 71.3488 97.6298 78.7483 97.6298 86.684M80.5787 80.6786C80.0425 81.322 78.7557 81.2148 78.3267 80.2496C77.3615 78.4266 79.8281 76.389 81.9728 77.8904C84.3321 79.499 83.367 83.1451 80.3643 84.003C77.1471 84.8609 73.5009 81.6437 75.1095 77.9976C75.5385 76.9252 76.6109 76.0673 77.4688 75.7456C76.6109 75.8528 75.2168 75.6383 74.3588 74.8877C71.2489 72.3139 73.072 67.8099 76.2892 67.0592C79.2919 66.4157 81.8656 69.204 80.4715 71.7777C79.1846 74.137 76.1819 73.4935 76.1819 71.3488C76.1819 70.2764 77.2543 69.6329 78.005 69.9546M164.869 67.8099C164.226 68.0243 163.475 67.5954 163.475 66.7375C163.475 65.1289 165.834 64.6999 166.799 66.4157C167.764 68.346 165.834 70.3836 163.582 69.9546M102.563 74.2442C102.348 75.4239 102.134 77.4614 101.919 78.3193M101.49 74.2442C101.383 75.3166 101.169 77.3542 100.954 78.2121M97.2009 47.0054C97.5226 41.4289 102.563 36.1742 109.212 33.7077C103.421 38.2118 105.887 42.5013 104.386 46.8982M119.399 46.6837C122.08 42.1796 130.874 39.6059 137.63 40.7855C126.906 42.2869 128.729 50.2226 124.761 52.6891M98.4877 49.5791C98.595 47.5416 96.6647 46.1475 94.9488 46.4692C93.4475 46.6837 91.9461 48.185 92.0534 51.0805M118.97 50.0081C121.115 47.0054 118.327 44.3244 115.861 45.2896M101.169 50.0081C101.383 46.6837 104.386 46.0402 105.994 47.4344M121.33 52.1529C126.263 50.6515 127.442 56.7642 122.831 57.8366M111.035 47.8633C111.464 46.7909 112.858 45.2896 113.93 45.0751M109.319 51.0805C109.962 50.0081 111.678 48.7212 112.751 48.3995M107.067 55.1556C107.925 53.6542 110.177 52.1529 111.464 51.9384M102.134 74.0297C101.705 70.2764 104.386 65.5578 107.603 64.5927M104.386 60.8393C105.244 58.909 108.139 56.5497 110.177 56.1207M108.783 60.0886C106.638 60.732 103.85 62.8768 102.563 66.7375M114.359 40.3565C110.606 51.8312 101.169 60.1958 102.027 74.2442M121.544 60.3031C119.507 59.7669 116.397 60.1958 114.359 61.161M89.6941 53.4398C88.8362 55.3701 88.6217 58.48 89.2651 60.6248M118.22 62.9841C115.324 61.8044 111.035 62.8768 108.783 65.1289M91.8389 57.3004C90.2303 59.9814 90.4448 64.3782 92.1606 67.0592M115.539 65.6651C112.643 64.4854 108.032 65.4506 106.102 67.8099M93.8764 60.3031C92.1606 62.8768 92.3751 67.7026 94.3054 70.0619M112.858 68.2388C109.962 66.7375 105.566 67.9171 103.957 70.8126M103.957 70.8126C103.742 71.027 102.992 72.5284 102.348 74.137M103.957 70.8126C109.212 62.0189 121.759 55.6918 133.662 57.3004C128.729 57.7293 128.3 59.3379 126.263 60.8393C124.761 61.9117 123.475 61.3755 122.831 60.8393M96.0212 63.5203C93.9837 66.094 94.4126 70.7053 96.8791 72.7429M110.07 70.7053C107.389 69.0967 103.528 70.3836 102.992 72.7429M97.9515 66.6302C95.914 68.9895 96.3429 72.5284 98.4877 73.6008M112 71.5632C112 72.3139 111.571 73.0646 110.284 73.4935C109.641 73.708 108.783 73.9225 107.925 74.137M99.1312 64.8071C99.8818 64.9144 100.418 65.5578 100.633 67.0592C100.954 69.0967 100.311 72.2067 101.598 74.2442M115.539 69.4184C115.539 71.2415 113.287 72.2067 111.356 71.2415M109.855 62.1262C110.391 62.5551 110.606 63.0913 110.606 63.7348M114.037 46.7909C116.075 46.2547 116.504 43.681 115.324 43.252C116.289 41.8579 115.968 39.2842 115.539 35.3163C114.574 39.3914 110.391 41.7507 111.249 43.4665M111.249 43.681C110.07 42.7158 107.71 44.7534 108.461 47.3271M114.574 46.6837C115.753 47.1126 115.217 49.6864 113.072 50.3298M108.247 46.8982C106.852 45.8258 104.708 48.0778 105.566 50.9733M113.501 50.1153C114.895 50.6515 114.252 53.4398 111.785 54.1904M105.351 50.3298C103.742 49.9009 102.027 52.7963 103.314 55.0484M112.214 53.8687C113.18 54.7266 112.643 57.4076 110.391 58.0511M100.633 58.3728C99.3456 58.1583 98.166 59.6597 98.4877 61.3755M102.885 54.2977C101.169 54.0832 99.8818 56.5497 100.847 58.6945M110.82 57.8366C112.214 58.909 111.464 61.59 109.104 62.4479M97.6298 61.0538C99.4529 61.3755 99.9891 63.7347 98.7022 65.5578M118.542 66.7375C118.863 68.5605 116.718 69.9546 114.681 69.0967M95.5923 57.6221C97.4153 57.6221 98.3805 59.9814 97.2009 61.8044M121.544 64.0565C121.866 65.8795 119.721 67.2737 117.684 66.4157M93.4475 54.1904C95.2705 54.1904 96.2357 56.5497 95.0561 58.3728M124.225 61.3755C124.547 63.1986 122.402 64.5927 120.365 63.7348M91.3027 50.9733C93.1258 50.9733 94.0909 53.3325 92.9113 55.1556M97.5226 73.1718C89.4796 66.523 85.19 52.6891 88.9434 41C88.5145 45.933 90.0158 46.6837 91.0882 48.9357C91.8389 50.5443 91.0882 51.8312 90.552 52.2601M110.177 107.167C109.212 108.883 109.104 111.564 109.212 112.85M111.678 104.271C110.82 106.952 111.035 110.277 112 112.207M112.536 100.947C112 104.057 112.643 108.239 114.359 110.813M113.823 99.8745C113.18 102.877 114.574 107.488 116.504 109.204M71.5706 146.202C75.8602 146.309 81.9728 144.915 84.5466 143.199M68.5679 133.333C60.3105 134.942 60.9539 146.202 69.7475 146.309C75.2168 146.095 78.5412 140.625 76.2892 135.371C75.4312 133.548 75.8602 131.188 77.2543 130.545M85.4045 117.676C74.2516 120.572 66.1014 130.974 68.3534 140.947M84.2249 135.049C84.7611 136.229 86.5841 137.623 87.871 137.837M87.3348 131.403C80.5787 131.617 79.7208 140.625 86.0479 142.234M100.204 137.944C105.887 140.196 111.678 140.197 115.539 137.623C115.968 137.301 116.504 137.087 116.826 137.194C117.255 137.301 117.469 137.623 117.255 138.159C117.04 138.481 116.718 138.481 116.504 138.695C116.075 139.017 116.182 139.446 116.397 139.66C116.611 139.875 117.362 139.982 117.684 139.339C118.22 138.159 118.97 137.408 119.614 136.979M94.9488 142.127C100.525 143.735 108.139 143.306 112.965 140.089C114.145 139.339 115.432 139.768 115.003 140.947C114.681 141.376 114.252 141.483 114.037 141.698C113.501 142.127 113.608 142.663 113.823 142.985C114.145 143.306 115.003 143.414 115.432 142.663C116.611 140.089 119.078 139.339 120.472 142.234C121.437 143.843 122.617 144.915 124.869 146.309M104.279 121.108C106.745 125.29 105.78 131.081 102.134 132.797C99.6674 134.084 99.1312 137.194 100.954 139.231C102.992 141.591 98.166 143.735 92.6968 141.591M180.848 122.18C181.706 124.754 182.027 129.902 181.491 132.475M179.025 119.607C179.99 122.609 179.99 128.936 178.917 132.154M171.303 146.095C172.59 143.628 175.486 138.695 177.094 136.443M176.022 134.513C176.451 136.872 179.561 138.695 182.456 138.159M177.523 141.591C182.027 140.304 185.673 134.942 184.816 130.759M152.536 129.902C155.539 124.861 160.043 127.221 164.226 124.325C168.408 121.322 169.695 116.389 168.837 112.314M148.032 124.218C149.641 127.113 149.426 131.725 147.496 133.44M147.282 140.625C148.998 141.912 149.105 145.13 147.603 146.309M142.778 120.357C140.097 125.505 140.204 131.617 142.67 134.513C144.601 136.765 147.711 137.194 150.928 135.049M138.595 135.156C138.81 136.229 139.131 137.194 139.668 137.837C141.812 140.733 145.244 141.805 148.89 139.768M139.775 124.54C138.917 126.47 138.488 128.615 138.381 130.652M153.073 140.196C155.11 141.483 155.646 144.379 154.038 146.095M153.716 133.655C155.11 136.765 153.502 141.054 150.499 142.234M168.837 135.371C172.054 137.73 173.234 143.092 171.196 146.095M166.692 136.014C169.266 138.802 169.909 143.735 167.979 145.987M163.689 136.336C165.512 137.944 166.478 141.483 165.727 143.414M161.008 136.229C163.797 139.231 164.226 143.95 161.759 145.773M155.11 127.221C159.4 132.261 168.622 130.867 171.089 125.397M168.515 110.384C170.016 117.569 165.941 123.038 160.579 121.215C156.826 119.714 156.075 114.245 158.006 110.277M167.014 105.022C169.159 111.242 171.303 123.789 171.411 130.116M168.73 97.7297C171.303 97.5152 174.521 98.4803 175.486 99.4455M166.585 98.6948C168.73 98.6948 171.411 99.9817 172.483 101.376M175.486 89.2577C173.663 90.5446 171.625 94.5125 171.411 97.0862M165.727 99.1238C167.55 100.518 169.266 102.984 169.48 105.022M164.011 100.518C165.512 101.269 166.585 103.521 166.263 104.915M164.011 100.518C161.116 100.196 158.327 100.732 156.719 101.912C155.539 102.77 155.003 104.164 155.861 105.558M164.011 100.518C166.585 98.0514 172.376 96.2283 176.129 96.8718M169.373 40.7855C168.301 42.9303 167.228 45.8258 167.228 46.5764M151.893 34.7801C151.893 37.1394 151.571 40.8927 151.25 42.2869M148.569 41.9651C155.217 42.3941 165.941 45.504 170.016 48.185M151.035 64.1637C151.357 65.9868 150.606 68.4533 149.534 68.9895M149.534 68.9895C141.491 71.456 133.877 81.4293 134.413 88.8288C133.126 98.5876 142.885 103.199 153.931 97.8369M149.534 68.9895C150.284 70.7053 151.786 71.885 153.609 72.3139M159.185 85.1826C158.864 77.8904 163.475 72.8501 168.408 73.708M142.992 74.2442C149.426 74.0297 154.896 81.751 155.754 85.9333M152.751 91.8315C151.571 93.869 150.499 97.6224 150.499 99.231M149.426 81.8582C151.142 83.8958 151.786 88.6143 150.713 91.2953M145.673 81.4293C143.421 84.5392 143.743 89.365 146.317 91.1881M140.311 86.255C140.418 88.7215 143.207 91.2953 145.78 91.2953M149.426 51.1877C150.177 52.4746 151.679 52.7963 153.073 52.1529M155.11 52.5818C156.075 54.4049 158.971 54.6194 160.258 52.4746M148.998 49.9009C150.284 49.0429 151.679 49.3647 152.751 50.0081C153.18 50.2226 153.502 50.5443 153.931 50.9733M155.325 51.295C156.612 50.4371 157.791 50.7588 158.864 51.4022C159.829 51.9384 160.472 53.118 161.974 53.547M155.325 49.4719C157.362 48.3995 160.472 49.2574 161.545 51.295M148.998 46.5764C151.786 46.2547 154.252 48.2923 153.931 50.6515C153.394 53.118 152.858 55.4773 152.429 57.4076C152.858 57.5149 153.394 57.6221 154.145 57.7293C154.788 58.3728 155.861 58.2655 156.075 57.5149M155.325 65.8795C156.075 65.8795 156.933 65.6651 157.898 65.3433M148.354 44.5389C149.212 46.5764 149.855 50.3298 149.105 53.4398C147.818 58.909 149.426 63.413 152.536 65.0216M162.188 58.8017C162.188 60.1958 161.223 62.5551 160.258 63.7348C160.15 65.8795 160.794 68.4533 162.295 69.8474M163.046 47.2199C165.405 49.0429 165.727 53.7615 163.475 56.6569C166.049 57.7293 164.762 62.0189 160.794 62.9841M166.37 39.4986C169.051 40.571 171.196 41.6434 172.59 42.6086C171.196 44.3244 169.695 48.185 169.588 50.2226M169.588 50.2226C170.982 54.1904 168.515 58.6945 164.654 59.1235M169.588 50.2226C164.869 47.2199 154.252 44.5389 148.247 44.7534C148.89 41.2145 148.676 35.9597 147.818 34.0294C150.821 34.5656 154.252 35.4235 157.684 36.4959M176.665 108.883C177.309 114.03 176.665 121.001 173.126 126.684M176.88 102.448C177.845 107.917 175.164 115.531 171.518 117.569M157.04 135.263C161.223 137.944 161.116 143.95 157.469 145.773M151.25 131.725C158.542 138.91 171.84 137.623 177.309 128.615M176.558 116.604C178.81 118.963 181.169 122.716 182.563 125.183C188.354 135.907 185.566 146.845 173.663 146.309C170.016 146.095 165.405 145.88 160.579 145.88C156.183 145.88 151.679 146.202 147.711 146.309M136.558 139.017C137.737 143.521 141.491 146.524 147.925 146.309M145.566 117.462C145.244 117.783 144.815 118.212 144.493 118.534C141.276 121.859 139.024 125.397 137.63 128.936M147.496 111.349C144.172 117.462 144.922 126.255 149.105 130.116M147.067 108.561C147.282 114.566 151.786 121.751 155.968 122.824M154.574 77.8904C155.432 77.9976 156.933 77.7831 157.577 77.3542M160.365 113.494C161.545 114.137 163.904 113.708 165.083 112.636M160.472 91.4025L154.145 61.2682C153.502 61.59 152.429 61.8044 151.893 61.59L156.933 92.1532M162.402 100.411L162.188 99.3383M159.614 109.204L160.901 116.711C161.974 117.569 164.654 117.14 165.62 115.96L163.797 107.381M158.006 98.9093L158.327 101.054M159.293 85.7188C164.762 79.3917 175.7 80.8931 179.025 88.7215M134.413 88.936C138.381 80.1424 150.606 78.9628 155.861 86.4695M155.11 92.9039C153.394 94.4052 153.287 96.8718 153.931 97.9442C154.467 98.8021 156.612 99.1238 158.435 98.8021C160.15 98.4803 162.51 98.8021 162.295 99.9817M160.472 96.7645C162.51 96.55 163.689 97.4079 163.797 98.3731C163.797 98.8021 163.689 99.7672 162.51 100.196M160.258 95.0487C161.759 94.8342 163.153 95.0487 163.904 95.5849C164.762 96.2283 164.869 97.5152 163.904 98.4803M159.4 93.5473C162.617 92.2604 165.298 93.869 164.547 96.55M141.276 96.7645C142.67 93.6546 147.282 90.8663 150.499 91.2953M138.381 94.298C142.241 90.7591 150.821 90.1157 155.432 93.0111C158.971 90.5446 163.153 90.9736 163.904 93.7618M146.424 103.521C145.137 109.74 150.606 114.03 157.362 112.1M144.601 100.089C144.815 103.735 149.212 105.987 153.716 105.022C153.931 104.915 154.896 104.807 155.432 104.486M156.612 72.7429C159.078 72.6356 161.008 71.6705 162.188 69.8474C174.199 71.6705 182.885 90.3301 178.81 99.8745C178.274 101.161 177.523 102.019 176.451 102.877C173.877 105.022 168.837 105.665 165.941 104.915C165.298 106.631 162.51 108.561 160.15 109.204C159.936 109.204 159.185 109.419 159.078 109.419M113.501 95.1559C114.466 92.4749 118.542 92.1532 119.936 94.4052M112.429 98.1586C113.394 98.6948 115.324 98.3731 115.861 97.5152C116.826 95.2632 119.078 94.1908 121.544 94.298C123.689 94.4052 125.834 96.1211 127.979 97.0862C129.051 97.6224 131.839 98.4803 133.448 98.8021C135.593 99.231 135.056 101.912 132.912 101.59C131.839 101.483 131.517 100.411 131.839 99.7672M96.0212 109.74C96.6647 112.1 96.3429 116.282 95.1633 117.891M94.7343 108.025C95.2705 109.848 95.0561 113.387 94.3054 115.102M93.4475 106.416C94.4126 108.883 93.5547 113.816 91.7316 116.389M92.2678 105.344C92.9113 107.274 92.4823 111.349 91.3027 113.494M91.3027 104.593C92.3751 107.703 90.2303 112.958 88.1927 114.566M91.0882 104.486C95.485 107.488 98.7022 113.708 97.6298 116.818M100.847 113.601C101.812 103.413 96.8791 89.5795 90.7665 84.9682C91.4099 84.3247 92.1606 82.8234 92.3751 81.8582C95.0561 83.4668 98.7022 87.7564 99.9891 90.7591M83.9032 90.6519C83.9032 92.2605 82.8308 94.6197 81.7584 95.4776M80.7932 95.4776C80.4715 94.727 80.3643 93.5473 80.7932 92.5822C81.5439 90.7591 83.0452 90.3301 84.1176 87.8636C86.5841 90.3301 87.0131 94.1908 85.2973 95.9066M97.7371 78.3193C100.525 77.8904 104.171 78.5338 104.922 79.6062M99.4529 75.2094C99.8818 75.2094 100.204 75.5311 100.204 75.96C100.204 76.389 99.8818 76.7107 99.4529 76.7107C99.0239 76.7107 98.7022 76.389 98.7022 75.96C98.7022 75.5311 99.1312 75.2094 99.4529 75.2094ZM104.064 75.7456C104.493 75.7456 104.815 76.0673 104.815 76.4962C104.815 76.9252 104.493 77.2469 104.064 77.2469C103.635 77.2469 103.314 76.9252 103.314 76.4962C103.206 76.0673 103.635 75.7456 104.064 75.7456ZM162.188 109.955C162.724 109.955 163.046 110.384 163.046 110.813C163.046 111.349 162.617 111.671 162.081 111.671C161.545 111.671 161.223 111.242 161.223 110.813C161.223 110.384 161.652 109.955 162.188 109.955ZM165.62 42.6086C162.831 43.5737 157.362 42.2869 155.003 40.1421C158.113 37.2466 161.008 29.4181 160.687 24.9141C165.191 28.1312 167.657 37.0321 165.62 42.6086Z" stroke="#292526" stroke-miterlimit="22.926"/>
<path fill-rule="evenodd" clip-rule="evenodd" d="M123.592 97.9531C124.021 97.9531 124.45 98.2748 124.45 98.811C124.45 99.24 124.128 99.669 123.592 99.669C123.056 99.669 122.734 99.3472 122.734 98.811C122.842 98.3821 123.163 97.9531 123.592 97.9531Z" fill="#292526"/>
<path d="M123.592 97.9531C124.021 97.9531 124.45 98.2748 124.45 98.811C124.45 99.24 124.128 99.669 123.592 99.669C123.056 99.669 122.734 99.3472 122.734 98.811C122.842 98.3821 123.163 97.9531 123.592 97.9531Z" stroke="#292526" stroke-miterlimit="22.926"/>
<path d="M156.177 59.7608C155.105 59.868 154.676 59.3318 154.032 59.4391C153.603 59.5463 153.389 59.6535 153.067 60.0825C152.853 59.6535 152.638 59.4391 152.317 59.4391C151.673 59.2246 151.137 59.6535 150.601 59.5463M164.113 60.7259C162.933 62.6562 162.826 65.3372 163.898 65.7662M110.171 46.5703C109.957 48.3934 108.992 51.5033 108.67 52.3612M107.276 50.2165C107.276 52.254 106.74 55.5784 106.096 56.9725M104.809 53.2192C105.024 55.9001 104.702 60.0825 104.059 61.5838M102.45 57.187C103.201 59.5463 103.308 63.8359 102.772 65.6589M100.734 61.2621C101.7 62.549 102.343 66.8386 102.021 69.5196M161.003 105.874C158.322 106.41 156.606 108.447 157.679 109.949C158.107 110.592 159.073 111.021 159.931 110.914M160.252 104.265C157.786 104.801 155.963 106.517 156.606 107.911C156.713 108.126 156.928 108.447 157.357 108.769M159.502 102.657C156.821 103.193 155.212 105.123 156.07 106.517C156.07 106.517 156.392 107.053 156.499 107.053M171.62 85.6055C170.762 89.2516 170.333 95.0426 170.762 97.1873M161.217 83.8896C164.649 86.9996 167.223 94.3991 166.258 98.7959M165.185 82.1738C167.974 86.1417 169.582 94.0774 168.295 97.938M118.322 93.1123C118.214 91.1819 119.93 89.0372 121.646 88.8227C120.895 91.2892 123.04 91.8254 122.397 94.3991M136.445 109.091C137.089 114.131 141.593 116.598 145.668 115.954M135.909 101.37C137.089 106.41 142.236 109.305 146.418 106.624M134.837 93.6484C136.231 99.6539 137.089 115.311 136.874 127.536M176.767 110.592C177.411 114.024 181.057 117.563 184.059 117.67M179.555 97.0801C182.665 105.981 185.561 124.212 185.346 133.649M170.333 105.016C170.547 106.195 170.869 108.019 170.976 108.876M173.979 104.158C174.086 105.338 173.228 108.34 172.263 110.271M168.617 110.7C169.582 113.595 172.907 114.882 175.159 113.166M167.545 120.458C167.866 123.247 165.614 127 163.255 127.858M116.284 133.756C116.391 134.614 116.606 135.472 117.142 136.33M116.713 127.536C116.499 128.716 116.284 129.681 116.177 130.646M113.925 133.97C114.139 135.15 114.354 136.008 114.89 137.08M114.354 127.107C114.032 128.287 113.818 129.466 113.71 130.539M111.566 134.078C111.78 135.472 112.102 136.544 112.638 137.724M112.102 126.571C111.673 127.751 111.458 129.037 111.351 130.324M108.885 133.863C109.099 135.579 109.421 136.866 110.064 138.046M109.635 126.356C109.314 127.536 108.992 128.716 108.885 130.003M103.523 133.113C103.523 134.828 103.952 136.437 104.488 137.724M106.311 133.542C106.418 135.15 106.847 136.651 107.383 137.938M107.169 125.928C106.847 127 106.525 128.287 106.418 129.574" stroke="#292526" stroke-miterlimit="22.926"/>
<path fill-rule="evenodd" clip-rule="evenodd" d="M158.978 51.6177C157.905 53.548 155.975 52.7973 156.082 51.0815C156.94 50.7598 158.334 51.0815 158.978 51.6177Z" fill="#292526"/>
<path d="M158.978 51.6177C157.905 53.548 155.975 52.7973 156.082 51.0815C156.94 50.7598 158.334 51.0815 158.978 51.6177Z" stroke="#292526" stroke-miterlimit="22.926"/>
<path fill-rule="evenodd" clip-rule="evenodd" d="M152.21 49.9055C151.674 51.7286 149.529 51.2996 149.637 49.5838C150.495 49.3693 151.567 49.4766 152.21 49.9055Z" fill="#292526"/>
<path d="M152.21 49.9055C151.674 51.7286 149.529 51.2996 149.637 49.5838C150.495 49.3693 151.567 49.4766 152.21 49.9055Z" stroke="#292526" stroke-miterlimit="22.926"/>
<path fill-rule="evenodd" clip-rule="evenodd" d="M216.131 1.73364L213.689 4.17418L211.738 2.14577L211.507 1.90496L211.172 1.90496L199.746 1.90496L198.961 1.90496L198.961 2.68996L198.961 13.9123L198.961 14.2375L199.191 14.4674L201.242 16.5174L199.191 18.5674L198.961 18.7974L198.961 19.1226L198.961 30.5453L198.961 31.3303H199.746L210.972 31.3303H211.297L211.527 31.1005L213.578 29.0501L216.277 31.7477L213.64 34.3832L211.738 32.4059L211.507 32.1651H211.172L199.746 32.1651H198.961L198.961 32.9501L198.961 44.1724L198.961 44.4999L199.194 44.7303L201.252 46.7675L199.191 48.8276L198.961 49.0575L198.961 49.3827L198.961 60.8055L198.961 61.5904H199.746H210.972H211.297L211.527 61.3606L213.628 59.2601L216.277 61.9076L213.64 64.5432L211.738 62.5658L211.507 62.325H211.172H199.746H198.961L198.961 63.11L198.961 74.3323L198.961 74.6598L199.194 74.8902L201.252 76.9274L199.191 78.9875L198.961 79.2174L198.961 79.5427L198.961 90.9654L198.961 91.7504H199.746H210.972H211.297L211.527 91.5205L213.578 89.4702L216.277 92.1678L213.689 94.7542L211.738 92.7258L211.507 92.485H211.172H199.746H198.961L198.961 93.27L198.961 104.492L198.961 104.82L199.194 105.05L201.252 107.087L199.191 109.147L198.961 109.377L198.961 109.703L198.961 121.125L198.961 121.91H199.746H210.972H211.297L211.527 121.68L213.578 119.63L216.277 122.328L213.689 124.914L211.738 122.886L211.507 122.645H211.172H199.746H198.961L198.961 123.43L198.961 134.652L198.961 134.98L199.194 135.21L201.252 137.247L199.191 139.307L198.961 139.537L198.961 139.863L198.961 151.185L198.961 151.97H199.746H210.972H211.297L211.527 151.74L213.528 149.74L216.277 152.488L213.64 155.123L211.738 153.146L211.507 152.905H211.172H199.746H198.961L198.961 153.69L198.961 164.912L198.961 165.24L199.194 165.47L201.252 167.507L199.191 169.568L198.961 169.797L198.961 170.123L198.961 181.545V182.33H199.746H210.972H211.297L211.527 182.101L213.628 180L216.276 182.648L213.689 185.234L211.738 183.206L211.507 182.965H211.172H199.746H198.961V183.75V194.972V195.297L199.191 195.527L202.198 198.533L203.308 197.423L200.531 194.647L200.531 184.535H210.838L212.579 186.344L209.92 189.002L209.522 188.605L209.284 188.367L208.947 188.376L205.038 188.476L204.273 188.496L204.273 189.261V192.868V193.193L204.503 193.423L209.715 198.633L210.32 198.028L210.525 198.233L213.667 195.091L215.618 197.119L215.85 197.36H216.184H227.611H228.396V196.575V185.353V185.025L228.163 184.795L225.853 182.509L228.065 180.297L228.295 180.067V179.742V168.519V167.734H227.51H216.284H215.959L215.729 167.964L213.578 170.115L211.03 167.568L213.667 164.931L215.618 166.96L215.85 167.2H216.184H227.611H228.396V166.415V155.193L228.396 154.866L228.163 154.635L225.853 152.349L228.065 150.137L228.295 149.907V149.582V138.36V137.575H227.51H216.284H215.959L215.729 137.804L213.628 139.905L211.03 137.307L213.667 134.671L215.618 136.699L215.85 136.94H216.184H227.611H228.396V136.155V124.933V124.605L228.163 124.375L225.903 122.138L228.065 119.977L228.295 119.747V119.422L228.295 108.2V107.415H227.51H216.284H215.959L215.729 107.644L213.628 109.745L211.03 107.148L213.667 104.511L215.618 106.539L215.85 106.78H216.184H227.611H228.396V105.995V94.7729V94.4454L228.163 94.215L225.853 91.9286L228.065 89.717L228.295 89.487V89.1618V77.9395V77.1545H227.51H216.284H215.959L215.729 77.3843L213.578 79.5349L211.03 76.9876L213.667 74.3511L215.618 76.3795L215.85 76.6203H216.184H227.611H228.396V75.8353L228.396 64.613V64.2855L228.163 64.0551L225.853 61.7687L228.065 59.557L228.295 59.3271V59.0019V47.7796V46.9946H227.51H216.284H215.959L215.729 47.2244L213.578 49.375L211.03 46.8277L213.667 44.1912L215.618 46.2196L215.85 46.4604H216.184H227.611H228.396V45.6754V34.4531V34.1256L228.163 33.8952L225.903 31.6586L228.065 29.4973L228.295 29.2674V28.9421V17.6196V16.8346H227.51L216.284 16.8346H215.959L215.729 17.0644L213.628 19.1649L211.03 16.5675L213.667 13.931L215.618 15.9594L215.85 16.2002H216.184L227.611 16.2002H228.396V15.4152V4.19295V3.86544L228.163 3.63505L226.242 1.73364H224.01L226.826 4.52044V14.6302L216.518 14.6302L214.778 12.8208L217.337 10.2628L217.834 10.7601L218.072 10.9983L218.409 10.9896L222.318 10.8894L223.083 10.8698V10.1047L223.083 6.49752V6.17229L222.853 5.94234L218.643 1.73364H216.131ZM218.706 9.41151L218.447 9.15279L221.146 6.4552L221.513 6.82275V9.33955L218.706 9.41151ZM217.387 2.69774L220.035 5.34523L209.92 15.4576L207.271 12.8101L217.387 2.69774ZM208.859 9.00249L206.161 11.7001L205.843 11.3826V8.86584L208.651 8.79388L208.859 9.00249ZM212.579 5.28435L209.97 7.89252L209.522 7.44533L209.284 7.20713L208.947 7.21577L205.038 7.31596L204.273 7.33556V8.1007V11.7079V12.0331L204.503 12.263L212.518 20.2749L209.869 22.9224L200.531 13.587L200.531 3.47496L210.838 3.47496L212.579 5.28435ZM206.087 21.3615L208.759 24.0324L208.442 24.3496L205.743 24.3496V21.6743L206.087 21.3615ZM202.352 17.6274L204.976 20.2502L204.43 20.746L204.173 20.9797V21.327V25.1346L204.173 25.9196H204.958L208.767 25.9196H209.092L209.322 25.6897L216.609 18.4046H226.725L226.725 28.6169L224.788 30.5541L222.176 27.9695L222.953 27.1927L223.183 26.9628V26.6375V23.0304V22.2454H222.398H218.489H218.164L217.934 22.4752L210.647 29.7603L200.531 29.7603L200.531 19.4478L202.352 17.6274ZM221.613 26.3123L221.061 26.865L218.399 24.2305L218.814 23.8154H221.613V26.3123ZM214.688 27.9401L217.289 25.3405L226.826 34.7806V44.8904H216.518L214.778 43.081L217.387 40.4728L217.834 40.92L218.072 41.1582L218.409 41.1496L222.318 41.0494L223.083 41.0298V40.2646V36.6574V36.3322L222.853 36.1023L214.688 27.9401ZM218.706 39.5714L218.497 39.3628L221.196 36.6652L221.513 36.9827V39.4995L218.706 39.5714ZM217.387 32.8577L220.085 35.5553L209.92 45.7177L207.221 43.0201L217.387 32.8577ZM208.809 39.2125L206.111 41.9101L205.843 41.6428V39.126L208.651 39.054L208.809 39.2125ZM212.53 35.4934L209.92 38.1026L209.522 37.7055L209.284 37.4673L208.947 37.4759L205.038 37.5761L204.273 37.5957V38.3608V41.968V42.2932L204.503 42.5232L212.468 50.4849L209.866 53.0856L200.531 43.8449L200.531 33.7351H210.838L212.53 35.4934ZM206.07 51.537L208.756 54.1955L208.442 54.5095H205.743V51.8343L206.07 51.537ZM202.368 47.872L204.953 50.431L204.43 50.906L204.173 51.1396V51.4869V55.2945V56.0795H204.958H208.767H209.092L209.322 55.8497L216.609 48.5646H226.725V58.6766L224.737 60.6642L222.227 58.1793L222.953 57.4528L223.183 57.2229V56.8977V53.2905V52.5055H222.398H218.489H218.164L217.934 52.7353L210.647 60.0204H200.531L200.531 49.708L202.368 47.872ZM221.613 56.5724L221.111 57.0748L218.45 54.4403L218.814 54.0755H221.613V56.5724ZM214.738 58.1502L217.339 55.5503L226.826 64.9405V75.0503H216.518L214.778 73.2409L217.387 70.6327L217.834 71.0799L218.072 71.3181L218.409 71.3095L222.318 71.2093L223.083 71.1897V70.4245V66.8174V66.4922L222.853 66.2622L214.738 58.1502ZM218.706 69.7314L218.497 69.5228L221.196 66.8252L221.513 67.1426V69.6594L218.706 69.7314ZM217.387 63.0176L220.085 65.7152L209.92 75.8776L207.221 73.18L217.387 63.0176ZM208.809 69.3725L206.111 72.0701L205.843 71.8027V69.2859L208.651 69.2139L208.809 69.3725ZM212.53 65.6533L209.92 68.2625L209.522 67.8654L209.284 67.6272L208.947 67.6358L205.038 67.736L204.273 67.7556V68.5208L204.273 72.1279V72.4532L204.503 72.6831L212.468 80.6449L209.866 83.2455L200.531 74.0048L200.531 63.895H210.838L212.53 65.6533ZM206.07 81.697L208.756 84.3555L208.442 84.6694H205.743V81.9942L206.07 81.697ZM202.368 78.0319L204.953 80.5909L204.43 81.0659L204.173 81.2995V81.6469V85.4544V86.2394H204.958H208.767H209.092L209.322 86.0096L216.609 78.7245H226.725V88.8366L224.737 90.8241L222.227 88.3392L222.953 87.6128L223.183 87.3828V87.0576L223.183 83.4504V82.6654H222.398H218.489H218.164L217.934 82.8953L210.647 90.1804H200.531L200.531 79.8679L202.368 78.0319ZM221.613 86.7324L221.111 87.2347L218.45 84.6002L218.814 84.2354H221.613L221.613 86.7324ZM214.688 88.3602L217.339 85.7102L226.826 95.1004L226.826 105.21H216.518L214.778 103.401L217.337 100.843L217.834 101.34L218.072 101.578L218.409 101.57L222.318 101.469L223.083 101.45V100.685V97.0775V96.7523L222.853 96.5224L214.688 88.3602ZM218.706 99.9915L218.447 99.7328L221.146 97.0352L221.513 97.4028V99.9196L218.706 99.9915ZM217.387 93.2777L220.035 95.9252L209.92 106.038L207.271 103.39L217.387 93.2777ZM208.859 99.5825L206.161 102.28L205.843 101.963L205.843 99.4458L208.651 99.3739L208.859 99.5825ZM212.579 95.8643L209.97 98.4725L209.522 98.0253L209.284 97.7871L208.947 97.7958L205.038 97.896L204.273 97.9156V98.6807L204.273 102.288V102.613L204.503 102.843L212.518 110.855L209.917 113.455L200.531 104.165L200.531 94.0549H210.838L212.579 95.8643ZM206.123 111.909L208.806 114.565L208.442 114.93H205.743L205.743 112.254L206.123 111.909ZM202.368 108.192L205.006 110.803L204.43 111.326L204.173 111.56V111.907L204.173 115.715V116.5H204.958H208.767H209.092L209.322 116.27L216.609 108.985H226.725V119.097L224.788 121.034L222.227 118.499L222.953 117.773L223.183 117.543V117.218V113.61V112.825H222.398H218.489H218.164L217.934 113.055L210.647 120.34H200.531L200.531 110.028L202.368 108.192ZM221.613 116.892L221.111 117.395L218.45 114.76L218.814 114.395H221.613V116.892ZM214.688 118.52L217.339 115.87L226.826 125.26V135.37H216.518L214.778 133.561L217.337 131.003L217.834 131.5L218.072 131.738L218.409 131.73L222.318 131.629L223.083 131.61V130.845V127.237V126.912L222.853 126.682L214.688 118.52ZM218.706 130.151L218.447 129.893L221.146 127.195L221.513 127.563L221.513 130.079L218.706 130.151ZM217.387 123.438L220.035 126.085L209.92 136.197L207.271 133.55L217.387 123.438ZM208.859 129.742L206.161 132.44L205.843 132.123V129.606L208.651 129.534L208.859 129.742ZM212.579 126.024L209.97 128.632L209.522 128.185L209.284 127.947L208.947 127.956L205.038 128.056L204.273 128.076V128.841V132.448V132.773L204.503 133.003L212.518 141.015L209.917 143.615L200.531 134.325L200.531 124.215H210.838L212.579 126.024ZM206.123 142.069L208.806 144.725L208.442 145.089H205.743V142.414L206.123 142.069ZM202.368 138.352L205.006 140.963L204.43 141.486L204.173 141.72V142.067L204.173 145.874V146.659H204.958H208.767H209.092L209.322 146.43L216.609 139.145H226.725V149.257L224.737 151.244L222.126 148.66L222.953 147.832L223.183 147.603V147.277V143.67V142.885H222.398H218.489H218.164L217.934 143.115L210.647 150.4H200.531L200.531 140.188L202.368 138.352ZM221.613 146.952L221.01 147.555L218.349 144.921L218.814 144.455H221.613V146.952ZM214.638 148.63L217.238 146.031L226.826 155.521V165.63H216.518L214.778 163.821L217.387 161.213L217.834 161.66L218.072 161.898L218.409 161.889L222.318 161.789L223.083 161.77V161.005V157.397V157.072L222.853 156.842L214.638 148.63ZM218.706 160.311L218.497 160.103L221.196 157.405L221.513 157.723V160.239L218.706 160.311ZM217.387 153.598L220.085 156.295L209.92 166.458L207.221 163.76L217.387 153.598ZM208.809 159.952L206.111 162.65L205.843 162.383V159.866L208.651 159.794L208.809 159.952ZM212.53 156.233L209.92 158.842L209.522 158.445L209.284 158.207L208.947 158.216L205.038 158.316L204.273 158.336V159.101V162.708V163.033L204.503 163.263L212.468 171.225L209.866 173.825L200.531 164.585L200.531 154.475H210.838L212.53 156.233ZM206.07 172.277L208.756 174.935L208.442 175.249H205.743V172.574L206.07 172.277ZM202.368 168.612L204.953 171.171L204.43 171.646L204.173 171.88V172.227V176.034V176.819H204.958H208.767H209.092L209.322 176.59L216.609 169.304H226.725V179.417L224.737 181.404L222.227 178.919L222.953 178.193L223.183 177.963V177.638V174.03V173.245H222.398H218.489H218.164L217.934 173.475L210.647 180.76H200.531L200.531 170.448L202.368 168.612ZM221.613 177.312L221.111 177.815L218.45 175.18L218.814 174.815H221.613V177.312ZM214.738 178.89L217.339 176.29L226.826 185.68L226.826 195.79H216.518L214.778 193.981L217.387 191.373L217.834 191.82L218.072 192.058L218.409 192.049L222.318 191.949L223.083 191.93V191.165V187.557V187.232L222.853 187.002L214.738 178.89ZM218.706 190.471L218.497 190.263L221.196 187.565L221.513 187.883V190.399L218.706 190.471ZM217.387 183.758L220.085 186.455L209.92 196.618L207.221 193.92L217.387 183.758ZM208.809 190.112L206.111 192.81L205.843 192.543V190.026L208.651 189.954L208.809 190.112Z" fill="#42CFEE"/>
</svg>
