<svg width="229" height="204" viewBox="0 0 229 204" fill="none" xmlns="http://www.w3.org/2000/svg">
<path d="M136.156 200C187.5 196.815 228.156 154.156 228.156 102C228.156 49.8437 187.5 7.18511 136.156 4V32.1315C171.993 35.2567 200.107 65.3445 200.107 102C200.107 138.656 171.993 168.743 136.156 171.868V200Z" fill="#C5D92D"/>
<path d="M87.9691 97.1118C89.9429 97.3692 91.316 96.0819 90.9728 94.5372M82.5625 101.918C84.5363 102.175 86.1669 100.974 85.8236 99.3431M87.3683 96.5968C87.3683 94.7946 88.6556 93.5932 90.2004 93.679M81.7043 103.291C81.361 99.858 83.249 97.455 85.4803 98.5707M79.1297 101.317C79.3871 98.4849 81.7901 96.0819 84.0214 96.511M77.4991 109.47C75.6969 110.414 75.0962 113.332 76.2118 115.305M79.3013 112.216C79.3013 112.731 79.8162 112.988 80.3312 112.817C81.1893 112.388 80.9319 110.929 79.7304 110.757C78.0999 110.671 77.4133 112.388 78.1857 113.675C79.2155 115.134 81.4468 115.134 82.3908 113.16C82.8199 112.044 82.5625 110.671 81.9617 109.47M84.8796 38.4113C84.9654 32.3181 92.775 16.9565 100.499 7.77381C94.3197 15.755 87.1109 31.2883 85.9094 38.7546M100.928 94.8805C99.2114 89.6455 93.8906 79.2613 89.3422 72.4816C85.137 66.2168 82.8199 58.7505 84.193 49.3104M98.1816 96.7685C97.3234 92.22 91.8309 80.1195 87.1109 72.4816C82.9916 66.0452 80.5028 56.3476 82.8199 49.1387M71.5776 157.357C69.5179 141.48 76.6409 133.757 80.5028 141.223M71.9209 131.268C72.9507 131.182 74.4954 131.182 75.0104 131.354M71.6634 132.641C73.3798 132.555 75.4394 132.641 75.7827 132.813M71.0627 136.846C74.1522 136.503 78.3573 136.674 79.5588 137.189M82.2192 138.82C82.1334 140.536 80.5028 149.976 78.958 157.786M88.3982 138.133C88.484 142.51 88.0549 151.864 87.54 156.756M85.0512 157.014C84.5363 147.059 84.4505 140.365 84.6221 139.335M83.5923 156.67C83.5923 156.928 83.6781 157.958 83.6781 158.73M81.1893 156.842C81.1893 157.7 81.1893 158.988 81.1893 159.417M73.2081 125.604C72.0067 127.063 69.6896 145.943 68.4881 163.45C70.891 158.644 76.2976 157.014 79.3871 160.275C80.5028 161.305 82.1334 159.331 80.5028 158.73C77.8424 158.129 78.5289 157.099 82.0475 156.67C84.7938 156.327 85.9952 156.842 84.3647 157.786C82.8199 158.902 83.7639 159.331 86.3385 158.988C88.8273 158.816 89.5138 158.215 88.3124 157.529C86.596 156.67 87.7116 156.155 90.4578 156.413C94.1481 156.756 95.7786 157.185 97.5808 157.786C95.5212 152.637 91.9168 141.137 90.2862 134.786M92.0026 114.018C91.7451 114.876 91.8309 118.223 92.26 120.712M93.3757 114.276C92.6891 113.932 91.4018 113.932 90.8011 114.361C90.2862 118.824 90.2004 123.63 90.8011 123.887M89.2564 91.9626C87.4542 91.6193 85.652 93.0782 85.5661 94.8805C86.9392 96.3394 88.9989 98.1416 89.7713 98.914C90.6295 99.6005 90.5437 100.459 89.428 100.716C88.9989 101.145 89.0847 101.231 88.8273 101.489C88.2265 102.089 87.4542 102.003 87.3683 101.403M71.4059 98.6565C70.2045 100.459 70.891 102.604 72.8649 102.947M73.3798 100.373C72.0925 103.205 73.3798 106.209 75.8685 106.294M79.0439 105.35C78.6148 107.324 79.6446 109.384 81.0177 109.556M78.0999 102.261C76.8126 103.462 78.1857 105.865 81.0177 105.865M76.6409 99.2572C78.014 101.059 77.6708 102.862 76.9842 104.835C76.2976 107.41 77.07 109.727 79.3871 110.671M105.133 102.175C105.991 103.377 104.961 105.007 102.987 105.35C102.816 105.265 102.73 105.093 102.816 105.007M80.7602 114.447C83.4206 118.223 89.2564 118.481 90.7153 114.276M90.2862 109.985C90.7153 111.787 90.7153 113.417 90.6295 114.276C87.3683 116.764 82.9916 115.735 82.305 113.417M104.446 104.835C105.133 108.011 105.734 111.787 105.648 113.503M104.446 99.6863C105.991 100.63 105.133 103.205 102.73 105.093C102.043 105.007 101.786 104.406 101.958 103.806M103.417 97.455C105.305 98.0558 104.618 101.145 102.043 103.72C101.271 103.548 100.928 102.776 101.443 102.003M76.8126 107.668C72.5216 103.119 77.9282 94.1939 87.54 89.9887M82.8199 108.44C83.7639 110.5 87.9691 111.1 91.1444 109.641C92.5175 109.727 93.8048 108.44 93.719 107.153C95.5212 102.261 94.2339 95.9103 90.9728 94.4514C90.1146 93.7648 89.1705 92.3917 89.1705 91.6193C89.0847 90.9328 88.2265 90.1604 87.4542 89.9029C84.1072 85.1829 78.5289 85.2687 75.9544 90.2462C66.6001 93.3357 71.7492 104.75 76.8984 98.7423M102.558 95.9961C103.931 96.3394 103.588 99.2572 101.872 101.918C101.443 102.261 100.842 102.089 100.756 101.489M99.8121 104.235C101.099 102.518 100.928 99.858 99.6405 98.914C101.614 98.1416 103.159 95.567 102.816 93.7648C98.5249 95.8245 95.3495 98.3132 96.8943 103.205C97.2376 104.235 97.3234 105.093 97.0659 106.037C96.8943 107.238 95.0063 111.444 93.2899 114.361C93.2899 117.365 93.8906 121.141 94.4913 121.656M101.443 107.925C100.07 109.384 100.499 114.705 98.0958 119.511M100.499 103.119C101.614 106.38 102.301 112.731 102.043 116.164M105.219 118.91C107.879 118.91 108.394 120.369 106.334 121.828M106.334 121.828C106.592 121.055 105.905 120.54 105.047 120.798C103.931 121.57 102.215 121.999 101.529 121.656C101.099 121.313 100.327 121.914 99.9838 122.858C95.6928 129.38 89.2564 134.872 87.1109 133.928M106.334 121.828C106.42 126.805 105.905 130.753 103.245 130.581C100.756 130.324 101.357 128.779 101.614 125.775C101.786 124.574 101.614 123.201 102.129 121.828M105.648 117.108C108.137 116.85 109.081 118.052 107.536 119.511M106.077 115.305C108.652 115.22 109.681 116.421 108.137 117.708M89.3422 124.831C89.6855 124.66 94.1481 121.914 98.1816 119.425C100.928 116.936 103.331 114.705 103.674 114.104C107.45 112.473 110.025 113.503 108.652 115.82M83.1632 121.57C85.2229 127.234 83.5923 132.04 79.9879 131.182C74.3238 130.41 73.294 117.88 77.5849 116.593M79.6446 117.108C77.8424 117.794 77.1558 120.798 78.1857 123.115M86.6818 124.059C87.54 123.287 88.9131 123.716 89.3422 124.746C86.9392 129.208 86.4243 136.074 88.3982 138.305M86.6818 124.059C85.652 115.906 78.7006 113.074 75.0962 115.992C74.1522 116.764 73.3798 117.88 73.1223 119.596C71.4918 137.876 89.0847 145.6 90.6295 133.328C90.6295 133.242 90.7153 132.898 90.7153 132.727M86.6818 124.059C83.9356 127.063 82.3908 134.701 83.5923 139.249M88.0549 31.7174C89.5138 31.7174 91.4018 30.6018 91.9168 29.4861C90.9728 29.3145 89.0847 30.4301 88.0549 31.7174ZM89.428 28.1988C91.0586 28.1988 93.2899 26.9115 93.8048 25.6242C92.775 25.4526 90.6295 26.7399 89.428 28.1988ZM101.7 29.057C103.76 30.6018 107.536 30.945 109.424 29.9152C108.222 28.7137 104.532 28.3705 101.7 29.057ZM91.5735 41.8441C92.1742 42.8739 93.719 43.7321 94.7488 43.6463C94.4913 42.9597 92.9466 42.1015 91.5735 41.8441ZM100.842 49.3962C102.301 48.3664 104.875 48.2805 106.163 49.0529C105.305 49.9111 102.816 49.9969 100.842 49.3962ZM97.9241 47.6798C99.2972 46.5642 101.958 46.1351 103.331 46.8216C102.558 47.594 99.898 48.0231 97.9241 47.6798ZM94.0622 45.8776C95.2637 44.7619 97.7525 44.247 99.0398 44.7619C98.3532 45.6201 95.9503 46.1351 94.0622 45.8776ZM91.1444 44.8478C91.9168 44.1612 93.5473 43.8179 94.4055 44.1612C93.8906 44.6761 92.3459 45.0194 91.1444 44.8478ZM91.6593 46.4783C91.7451 48.0231 93.0324 50.0828 94.3197 50.5977C94.4055 49.5678 93.1182 47.594 91.6593 46.4783ZM95.7786 47.9373C95.7786 49.5678 97.1518 51.7133 98.439 52.3141C98.5249 51.1984 97.2376 49.1387 95.7786 47.9373ZM99.2972 49.6536C99.2972 51.37 100.585 53.6872 101.872 54.2879C102.043 53.2581 100.756 50.9409 99.2972 49.6536ZM95.5212 41.0717C96.2935 42.6165 98.439 44.0754 99.898 44.0754C99.5547 43.0456 97.4092 41.5866 95.5212 41.0717ZM100.07 40.9001C101.099 43.1314 104.189 45.191 106.249 45.1052C105.734 43.6463 102.73 41.5866 100.07 40.9001ZM105.648 41.415C106.592 43.3888 109.424 45.2769 111.312 45.2769C110.883 43.9038 108.137 42.0157 105.648 41.415ZM97.5808 31.4599C99.3831 32.7472 102.644 33.0905 104.275 32.1465C103.245 31.2025 100.07 30.8592 97.5808 31.4599ZM91.2302 36.6091C92.6891 37.4673 95.0921 37.3815 96.2936 36.6091C95.4354 35.9226 93.0324 36.0084 91.2302 36.6091ZM102.558 27.5981C102.902 25.4526 105.219 23.0497 106.935 22.6206C106.849 23.9937 104.618 26.3966 102.558 27.5981ZM97.6667 29.8294C97.7525 27.4264 99.8121 24.3369 101.7 23.5646C101.872 25.1093 99.898 28.113 97.6667 29.8294ZM92.4317 40.2135C93.0324 38.8404 94.8346 37.5531 96.1219 37.5531C95.7786 38.4113 93.9764 39.6986 92.4317 40.2135ZM106.42 40.471C107.793 38.9262 110.797 37.8964 112.428 38.3255C111.655 39.4411 108.737 40.471 106.42 40.471ZM100.67 39.7844C101.958 37.8106 105.305 36.2658 107.278 36.5233C106.592 37.8964 103.331 39.4411 100.67 39.7844ZM96.4652 39.6986C97.2376 38.068 99.383 36.5233 100.928 36.4375C100.67 37.5531 98.439 39.0979 96.4652 39.6986ZM87.9691 37.6389C87.7116 36.3516 88.484 34.4636 89.3422 33.8629C89.5996 34.6353 88.9131 36.4375 87.9691 37.6389ZM90.2004 35.236C90.1146 33.6054 91.2302 31.2883 92.4317 30.6018C92.6891 31.6316 91.5735 33.8629 90.2004 35.236ZM93.719 32.4898C93.5473 30.3443 95.0063 27.4264 96.6368 26.5682C96.8943 27.8555 95.4354 30.7734 93.719 32.4898ZM93.719 34.2062C95.607 35.3218 98.8681 35.3218 100.327 34.2062C99.2972 33.4338 96.0361 33.4338 93.719 34.2062ZM91.0586 24.3369C93.2041 24.3369 96.0361 22.6206 96.8085 20.99C95.3495 20.8183 92.6033 22.4489 91.0586 24.3369ZM93.2041 19.7885C95.7786 19.7885 99.1256 17.8147 99.9838 15.8408C98.3532 15.6692 95.0921 17.643 93.2041 19.7885ZM96.0361 15.1543C98.6107 14.7252 101.786 12.4081 102.387 10.4342C100.756 10.4342 97.5808 12.7513 96.0361 15.1543ZM83.249 34.3778C84.193 33.5196 84.8796 31.7174 84.6221 30.7734C83.9356 31.2883 83.249 33.0047 83.249 34.3778ZM82.7341 29.2286C84.2788 27.8555 85.3945 24.9377 84.9654 23.3071C83.9356 24.0795 82.8199 26.9973 82.7341 29.2286ZM82.2192 23.0497C84.6221 21.2474 86.5101 17.0423 85.9952 14.6394C84.3647 15.6692 82.4766 19.7885 82.2192 23.0497ZM81.361 16.4416C83.9356 14.4677 85.9952 9.91929 85.4803 7.34471C83.6781 8.37454 81.6184 12.8371 81.361 16.4416ZM80.6744 9.57601C82.7341 8.2029 84.5363 4.94177 84.2788 2.96792C82.8199 3.65448 81.1035 6.91561 80.6744 9.57601ZM81.6184 31.4599C80.1595 30.7734 78.7864 28.7137 78.7864 27.4264C79.7304 27.7697 81.1035 29.7436 81.6184 31.4599ZM81.1893 26.8257C79.1297 25.8817 77.07 22.9638 76.9842 21.1616C78.4431 21.5907 80.417 24.4228 81.1893 26.8257ZM63.2531 33.5196C62.3091 31.2025 58.9621 29.057 56.9883 28.8854C57.3316 30.4301 60.5927 32.5756 63.2531 33.5196ZM68.7455 34.8069C68.1448 32.3181 65.2269 29.6577 63.2531 29.3145C63.5106 30.8592 66.3426 33.5196 68.7455 34.8069ZM54.1562 36.2658C55.8726 34.6353 59.4771 33.6054 61.2793 34.292C60.2494 35.4935 56.8166 36.4375 54.1562 36.2658ZM58.7905 38.068C60.936 36.0942 65.1411 34.8927 67.3724 35.6651C66.171 37.124 61.9658 38.2397 58.7905 38.068ZM72.5216 40.7284C73.8947 39.7844 76.4693 39.527 77.5849 40.2135C76.7267 40.9001 74.238 41.1575 72.5216 40.7284ZM76.8984 55.3177C76.126 53.0864 76.6409 49.482 78.014 48.1089C78.6148 49.482 78.0998 53.0006 76.8984 55.3177ZM70.7194 60.0378C70.0328 58.064 70.5477 54.9745 71.6634 53.8588C72.2641 54.9745 71.7492 58.064 70.7194 60.0378ZM73.8089 57.6349C73.0365 55.4894 73.5514 52.0566 74.8387 50.7693C75.5253 52.0566 75.0104 55.4035 73.8089 57.6349ZM72.4358 48.2805C73.1223 46.3067 75.4394 44.1612 77.07 43.9896C76.7267 45.191 74.4954 47.3365 72.4358 48.2805ZM65.2269 56.6908C67.2008 56.6908 69.8612 55.4035 70.5477 53.9446C69.3463 53.773 66.6859 55.1461 65.2269 56.6908ZM68.059 52.5715C69.6896 52.9148 72.1783 52.2282 73.0365 51.1984C72.0067 50.8551 69.5179 51.5417 68.059 52.5715ZM70.891 49.9969C72.35 50.3402 74.5813 49.7395 75.3536 48.7955C74.4096 48.4522 72.1783 49.0529 70.891 49.9969ZM69.5179 41.7583C71.0627 42.8739 73.8947 43.3888 75.2678 42.7023C74.4096 41.8441 71.5776 41.3292 69.5179 41.7583ZM62.9098 43.0456C65.2269 44.5903 69.4321 45.0194 71.3201 43.9038C69.947 42.7881 65.8277 42.2732 62.9098 43.0456ZM58.6189 45.191C60.7643 46.65 64.6262 47.0791 66.4284 46.0492C65.1411 44.9336 61.3651 44.5045 58.6189 45.191ZM55.1861 47.6798C57.0741 48.9671 60.6785 49.3962 62.2233 48.4522C61.1076 47.4224 57.589 47.0791 55.1861 47.6798ZM58.7047 54.8886C58.9621 52.5715 61.0218 49.6537 62.824 49.0529C62.824 50.5977 60.7643 53.4297 58.7047 54.8886ZM62.9098 53.6872C63.2531 50.7693 65.8277 47.1649 67.9732 46.3925C68.059 48.2805 65.4844 51.885 62.9098 53.6872ZM67.6299 52.0566C67.9732 49.1387 70.5477 45.5343 72.6932 44.7619C72.6932 46.65 70.2045 50.1686 67.6299 52.0566ZM64.9695 39.012C67.3724 37.3815 71.835 36.9524 73.8089 38.1539C72.35 39.2695 67.9732 39.7844 64.9695 39.012ZM78.0999 38.583C78.0999 37.124 77.07 35.1502 76.0402 34.6353C75.9544 35.5793 76.9842 37.5531 78.0999 38.583ZM75.0962 37.2098C74.3238 34.3778 71.3201 31.1167 69.0888 30.6876C69.3463 32.4898 72.35 35.7509 75.0962 37.2098ZM67.4582 14.8968C68.4881 11.8073 67.5441 6.91561 65.656 5.02759C64.7979 6.91561 65.7419 11.7215 67.4582 14.8968ZM71.3201 20.4751C72.6074 17.4714 72.0067 12.4939 70.2903 10.52C69.2605 12.3222 69.8612 17.2139 71.3201 20.4751ZM76.8126 28.9712C77.6708 27.5981 77.7566 25.1093 77.07 23.9937C76.3835 24.8519 76.3835 27.3406 76.8126 28.9712ZM74.4954 25.3668C75.6969 22.7064 75.2678 18.3296 73.8089 16.4416C72.8649 18.0721 73.294 22.4489 74.4954 25.3668ZM78.014 34.2062C76.3835 34.292 74.0663 33.1763 73.4656 32.0607C74.4954 31.889 76.7267 33.0047 78.014 34.2062ZM75.9544 30.4301C73.4656 30.6018 70.1186 29.057 69.1746 27.4264C70.6336 27.0832 73.9805 28.5421 75.9544 30.4301ZM66.2568 14.811C63.3389 14.811 59.3912 12.7513 58.3614 10.6917C60.2494 10.52 64.1113 12.4939 66.2568 14.811ZM70.3761 20.99C67.115 20.99 62.7382 18.6729 61.5367 16.3557C63.5964 16.0983 67.9732 18.3296 70.3761 20.99ZM73.5514 26.225C70.6336 26.225 66.6859 24.1653 65.656 22.1056C67.4583 21.8482 71.3201 23.9078 73.5514 26.225ZM80.8461 21.934C78.1857 20.7325 75.5253 17.1281 75.5253 14.811C77.3275 15.4117 79.9021 18.8445 80.8461 21.934ZM80.417 16.3557C77.8424 14.6394 75.6111 10.52 75.9544 8.03127C77.6708 8.88946 79.9021 13.0088 80.417 16.3557ZM79.9021 8.97528C77.8424 7.60217 76.0402 4.34103 76.2976 2.36719C77.7566 3.05374 79.473 6.31488 79.9021 8.97528ZM95.2637 14.4677C94.4913 11.8931 95.4354 7.85963 96.9801 6.4007C97.6667 7.94545 96.8085 11.8931 95.2637 14.4677ZM92.26 19.1878C91.0586 16.3557 91.4019 11.6357 93.0324 9.83347C93.9764 11.5499 93.6331 16.1841 92.26 19.1878ZM89.428 24.4228C88.0549 21.6765 88.1407 16.9565 89.5996 14.9826C90.7153 16.6132 90.5437 21.2474 89.428 24.4228ZM86.1669 32.404C85.137 31.2025 84.7079 28.7995 85.2229 27.5981C85.9952 28.2846 86.4243 30.6876 86.1669 32.404ZM87.3683 28.9712C86.1669 26.9115 85.9094 23.3071 86.9392 21.6765C87.7974 22.9638 88.0549 26.4824 87.3683 28.9712ZM84.4505 38.4971C87.54 38.4971 90.0287 40.9859 90.0287 44.0754C90.0287 47.1649 87.54 49.6536 84.4505 49.6536C81.361 49.6536 78.8722 47.1649 78.8722 44.0754C78.8722 40.9859 81.361 38.4971 84.4505 38.4971ZM84.4505 41.6725C85.7378 41.6725 86.8534 42.7023 86.8534 44.0754C86.8534 45.3627 85.8236 46.4783 84.4505 46.4783C83.1632 46.4783 82.0475 45.4485 82.0475 44.0754C82.0475 42.7023 83.0774 41.6725 84.4505 41.6725Z" stroke="#292526" stroke-width="0.8" stroke-miterlimit="22.926"/>
<path fill-rule="evenodd" clip-rule="evenodd" d="M82.1406 100.38C83.5996 101.41 85.1443 99.608 83.6854 98.5781C83.0846 98.6639 82.4839 99.5221 82.1406 100.38Z" fill="#292526"/>
<path d="M82.1406 100.38C83.5996 101.41 85.1443 99.608 83.6854 98.5781C83.0846 98.6639 82.4839 99.5221 82.1406 100.38Z" stroke="#292526" stroke-width="0.8" stroke-miterlimit="22.926"/>
<path fill-rule="evenodd" clip-rule="evenodd" d="M87.625 95.5756C89.0839 96.6055 90.6287 94.8033 89.1698 93.7734C88.6548 93.8593 87.9683 94.7174 87.625 95.5756Z" fill="#292526"/>
<path d="M87.625 95.5756C89.0839 96.6055 90.6287 94.8033 89.1698 93.7734C88.6548 93.8593 87.9683 94.7174 87.625 95.5756Z" stroke="#292526" stroke-width="0.8" stroke-miterlimit="22.926"/>
<path d="M92.6947 58.8422C89.8627 61.7601 87.803 67.9391 88.5754 71.1144M87.9746 70.4279C86.6874 66.8234 87.1165 60.9019 88.9187 58.6706C88.6612 60.0437 88.8328 61.8459 89.1761 62.1892C89.0903 60.2154 90.4634 56.7826 91.8365 55.4095C91.4074 56.1818 91.3216 57.6408 91.5791 58.3273C91.9223 56.6109 93.4671 54.208 94.6686 53.5214C94.3253 54.208 94.0678 55.3237 94.2395 55.8386C94.8402 54.3796 96.3849 52.8349 97.2431 52.6632C97.5864 54.4655 96.2133 56.9542 94.5827 57.6408C95.1835 57.8124 96.2991 57.4691 96.814 56.8684C96.6424 58.4131 93.982 61.331 91.8365 62.1892C92.3514 62.3608 93.7245 61.9317 94.6686 61.331C94.3253 62.8758 92.1798 65.0212 90.206 65.622C90.8067 65.7936 91.9223 65.622 92.6089 65.1929C90.6351 68.7973 88.5754 68.8831 88.5754 71.7151M79.3069 77.7225C86.6015 80.9836 95.0977 87.4201 96.2133 90.767M94.4969 86.7335C92.6947 83.2149 88.747 78.7523 86.9448 77.5509C87.3739 78.6665 87.6314 80.2113 87.5456 80.7262C86.859 78.6665 83.5979 75.6628 81.1091 74.633C82.1389 75.7487 83.0829 77.7225 82.9113 78.4091C81.3666 76.0061 78.2771 73.4315 76.6465 73.1741C77.6763 74.0323 78.5345 75.4912 78.3629 76.0919C76.7323 74.1181 73.6428 71.801 72.0981 71.4577C73.3854 72.3159 73.8145 73.2599 73.9003 74.2039C72.3555 71.9726 68.5795 72.1442 65.7474 71.801C67.8929 73.2599 69.1802 75.1479 72.613 75.3196C71.9264 75.6628 70.3817 75.8345 69.4377 75.6628C71.4973 77.2076 75.6167 78.4949 77.5047 78.2374C77.0756 78.5807 75.2734 78.7523 73.9861 78.4949C75.7883 79.9538 80.5084 81.4986 83.512 81.5844C82.8255 82.0993 80.8516 82.2709 79.5643 81.9277C81.8815 83.7299 86.6015 85.2746 89.0045 85.0171C88.5754 85.4462 87.0306 85.7037 85.915 85.6179C90.2918 88.9648 93.5529 87.5059 97.0715 92.7409M94.8402 81.8418C96.4708 79.2672 97.8439 70.0846 100.848 65.1071M94.4969 80.812C93.2954 77.8083 93.038 73.6032 93.8962 72.4017C93.8104 73.3457 94.3253 74.8905 94.926 75.3196C94.4969 72.4875 94.926 68.1966 95.7842 66.6518C95.6126 68.3682 95.9558 69.8271 96.5566 70.342C96.1275 68.3682 96.8999 64.5921 98.1872 62.8758C97.9297 63.8198 98.1872 65.7078 98.4446 66.4802C98.5304 64.163 99.8177 60.3012 101.019 58.7564C100.762 59.7863 100.59 61.1594 100.762 61.5026C101.362 59.0997 103.422 56.0102 105.053 55.4095C104.023 57.7266 102.478 61.7601 102.135 63.3048C102.907 62.4467 103.937 60.9019 104.28 60.1295C104.624 62.1892 103.079 66.1369 101.277 67.9391C102.135 67.7675 103.422 66.566 103.851 65.5361C104.023 68.7973 101.534 72.3159 99.7319 73.3457C100.676 73.2599 102.049 72.5733 102.392 72.1442C101.792 74.3755 99.6461 76.8643 98.0155 77.5509C98.5304 77.6367 99.5603 77.2934 100.161 76.9501C99.4744 79.1814 96.8999 81.5844 94.926 81.8418M79.736 47.2566C76.7323 48.029 70.6391 54.1222 67.7213 59.443C69.6093 54.5513 75.3592 47.9432 79.2211 46.141M78.8778 43.738C73.557 43.2231 62.4005 48.029 56.6506 53.3498C61.1132 47.9432 72.3555 42.4507 79.1353 42.3649M79.4785 41.3351C74.2436 36.7867 60.7699 32.7532 52.5312 33.4397C60.7699 31.895 74.5868 35.3277 80.1651 40.3911M80.9375 39.6187C76.0458 29.3204 65.5758 12.6714 60.0834 6.57826C66.434 12.414 77.333 28.7197 81.9673 39.1038M83.6837 38.5889C83.2546 35.1561 81.2807 16.3617 79.8218 1C79.9934 10.6118 81.3666 29.6637 82.568 38.9322M104.967 53.4356C101.105 49.8312 93.5529 46.0552 89.7769 45.8835M90.0343 44.8537C94.926 45.6261 102.392 49.917 104.967 53.5214M114.15 43.738C107.799 40.4769 95.6126 39.7903 89.7769 42.2791M89.2619 41.2493C96.1275 38.5889 108.485 39.7903 114.064 43.738M110.803 26.0593C103.594 26.66 92.2656 33.6114 88.2321 40.0478M87.1165 39.1038C91.4932 32.3241 102.907 25.8876 110.803 25.9734M76.4749 67.2525C81.0233 68.7115 86.6874 71.8868 87.7172 73.6032M100.848 94.7147C100.762 91.6252 102.049 85.7037 103.422 82.8717M87.8888 74.2039C86.0008 74.5472 81.9673 73.689 80.3367 72.5733C81.3666 72.4017 82.9971 72.0584 83.4262 71.801C80.5942 71.8868 76.389 70.857 75.0159 69.9129C75.7883 69.9129 77.0756 69.4838 77.5905 69.1406C75.1876 69.5697 71.1541 68.2824 69.4377 66.4802C70.21 66.6518 71.8406 66.7376 72.613 66.566C70.3817 66.3085 67.2064 63.7339 66.3482 61.331C69.0086 62.7899 71.9264 62.3608 74.6726 65.622C74.8443 65.1071 73.9861 63.4765 73.0421 62.5325C75.1017 63.1332 78.8778 65.7078 80.4225 67.5958C80.68 67.0809 79.9934 65.5362 78.9636 64.4205C81.1091 65.2787 85.3143 69.5697 87.4597 72.9166M101.277 94.5431C102.65 93.5133 104.195 90.767 104.452 89.0507C103.765 89.6514 102.564 90.5096 102.221 90.5954C103.937 88.7932 105.739 85.3604 105.825 83.9015C105.31 84.4164 104.28 85.0171 103.851 85.103C105.568 83.8157 107.027 80.2971 106.855 78.1516C106.512 78.7523 105.653 79.868 105.139 80.2971C106.254 78.6665 106.34 75.0621 105.31 73.1741C104.709 75.7487 102.736 77.465 103.25 81.1553C102.821 80.8978 102.306 79.4389 102.135 78.3232C101.277 80.0396 100.848 83.9873 101.191 86.1328C100.676 86.047 100.075 84.588 99.9894 83.3008C99.3886 85.1888 99.6461 90.5096 100.676 93.7707M82.2247 87.935C83.8553 87.8492 85.0568 88.9648 84.6277 90.1663M79.6502 88.6216C79.5643 91.1103 82.7397 89.4798 82.568 91.9685M77.2472 90.5096C77.1614 92.9983 80.3367 91.3678 80.1651 93.8565M75.1017 92.5692C75.0159 95.058 78.1912 93.3416 78.0196 95.9162M73.3854 94.6289C73.0421 96.6886 74.5868 98.1475 76.4749 97.5468M90.8067 104.412C91.7507 104.412 92.6089 103.812 92.6947 103.125M89.0903 104.927C90.1201 103.554 91.7507 102.181 92.4373 102.181M100.504 182.937L103.508 184.739M92.1798 182.765L97.1573 181.221M97.5864 181.478L93.6387 186.627M99.0453 182.422L101.534 187.915M98.273 181.993L97.2431 189.288M69.6093 182.594L74.5868 182.765M76.4749 185.083L77.7621 190.232M75.7025 184.396L73.3854 190.06M69.7809 187.228L75.445 184.053M90.635 180.277C87.2023 180.448 87.1165 185.769 90.3776 185.855C87.6314 187.743 90.635 193.15 94.2395 189.803C93.8962 194.094 99.3886 194.094 99.6461 190.146C101.448 193.15 105.825 190.575 103.851 187.571C106.855 187.915 107.198 183.795 104.795 183.023M68.9227 179.418C65.7474 179.247 64.546 184.138 67.7213 185.083C64.546 186.112 65.9191 192.377 70.3817 190.06C68.7511 194.179 74.2436 195.724 75.6167 191.948C76.5607 195.381 81.5382 194.094 80.5084 190.575C83.3404 191.776 85.3143 187.743 83.1688 186.284M80.3367 183.967C82.3106 185.083 83.1688 186.713 82.0531 187.4C81.624 187.4 80.5942 186.885 79.9076 186.284C78.3629 186.713 75.8741 185.168 74.7585 183.109C74.1577 181.821 72.2697 180.62 70.9824 180.62C68.4078 180.362 67.7213 177.874 69.6951 175.728C71.4115 172.896 71.7548 165.43 70.2959 160.881M81.3666 182.937C84.027 183.967 84.4561 186.198 82.568 186.627M82.3106 181.907C85.0568 182.937 85.6575 185.083 83.5979 186.112M78.5345 159.508C78.7062 161.053 77.5047 166.546 76.1316 170.407C75.2734 172.21 76.2174 175.127 78.0196 176.071C79.8218 177.187 82.4822 179.504 83.3404 180.534C84.971 180.963 86.6874 182.079 86.6874 182.68C86.6015 183.795 85.5717 184.31 84.7993 184.138M96.0417 157.449C96.7282 160.967 96.2133 168.434 95.0118 172.553C94.5827 173.84 95.3551 175.299 96.5566 175.728C98.8737 176.672 101.792 179.161 102.65 180.792M99.9894 177.96C102.049 177.445 104.28 178.131 104.366 179.333M101.105 178.904C103.25 178.56 105.568 179.59 105.825 180.877M88.747 156.505C90.8067 161.654 87.1165 167.06 90.1201 171.266C90.9783 172.982 90.8925 175.557 90.206 177.187C88.9187 179.504 90.3776 181.135 93.1238 180.362C94.5827 180.105 96.0417 180.191 97.1573 181.135C98.7021 182.594 101.277 183.452 102.907 182.68C105.224 183.538 107.027 182.765 106.512 181.049C105.139 180.877 103.079 180.277 102.135 179.848" stroke="#292526" stroke-width="0.8" stroke-miterlimit="22.926"/>
<path fill-rule="evenodd" clip-rule="evenodd" d="M17.4108 4.35999L14.9154 6.85452L12.9307 4.79113L12.6991 4.55032L12.365 4.55032L0.785009 4.55031L9.32437e-06 4.55031L9.29006e-06 5.33532L8.79294e-06 16.7083L8.77872e-06 17.0336L0.230022 17.2635L2.31571 19.3485L0.230023 21.4335L8.57635e-06 21.6634L8.56213e-06 21.9886L8.05611e-06 33.5647L8.0218e-06 34.3497H0.785008L12.1618 34.3497H12.4869L12.7168 34.1199L14.8028 32.0346L17.5525 34.7833L14.8656 37.4693L12.9307 35.4576L12.6991 35.2168H12.365L0.785008 35.2168H7.98391e-06L7.94959e-06 36.0018L7.45246e-06 47.3748L7.43814e-06 47.7023L0.232763 47.9327L2.32598 50.0047L0.230022 52.1L7.23587e-06 52.3299L7.22165e-06 52.6552L6.71564e-06 64.2313L6.68132e-06 65.0163H0.785007H12.1618H12.4869L12.7168 64.7864L14.8536 62.6503L17.5525 65.3483L14.8656 68.0342L12.9307 66.0226L12.6991 65.7818H12.365H0.785007H6.64787e-06L6.61355e-06 66.5668L6.11642e-06 77.9398L6.10211e-06 78.2673L0.232762 78.4977L2.32597 80.5697L0.230019 82.665L5.89983e-06 82.8949L5.88561e-06 83.2201L5.37961e-06 94.7962L5.3453e-06 95.5812H0.785005H12.1618H12.4869L12.7168 95.3514L14.8028 93.266L17.5525 96.0148L14.9154 98.651L12.9307 96.5876L12.6991 96.3467H12.365H0.785005H5.31183e-06L5.27751e-06 97.1318L4.78039e-06 108.505L4.76607e-06 108.832L0.23276 109.063L2.32598 111.135L0.230017 113.23L4.56379e-06 113.46L4.54957e-06 113.785L4.04357e-06 125.361L4.00926e-06 126.146H0.785004H12.1618H12.4869L12.7168 125.916L14.8028 123.831L17.5525 126.58L14.9154 129.216L12.9307 127.153L12.6991 126.912H12.365H0.785004H3.97579e-06L3.94147e-06 127.697L3.44435e-06 139.07L3.43003e-06 139.397L0.232759 139.628L2.32597 141.7L0.230018 143.795L3.22776e-06 144.025L3.21354e-06 144.35L2.71197e-06 155.825L2.67765e-06 156.61H0.785003H12.1618H12.4869L12.7168 156.38L14.752 154.345L17.5525 157.145L14.8656 159.831L12.9307 157.819L12.6991 157.578H12.3649H0.785002H2.63532e-06L2.60101e-06 158.363L2.10387e-06 169.736L2.08955e-06 170.064L0.232758 170.294L2.32597 172.366L0.230015 174.461L0 174.691V175.017V186.593V187.378H0.785001H12.1618H12.4869L12.7168 187.148L14.8536 185.012L17.5525 187.71L14.9154 190.346L12.9307 188.282L12.6991 188.042H12.3649H0.785001H0V188.827V200.2V200.525L0.230014 200.755L3.27737 203.801L4.38734 202.691L1.57 199.874L1.57 189.612H12.0308L13.8048 191.456L11.0952 194.165L10.6852 193.755L10.4469 193.517L10.1101 193.525L6.14855 193.627L5.38367 193.646V194.412V198.067V198.392L5.61368 198.622L10.8958 203.903L11.5014 203.297L11.701 203.497L14.8934 200.305L16.8781 202.369L17.1097 202.609H17.4439H29.0238L29.8088 202.609V201.824L29.8088 190.451V190.124L29.5761 189.894L27.2277 187.569L29.4772 185.32L29.7072 185.09V184.765V173.392V172.607L28.9222 172.607H17.5455H17.2204L16.9905 172.837L14.8028 175.024L12.2055 172.427L14.8934 169.74L16.8781 171.804L17.1097 172.044H17.4439H29.0238L29.8088 172.044V171.259V159.886V159.559L29.5761 159.329L27.2277 157.004L29.4772 154.755L29.7073 154.525V154.2V142.827V142.042L28.9223 142.042H17.5455H17.2204L16.9905 142.272L14.8536 144.408L12.2056 141.761L14.8934 139.074L16.8781 141.137L17.1097 141.378H17.4439H29.0238L29.8088 141.378V140.593V129.22V128.892L29.5761 128.662L27.2787 126.388L29.4772 124.19L29.7073 123.96V123.635V112.262V111.477H28.9223H17.5455H17.2204L16.9905 111.707L14.8536 113.843L12.2056 111.196L14.8934 108.509L16.8781 110.572L17.1097 110.813H17.4439H29.0238H29.8088V110.028V98.6549V98.3274L29.5761 98.097L27.2277 95.7724L29.4772 93.5236L29.7073 93.2937V92.9684L29.7073 81.5954V80.8104H28.9223H17.5455H17.2204L16.9905 81.0402L14.8028 83.2271L12.2056 80.6307L14.8934 77.9438L16.8781 80.0072L17.1097 80.248H17.4439H29.0238H29.8088V79.463L29.8088 68.09V67.7625L29.5761 67.5321L27.2277 65.2075L29.4772 62.9586L29.7073 62.7287V62.4035V51.0304V50.2454H28.9223H17.5455H17.2204L16.9905 50.4753L14.8028 52.6622L12.2056 50.0658L14.8934 47.3788L16.8781 49.4422L17.1097 49.683H17.4439H29.0238H29.8088V48.898V37.525V37.1975L29.5761 36.9671L27.2787 34.693L29.4772 32.4952L29.7073 32.2653V31.94V20.4655V19.6805H28.9223L17.5455 19.6805H17.2204L16.9905 19.9103L14.8536 22.0464L12.2056 19.3993L14.8934 16.7123L16.8781 18.7757L17.1097 19.0165H17.4439L29.0238 19.0165H29.8088V18.2315V6.85849V6.53099L29.5761 6.30059L27.6156 4.35999H25.3839L28.2388 7.18599L28.2388 17.4465L17.778 17.4465L16.004 15.6021L18.612 12.9949L19.1236 13.5063L19.3619 13.7446L19.6987 13.7359L23.6603 13.6344L24.4252 13.6148V12.8496V9.19402V8.86878L24.1952 8.63884L19.9149 4.35999H17.4108ZM19.9953 12.1578L19.7224 11.8849L22.472 9.13621L22.8552 9.51925V12.0845L19.9953 12.1578ZM18.6628 5.3283L21.3617 8.02625L11.0952 18.2893L8.39637 15.5913L18.6628 5.3283ZM10.0357 11.7326L7.28603 14.4814L6.95367 14.1491V11.5839L9.81353 11.5106L10.0357 11.7326ZM13.8049 7.9647L11.146 10.6227L10.6852 10.162L10.4469 9.9238L10.1101 9.93244L6.14856 10.034L5.38367 10.0536V10.8187V14.4743V14.7996L5.61369 15.0295L13.7433 23.1564L11.0444 25.8544L1.57001 16.3831L1.57001 6.12031L12.0308 6.12031L13.8049 7.9647ZM7.21187 24.243L9.9341 26.9643L9.60199 27.2963L6.85209 27.2963L6.85209 24.57L7.21187 24.243ZM3.42605 20.4585L6.10025 23.1318L5.53914 23.6417L5.28209 23.8753V24.2226L5.28209 28.0813V28.8663H6.06709L9.92708 28.8663H10.2522L10.4821 28.6365L17.8705 21.2505H28.1373V31.6148L26.1629 33.5885L23.5018 30.9544L24.2967 30.1597L24.5268 29.9297V29.6045V25.9489V25.1639H23.7418H19.7802H19.4551L19.2252 25.3937L11.8367 32.7797L1.57001 32.7797L1.57001 22.3139L3.42605 20.4585ZM22.9568 29.2793L22.386 29.8499L19.6738 27.1652L20.1053 26.7339H22.9568V29.2793ZM15.9132 30.9246L18.5635 28.2752L28.2388 37.8525V48.113H17.778L16.004 46.2686L18.6628 43.6107L19.1236 44.0713L19.3619 44.3095L19.6987 44.3009L23.6603 44.1993L24.4252 44.1797V43.4146V39.759V39.4337L24.1952 39.2038L15.9132 30.9246ZM19.9953 42.7228L19.7732 42.5007L22.5228 39.752L22.8552 40.0842V42.6495L19.9953 42.7228ZM18.6628 35.8933L21.4125 38.642L11.0952 48.9558L8.34558 46.2071L18.6628 35.8933ZM9.98488 42.3484L7.23524 45.0971L6.95367 44.8156V42.2504L9.81353 42.1771L9.98488 42.3484ZM13.7551 38.5794L11.0952 41.2384L10.6852 40.8285L10.4469 40.5903L10.1101 40.599L6.14856 40.7005L5.38367 40.7201V41.4852V45.1408V45.4661L5.61369 45.696L13.6925 53.7722L11.0412 56.4226L1.57001 47.0473L1.57001 36.7868H12.0308L13.7551 38.5794ZM7.19441 54.8238L9.93085 57.5326L9.60199 57.8613H6.85209V55.1349L7.19441 54.8238ZM3.44179 51.1092L6.07705 53.7178L5.53914 54.2067L5.28209 54.4403V54.7876V58.6463V59.4313H6.06709H9.92707H10.2522L10.4821 59.2015L17.8705 51.8155H28.1373V62.0782L26.1119 64.1029L23.5528 61.5698L24.2967 60.8262L24.5268 60.5962V60.271V56.6154V55.8304H23.7418H19.7802H19.4551L19.2252 56.0602L11.8367 63.4463H1.57001L1.57001 52.9804L3.44179 51.1092ZM22.9568 59.9458L22.437 60.4653L19.7249 57.7807L20.1053 57.4004H22.9568V59.9458ZM15.964 61.5403L18.6145 58.8907L28.2388 68.4175V78.678H17.778L16.004 76.8336L18.6628 74.1756L19.1236 74.6363L19.3619 74.8745L19.6987 74.8658L23.6603 74.7643L24.4252 74.7447V73.9795V70.324V69.9987L24.1952 69.7688L15.964 61.5403ZM19.9953 73.2877L19.7732 73.0657L22.5228 70.3169L22.8552 70.6492V73.2144L19.9953 73.2877ZM18.6628 66.4582L21.4125 69.207L11.0952 79.5208L8.34558 76.772L18.6628 66.4582ZM9.98489 72.9133L7.23524 75.6621L6.95367 75.3806V72.8153L9.81354 72.742L9.98489 72.9133ZM13.7551 69.1444L11.0952 71.8034L10.6852 71.3935L10.4469 71.1553L10.1101 71.1639L6.14855 71.2655L5.38367 71.2851V72.0502V75.7058V76.0311L5.61368 76.261L13.6925 84.3371L11.0412 86.9875L1.57001 77.6123L1.57001 67.3518H12.0308L13.7551 69.1444ZM7.19441 85.3888L9.93085 88.0975L9.60199 88.4263H6.85209V85.6999L7.19441 85.3888ZM3.44178 81.6742L6.07706 84.2828L5.53913 84.7716L5.28209 85.0052V85.3526V89.2113V89.9963H6.06709H9.92707H10.2522L10.4821 89.7664L17.8705 82.3804H28.1373V92.6432L26.1119 94.6679L23.5528 92.1348L24.2967 91.3912L24.5268 91.1612V90.836V87.1804V86.3954H23.7418H19.7802H19.4551L19.2252 86.6252L11.8367 94.0112H1.57001L1.57001 83.5454L3.44178 81.6742ZM22.9568 90.5107L22.437 91.0303L19.7249 88.3456L20.1053 87.9654H22.9568V90.5107ZM15.9132 92.1561L18.6145 89.4556L28.2388 98.9824L28.2388 109.243H17.778L16.004 107.399L18.612 104.791L19.1236 105.303L19.3619 105.541L19.6987 105.532L23.6603 105.431L24.4252 105.411V104.646V100.99V100.665L24.1952 100.435L15.9132 92.1561ZM19.9953 103.954L19.7224 103.681L22.472 100.933L22.8552 101.316V103.881L19.9953 103.954ZM18.6628 97.1247L21.3617 99.8227L11.0952 110.086L8.39637 107.388L18.6628 97.1247ZM10.0357 103.529L7.28603 106.278L6.95367 105.946V103.38L9.81353 103.307L10.0357 103.529ZM13.8049 99.7611L11.146 102.419L10.6852 101.958L10.4469 101.72L10.1101 101.729L6.14855 101.83L5.38367 101.85V102.615L5.38367 106.271V106.596L5.61368 106.826L13.7433 114.953L11.0922 117.603L1.57 108.177L1.57 97.9168H12.0308L13.8049 99.7611ZM7.24789 116.007L9.98189 118.713L9.60199 119.093H6.85208V116.366L7.24789 116.007ZM3.44179 112.239L6.13054 114.901L5.53913 115.438L5.28208 115.672V116.019V119.878V120.663H6.06708H9.92707H10.2522L10.4821 120.433L17.8705 113.047H28.1373L28.1373 123.31L26.1629 125.283L23.5528 122.7L24.2967 121.956L24.5268 121.726V121.401V117.745V116.96H23.7418H19.7802H19.4551L19.2252 117.19L11.8367 124.576H1.57L1.57 114.11L3.44179 112.239ZM22.9568 121.076L22.437 121.595L19.7249 118.911L20.1053 118.53H22.9568V121.076ZM15.9132 122.721L18.6145 120.021L28.2388 129.547V139.808H17.778L16.004 137.964L18.612 135.356L19.1236 135.868L19.3619 136.106L19.6987 136.097L23.6603 135.996L24.4252 135.976V135.211V131.555V131.23L24.1952 131L15.9132 122.721ZM19.9953 134.519L19.7224 134.246L22.472 131.498L22.8552 131.881V134.446L19.9953 134.519ZM18.6628 127.69L21.3617 130.388L11.0952 140.651L8.39637 137.953L18.6628 127.69ZM10.0357 134.094L7.28602 136.843L6.95367 136.511L6.95367 133.945L9.81353 133.872L10.0357 134.094ZM13.8049 130.326L11.146 132.984L10.6852 132.523L10.4469 132.285L10.1101 132.294L6.14856 132.395L5.38367 132.415V133.18L5.38367 136.836V137.161L5.61368 137.391L13.7433 145.518L11.0922 148.168L1.57 138.742L1.57 128.482H12.0308L13.8049 130.326ZM7.24788 146.572L9.98188 149.278L9.60199 149.658H6.85208L6.85208 146.931L7.24788 146.572ZM3.44179 142.804L6.13053 145.466L5.53913 146.003L5.28208 146.237V146.584L5.28208 150.443V151.228H6.06708H9.92707H10.2522L10.4821 150.998L17.8705 143.612H28.1373V153.875L26.1119 155.899L23.4507 153.265L24.2967 152.42L24.5268 152.19V151.864V148.209V147.424H23.7418H19.7802H19.4551L19.2252 147.654L11.8367 155.04H1.57L1.57 144.675L3.44179 142.804ZM22.9568 151.539L22.3349 152.161L19.6228 149.476L20.1053 148.994H22.9568V151.539ZM15.8624 153.235L18.5124 150.586L28.2388 160.214V170.474H17.778L16.004 168.63L18.6628 165.972L19.1236 166.433L19.3619 166.671L19.6987 166.662L23.6603 166.561L24.4252 166.541V165.776L24.4252 162.12V161.795L24.1952 161.565L15.8624 153.235ZM19.9953 165.084L19.7732 164.862L22.5228 162.113L22.8552 162.446V165.011L19.9953 165.084ZM18.6628 158.255L21.4125 161.003L11.0952 171.317L8.34558 168.568L18.6628 158.255ZM9.98488 164.71L7.23523 167.458L6.95367 167.177V164.612L9.81353 164.538L9.98488 164.71ZM13.7551 160.941L11.0952 163.6L10.6852 163.19L10.4469 162.952L10.1101 162.96L6.14855 163.062L5.38367 163.081V163.847V167.502V167.827L5.61368 168.057L13.6925 176.134L11.0412 178.784L1.57 169.409L1.57 159.148H12.0308L13.7551 160.941ZM7.19441 177.185L9.93084 179.894L9.60199 180.223H6.85208L6.85208 177.496L7.19441 177.185ZM3.44178 173.471L6.07706 176.079L5.53913 176.568L5.28208 176.802V177.149L5.28208 181.008V181.793H6.06708H9.92707H10.2521L10.4821 181.563L17.8705 174.177H28.1372V184.44L26.1119 186.464L23.5528 183.931L24.2967 183.188L24.5268 182.958V182.632V178.977V178.192H23.7418H19.7802H19.4551L19.2252 178.422L11.8367 185.808H1.57L1.57 175.342L3.44178 173.471ZM22.9568 182.307L22.437 182.827L19.7249 180.142L20.1053 179.762H22.9568V182.307ZM15.9639 183.902L18.6145 181.252L28.2388 190.779L28.2388 201.039H17.778L16.004 199.195L18.6628 196.537L19.1236 196.998L19.3619 197.236L19.6987 197.227L23.6603 197.126L24.4252 197.106V196.341V192.685V192.36L24.1952 192.13L15.9639 183.902ZM19.9953 195.649L19.7732 195.427L22.5228 192.678L22.8552 193.011V195.576L19.9953 195.649ZM18.6628 188.82L21.4125 191.568L11.0952 201.882L8.34558 199.133L18.6628 188.82ZM9.98489 195.275L7.23525 198.023L6.95367 197.742V195.177L9.81353 195.103L9.98489 195.275Z" fill="#C5D92D"/>
</svg>
