<svg width="229" height="201" viewBox="0 0 229 201" fill="none" xmlns="http://www.w3.org/2000/svg">
<path d="M91 196V168.012C55.5523 164.903 27.7439 134.968 27.7439 98.5C27.7439 62.0315 55.5523 32.0972 91 28.988V1C40.2146 4.16885 4.50917e-06 46.6098 0 98.5C-4.50917e-06 150.39 40.2146 192.831 91 196Z" fill="#EE8842"/>
<path d="M129.974 3.12322C127.619 2.73011 124.087 3.3853 122.778 4.30256C125.526 4.30256 128.797 5.21982 129.32 6.00604M132.984 12.951C126.442 11.3786 124.348 21.2064 114.143 19.1098C115.713 21.3374 119.769 22.6478 122.255 21.5995C122.909 23.565 126.703 23.8271 127.096 21.7305C128.143 23.6961 132.329 22.9098 131.675 20.2891C133.245 21.7305 135.469 20.8132 135.6 18.8477M156.142 12.5579C155.88 14.1304 151.955 15.4407 148.291 14.9166M161.375 9.54405C161.113 12.5579 153.656 13.6062 146.46 11.5096M141.226 9.93716C143.843 2.07493 157.712 10.1992 166.478 6.39915C164.384 10.1992 154.702 11.7717 146.983 9.28197M143.451 19.5029C136.124 21.8615 131.152 16.6201 133.507 9.15094M135.208 8.75783C130.759 11.1165 126.703 5.61293 131.021 1.81285C134.684 -0.41478 139.002 2.20596 139.918 6.39915C140.31 11.1165 145.806 15.7028 150.908 15.3097C159.02 15.5718 168.833 19.3718 170.534 23.0409C166.739 23.434 162.422 25.1375 161.768 26.5789C159.936 21.8615 152.609 17.9304 147.114 18.5856M113.096 48.2C109.433 50.4277 112.181 56.0623 116.237 53.3105M111.788 58.552C113.881 61.8279 120.292 60.1244 119.9 56.1933M106.293 50.6897C104.2 48.2 105.9 43.2206 110.349 43.4827M112.966 48.3311C104.461 47.8069 105.115 55.276 99.8819 63.1383C106.162 59.0761 114.536 60.1244 116.629 53.9657M120.685 50.2966C119.769 43.0896 130.236 39.9447 135.469 45.3172M114.797 170.982C116.891 172.554 121.47 173.078 123.694 173.865M169.356 191.424C169.225 190.9 167.917 190.506 166.87 190.769C161.898 188.803 160.198 184.872 161.375 182.382M167.263 191.424C168.702 191.424 170.403 192.472 170.665 193.651M166.609 192.341C168.44 192.734 170.141 194.044 169.88 194.962M157.058 181.596C157.058 182.906 156.011 185.396 154.964 186.444C153.263 188.41 154.31 190.506 156.796 190.375C158.497 190.244 160.852 191.424 162.16 192.996C162.945 194.438 163.861 194.7 165.562 195.224C166.739 196.272 168.309 196.141 168.702 194.962C168.44 194.438 166.87 193.52 165.693 193.127M141.88 195.355C143.058 179.106 152.74 177.272 162.553 175.175M142.011 195.879C142.665 192.21 143.843 189.589 145.021 187.493C151.039 177.141 158.497 183.561 166.347 182.775C164.384 182.12 162.16 180.286 162.029 179.106C164.254 180.679 169.094 181.465 171.711 180.679C170.01 180.154 167.786 178.451 167.394 177.272C170.403 179.106 175.244 179.761 176.814 178.32C175.505 178.189 173.15 176.879 172.627 175.961C176.16 177.534 181.001 176.748 182.309 174.127C181.001 174.651 178.384 174.258 177.337 173.603C181.786 173.078 184.926 170.196 184.926 167.313C184.01 168.754 181.262 170.458 179.169 170.196C188.589 166.265 182.832 151.981 190.29 152.768M132.199 192.472C132.591 192.21 134.815 191.817 135.208 192.865M140.703 70.8695C126.703 67.8556 115.582 91.1802 134.554 96.5527C132.853 100.222 129.451 101.139 127.488 99.8287C128.928 103.236 124.087 104.284 122.909 101.532C123.04 104.415 118.984 105.463 117.676 102.187M127.358 165.085C127.488 165.609 127.488 167.313 127.227 168.492C126.965 169.54 126.049 170.851 125.395 171.506C123.694 173.341 121.993 176.879 122.124 180.548C122.255 182.251 120.685 186.706 118.984 189.327C116.367 192.996 117.545 196.01 121.208 195.224C122.778 194.7 126.442 194.569 128.404 194.962C130.367 196.01 132.984 196.403 133.638 195.486C135.208 196.01 136.647 195.486 136.516 194.7C135.339 193.913 133.245 193.52 132.068 193.782M125.657 170.982C126.311 170.851 119.638 165.216 119.115 164.692C119.638 166.133 120.292 168.492 120.292 169.54C119.377 166.789 116.367 162.989 114.274 162.071C114.928 163.906 115.321 166.265 115.19 166.789C114.666 163.906 111.265 159.451 108.386 158.009C109.695 159.975 110.48 163.251 109.956 164.43C106.555 154.733 100.013 156.437 98.7044 144.25C98.4427 148.837 95.3026 160.761 101.583 164.168C100.144 164.561 97.9194 163.251 97.0035 161.416C96.8727 165.216 100.405 169.54 103.938 170.065C103.415 170.458 101.059 170.327 99.2277 169.672C100.405 172.423 105.77 174.389 109.695 173.603C109.433 174.389 107.078 175.175 105.115 175.175C107.601 177.141 113.227 177.403 116.367 175.699C116.106 176.748 114.405 178.189 112.835 178.451C116.629 180.154 121.339 179.499 122.124 178.975M131.283 177.796C133.376 178.713 137.17 183.037 138.871 186.575M131.283 177.796C131.806 176.485 134.161 173.21 135.862 171.506C137.563 169.671 138.348 166.265 137.432 164.692M131.283 177.796C130.367 179.761 126.965 185.265 124.218 188.803C123.563 190.244 124.348 191.162 126.442 191.031C128.535 190.768 131.283 192.21 133.114 192.734C134.292 192.603 136.255 192.734 136.124 194.044M129.582 180.81C134.946 181.858 141.095 189.327 141.619 195.879M132.591 175.568C137.301 178.451 141.88 188.541 141.75 195.879M166.478 167.706C169.618 160.106 169.356 149.492 166.216 144.381C164.515 141.236 156.273 137.567 148.03 135.995M154.572 150.933C154.702 151.981 156.796 153.685 158.628 155.126C159.413 155.782 159.936 156.699 159.936 157.878C159.936 158.664 159.805 159.451 159.151 160.368C157.712 162.333 157.188 166.265 158.104 169.278M141.75 195.486C140.834 185.396 145.806 173.472 151.562 171.506C150.777 172.685 149.992 174.913 150.123 176.092C152.347 170.196 157.058 169.934 161.244 168.099C159.413 169.409 157.45 171.899 157.058 173.341C159.543 169.278 164.777 168.885 168.571 166.92C167.263 168.23 165.824 170.72 165.693 171.637C167.655 169.278 171.842 165.871 174.066 164.823C173.02 166.134 172.365 168.492 172.758 169.409C174.459 163.251 180.085 168.492 185.842 154.34C187.019 150.409 192.122 151.064 191.991 153.161C192.122 154.471 190.813 154.995 190.028 154.733C189.112 154.471 188.589 153.292 189.898 152.375M166.085 102.187C168.571 112.408 181.131 117.65 191.075 112.67C188.851 117.126 183.748 120.139 180.87 118.436C182.309 121.188 177.861 123.677 176.16 120.27C176.552 122.76 174.066 124.202 172.365 123.677C174.066 121.45 173.412 118.436 170.795 117.65C168.571 116.732 166.216 118.436 165.693 120.664C165.169 123.546 167.655 125.512 171.057 124.726C170.665 126.298 170.141 127.609 169.094 128.395C167.917 129.312 166.216 129.443 164.908 128.657C166.478 131.671 162.029 134.423 159.936 131.54C158.889 135.209 154.572 136.388 148.291 136.257M162.683 58.2899C163.338 56.3243 163.73 52.9174 163.338 51.607M160.852 57.8968C161.506 56.5864 162.029 53.3105 161.637 51.4759M159.805 50.6897C160.198 52.1311 159.936 54.7519 159.282 55.9312C158.889 56.8485 158.497 57.7657 158.366 59.4692C157.843 59.6003 157.058 58.683 157.058 56.5864C157.319 55.276 156.796 53.8346 156.142 53.8346C155.095 57.7657 156.142 63.7935 158.366 65.89C160.328 67.2004 163.076 70.3453 162.814 73.6212C162.683 80.4352 162.945 89.2147 163.73 93.0147C163.599 92.7527 162.029 92.8837 160.983 92.8837M160.983 92.8837C160.198 93.932 159.805 96.4217 159.936 99.5666C160.59 112.146 156.927 119.615 153.002 124.857C148.684 130.229 140.441 133.767 136.124 131.54M160.983 92.8837C161.506 91.9664 162.422 91.9664 163.338 92.8837M146.983 86.4629C148.422 87.2491 149.862 86.5939 149.862 85.2835M147.376 67.7246C150.123 68.5108 153.525 71.5246 154.31 73.8833M145.151 68.1177C145.021 68.9039 146.329 70.0832 147.899 70.3453C149.992 70.7384 152.74 73.8833 153.394 76.6351M159.936 75.8489C160.459 80.4352 157.712 86.5939 154.441 88.5595M158.104 72.966C159.151 76.7661 156.534 83.187 152.74 85.9387M156.272 71.1315C157.319 74.8006 154.964 80.4352 151.562 82.2697M154.31 69.6901C155.226 73.0971 153.787 77.6834 151.301 78.8627M122.255 52.6553C122.124 53.1794 121.601 53.4415 121.077 53.4415C119.246 53.4415 118.722 50.1656 121.732 50.0345C123.956 50.1656 125.003 52.3932 123.956 54.4898C122.648 56.8485 119.246 57.1105 117.283 55.145C115.321 53.3105 115.582 49.9035 117.414 47.9379C114.405 49.3794 111.396 48.2 110.611 45.5793C109.564 42.9585 111.526 40.2068 114.143 39.9447C116.498 39.9447 118.068 41.9102 117.152 43.8758C115.582 46.3655 112.835 44.662 113.62 42.9585C113.881 42.4344 114.536 42.1723 115.059 42.3033M142.927 58.2899C143.712 59.7313 145.806 59.2071 145.936 57.2416C145.936 56.3243 145.413 55.6691 144.759 55.276C144.105 54.8829 143.32 55.014 142.665 55.145C141.619 55.5381 140.703 56.4554 139.918 58.1588C138.348 60.9106 137.301 62.09 135.6 63.2693C136.778 65.89 141.488 68.5108 144.497 68.3797M138.217 45.0551C140.18 47.9379 140.834 51.738 140.18 55.145C141.488 53.1794 144.497 52.7863 146.198 54.4898C148.03 56.0623 147.768 58.9451 145.936 60.1244C145.021 60.5175 144.105 60.5175 143.451 60.2554C142.796 59.9934 142.273 59.3382 142.142 58.552C142.011 56.1933 144.89 56.3243 144.89 57.8968C144.759 58.9451 143.843 59.2071 143.058 58.552M115.321 44.9241C117.807 45.1862 124.218 37.586 133.114 41.124C134.554 41.6482 135.862 42.4344 136.778 43.3516M109.826 100.746C109.171 100.746 107.732 100.615 108.255 98.1252C106.293 101.139 102.368 98.7804 104.592 95.5045C101.321 97.0769 99.3586 92.7527 102.499 91.4423C99.2277 91.5733 98.9661 87.3801 102.106 86.725C99.6203 83.7111 102.237 78.7317 106.947 77.6834C103.284 82.5318 107.47 87.9043 113.62 85.4146C116.629 84.2352 120.554 79.78 124.741 74.6695C127.75 71.0005 134.161 68.3797 138.348 68.7729C135.469 67.5935 133.376 64.5797 132.068 61.3037C130.629 57.3726 125.788 57.3726 125.264 60.6486C125.003 62.8762 127.619 63.6624 128.666 62.09C127.75 62.8762 126.703 62.6141 126.573 61.4348C126.703 59.6003 129.974 59.3382 129.713 62.09C129.451 64.0555 127.227 64.9728 125.264 64.0555C123.04 62.7452 122.778 59.3382 124.872 57.5037C126.834 55.5381 130.498 56.0623 131.937 58.2899C130.629 51.8691 134.815 43.6137 139.918 40.993C140.965 40.3378 143.581 39.0274 145.936 38.5033C147.768 37.9791 149.338 37.0619 150.254 35.8825C151.562 34.179 151.039 31.8204 148.946 31.5583C146.983 31.5583 146.198 33.3928 147.637 34.3101M163.599 34.3101C162.422 34.3101 162.029 32.4756 163.469 31.9514C165.039 31.6893 166.085 32.7376 165.954 34.048C165.954 35.4894 164.777 36.4067 162.945 36.9308C161.637 37.3239 160.067 37.3239 158.628 37.3239C156.011 37.1929 153.263 37.3239 151.301 37.586C152.871 36.4067 153.394 33.3928 151.824 31.4273C150.254 29.5927 147.506 29.7238 146.198 31.5583C145.282 33.1307 145.936 35.0963 147.637 35.4894C149.992 35.7515 149.992 32.8687 148.422 32.7376C147.506 32.7376 146.852 33.5239 147.506 34.3101M161.113 44.531C159.674 44.7931 159.674 46.6276 161.375 47.1517C163.338 47.5448 164.384 46.3655 164.254 44.662C164.254 42.4344 159.805 40.3378 155.487 40.0757C151.039 39.4205 143.843 40.5999 140.965 42.5654C135.077 45.7103 131.937 55.014 134.423 61.0417C138.348 57.8968 139.395 50.5587 136.516 46.4965M168.571 49.5104C171.711 51.607 176.029 49.5104 175.375 45.7103M172.104 30.7721C175.375 29.7238 177.991 33.2618 176.291 35.7515M170.141 45.4482C173.281 46.4965 176.814 45.4482 180.608 43.2206C182.309 42.3033 184.795 41.2551 187.804 41.124C184.926 40.7309 181.655 39.4205 180.346 38.5033C176.683 35.7515 172.889 34.048 169.749 35.0963M168.571 36.4067C173.15 36.0136 173.674 41.9102 169.618 42.0413M163.599 38.3722C169.487 38.2412 173.935 30.9031 172.496 23.434C171.842 27.2341 167.917 29.0686 162.945 28.6755C159.805 28.4134 158.366 30.7721 158.235 32.7376C158.104 34.7032 159.674 37.0619 163.076 36.9308M163.73 43.2206C160.459 40.3378 156.011 43.2206 157.188 47.5448C158.235 50.9518 162.422 52.2622 166.216 51.0828C172.496 48.7242 171.319 38.8964 163.73 38.3722M160.067 103.105C164.515 103.105 170.403 101.401 171.711 99.8287C172.627 99.4356 173.412 97.8631 173.15 96.5527C173.935 91.7044 170.141 78.3386 165.562 69.8212C164.123 68.1177 163.992 63.0072 164.908 59.3382C165.562 57.5037 165.431 53.4415 165.169 51.2139M141.75 109.132C144.628 107.036 147.245 102.449 148.291 99.5666C150.516 93.1458 154.441 88.8216 156.272 90.7871M140.965 70.6074C140.703 71.9178 142.404 73.3592 144.89 73.8833C147.899 74.6695 149.469 78.0765 149.338 82.0076C149.207 85.9387 151.693 90.1319 154.179 90.6561C151.301 89.7388 146.983 94.4562 144.759 99.9597C143.451 102.974 140.965 105.594 139.002 106.249M141.75 97.9942C130.89 101.794 134.684 117.388 146.983 113.457M134.815 117.65C136.647 119.615 141.619 118.829 144.759 115.946C148.422 113.063 151.693 104.415 152.347 98.7804C153.656 91.5733 156.403 89.2147 158.758 91.1802M117.937 132.719C119.638 131.802 121.339 134.291 119.769 135.995C118.984 136.781 118.068 136.912 116.891 136.781C115.713 136.519 114.666 135.733 114.274 134.291C113.358 131.278 115.582 128.657 118.592 128.264C123.171 127.871 126.834 132.064 125.918 137.436M116.76 140.45C119.115 141.63 122.386 140.45 123.302 137.698C124.479 133.636 121.862 130.098 117.937 130.884C115.844 131.409 115.451 134.16 117.022 135.078C117.414 135.209 117.807 135.34 118.33 135.34C119.638 135.078 119.9 133.505 119.115 132.85C118.853 132.719 118.461 132.588 118.068 132.719M129.058 117.388C130.105 122.236 130.105 130.36 129.058 133.898M126.703 153.685C123.302 152.113 121.732 147.395 122.778 142.94C123.302 140.843 124.087 139.271 126.049 137.305C130.89 132.85 135.077 125.643 134.292 123.022M147.899 139.926C150.516 142.416 150.123 148.181 146.983 152.113C145.151 154.471 143.189 155.913 140.703 156.961C137.563 158.271 133.638 158.533 129.974 158.533C124.087 158.402 119.9 162.464 121.339 166.658M142.927 137.305C146.46 142.809 144.366 151.326 137.825 153.816C135.469 154.864 131.414 155.782 129.844 156.175M147.768 136.126C151.693 137.829 154.179 144.381 152.74 149.23M139.002 140.319C141.226 142.154 140.965 147.002 138.086 149.492C135.862 152.113 129.189 153.423 125.918 153.685C121.862 154.209 120.031 158.402 122.124 162.071M128.928 143.595C128.404 145.561 129.713 147.002 132.068 146.347C133.899 145.823 134.423 143.333 133.245 141.499M109.04 155.126C114.928 155.126 117.676 150.147 114.536 145.037C112.311 141.892 110.349 138.878 110.218 135.602C109.956 132.457 111.003 129.443 113.881 127.084C119.246 123.153 127.881 125.512 129.189 133.767M120.162 140.712C121.077 142.809 121.208 145.037 120.947 146.871C120.292 151.981 115.713 155.651 109.04 154.995M135.6 140.974C137.17 142.416 137.563 146.74 135.208 149.099C132.853 151.195 129.451 150.933 127.881 148.837C125.918 145.954 126.834 142.285 129.451 140.188C131.021 138.878 132.199 138.485 133.638 138.092C136.385 137.305 139.656 137.043 141.88 137.305C145.021 137.829 149.862 135.602 151.955 133.505C158.104 127.609 162.553 117.65 162.945 109.263C163.076 105.987 162.683 103.629 162.553 102.974M124.479 164.43C125.918 162.333 131.152 161.416 136.647 162.071C140.049 162.464 143.32 162.464 144.89 160.63M125.918 170.851C124.087 169.54 124.348 166.92 126.442 165.74C128.535 163.906 134.684 164.299 138.74 164.954C141.226 165.347 144.366 164.954 146.591 163.644C148.553 162.464 149.862 160.499 150.516 158.926C153.917 149.885 162.029 140.974 164.646 142.678M118.722 88.8216C117.676 92.3596 115.844 95.8976 112.966 98.1252C109.956 100.091 106.685 103.498 106.685 105.725C107.34 104.808 109.04 103.629 110.087 103.367C107.863 104.808 106.293 108.346 107.078 110.574C107.47 109.525 108.648 108.346 109.564 108.084C108.125 109.656 107.47 113.063 107.863 114.898C108.255 113.85 109.302 112.67 109.956 112.408C108.386 114.374 110.087 117.65 109.956 119.615C110.872 117.912 114.012 115.029 113.096 112.408C114.143 113.588 114.143 115.553 113.881 116.208C115.844 114.243 116.891 110.443 115.844 108.608C116.629 109.263 116.891 110.443 117.152 111.229C119.638 104.939 115.713 98.2562 117.283 95.3734M147.637 94.8493C147.376 94.8493 146.852 94.8493 146.46 94.9803C135.339 96.1596 126.573 106.774 128.797 116.732C131.283 124.464 140.441 126.822 146.852 121.45C151.17 117.912 154.833 109.263 155.226 101.794C155.749 93.1458 158.758 88.5595 161.113 92.7527M137.301 83.7111C137.563 84.6284 136.909 85.1525 135.862 84.7594C135.208 84.1042 134.292 83.5801 134.03 83.7111C133.245 83.5801 133.114 82.5318 133.899 81.4835C134.946 79.78 136.909 77.6834 138.086 77.1592C137.432 75.9799 138.086 74.1454 139.264 73.4902C141.488 68.2487 148.684 66.1521 153.656 69.166C162.422 74.1454 164.254 84.8904 157.058 90.263C156.272 90.1319 155.357 89.3457 154.572 88.5595C152.871 86.725 151.562 83.7111 151.562 80.8283C151.562 76.8972 148.553 72.4419 145.544 72.1798C144.105 71.9178 142.796 70.6074 142.927 69.297M138.74 78.6007C141.357 78.2075 143.843 80.3041 143.712 82.9249C140.965 83.187 138.348 81.6145 138.61 79.78M139.264 76.6351C141.619 75.1937 144.759 77.5523 145.675 81.4835M134.946 84.1042C135.077 84.3663 134.815 85.4146 134.161 86.0698C133.899 86.725 134.292 86.987 134.946 86.856C136.516 87.2491 136.255 88.8216 134.815 88.9526C133.638 88.6905 133.376 89.7388 134.423 91.3113C134.03 97.0769 139.918 96.4217 146.46 90.1319C146.852 89.7388 146.983 88.5595 146.852 88.4284M134.161 2.46804C135.077 2.46804 135.862 3.25426 135.862 4.17152C135.862 5.08878 135.077 5.87501 134.161 5.87501C133.245 5.87501 132.46 5.08878 132.46 4.17152C132.46 3.12323 133.245 2.46804 134.161 2.46804Z" stroke="#292526" stroke-miterlimit="22.926"/>
<path fill-rule="evenodd" clip-rule="evenodd" d="M216.056 2.66821L213.58 5.14339L211.611 3.09598L211.379 2.85516L211.045 2.85516L199.535 2.85516L198.75 2.85516L198.75 3.64017L198.75 14.9443L198.75 15.2696L198.98 15.4995L201.05 17.5685L198.98 19.6375L198.75 19.8675L198.75 20.1927L198.75 31.6988L198.75 32.4837H199.535L210.843 32.4837H211.168L211.398 32.2539L213.468 30.1845L216.194 32.9099L213.53 35.5729L211.611 33.5769L211.379 33.3361H211.045L199.535 33.3361H198.75L198.75 34.1211L198.75 45.4253L198.75 45.7528L198.983 45.9831L201.06 48.0393L198.98 50.1184L198.75 50.3484L198.75 50.6736L198.75 62.1797L198.75 62.9647H199.535H210.843H211.168L211.398 62.7348L213.518 60.615L216.194 63.2899L213.53 65.9528L211.611 63.9569L211.379 63.7161H211.045H199.535H198.75L198.75 64.5011L198.75 75.8052L198.75 76.1327L198.983 76.3632L201.06 78.4193L198.98 80.4985L198.75 80.7284L198.75 81.0536L198.75 92.5597L198.75 93.3447H199.535H210.843H211.168L211.398 93.1148L213.468 91.0454L216.194 93.7708L213.58 96.3843L211.611 94.3369L211.379 94.096H211.045H199.535H198.75L198.75 94.8811L198.75 106.185L198.75 106.513L198.983 106.743L201.06 108.799L198.98 110.878L198.75 111.108L198.75 111.434L198.75 122.94L198.75 123.725H199.535H210.843H211.168L211.398 123.495L213.468 121.425L216.194 124.151L213.58 126.764L211.611 124.717L211.379 124.476H211.045H199.535H198.75L198.75 125.261L198.75 136.565L198.75 136.893L198.983 137.123L201.06 139.179L198.98 141.258L198.75 141.488L198.75 141.814L198.75 153.219L198.75 154.004H199.535H210.843H211.168L211.398 153.774L213.418 151.755L216.194 154.531L213.53 157.194L211.611 155.198L211.379 154.957H211.045H199.535H198.75L198.75 155.742L198.75 167.046L198.75 167.374L198.983 167.604L201.06 169.66L198.98 171.739L198.75 171.969L198.75 172.294L198.75 183.801V184.586H199.535H210.843H211.168L211.398 184.356L213.518 182.236L216.194 184.911L213.58 187.524L211.611 185.477L211.379 185.236H211.045H199.535H198.75V186.021V197.325V197.65L198.98 197.88L202.009 200.908L203.119 199.798L200.32 197L200.32 186.806H210.711L212.469 188.634L209.783 191.32L209.379 190.916L209.14 190.678L208.804 190.686L204.866 190.787L204.101 190.807V191.572V195.206V195.531L204.331 195.761L209.581 201.009L210.187 200.404L210.388 200.605L213.558 197.437L215.527 199.484L215.759 199.725H216.093H227.603L228.388 199.725L228.388 198.94V187.636V187.308L228.155 187.078L225.824 184.771L228.057 182.539L228.287 182.309V181.984V170.68V169.895L227.502 169.895H216.194H215.869L215.639 170.124L213.468 172.295L210.893 169.721L213.558 167.057L215.527 169.104L215.759 169.345H216.093H227.603L228.388 169.345V168.56V157.256V156.928L228.155 156.698L225.824 154.391L228.057 152.159L228.287 151.929V151.604L228.287 140.3V139.515L227.502 139.515H216.194H215.869L215.639 139.744L213.518 141.864L210.893 139.24L213.558 136.576L215.527 138.623L215.759 138.864H216.093H227.603L228.388 138.864V138.079V126.775V126.447L228.155 126.217L225.875 123.96L228.057 121.779L228.287 121.549V121.224V109.92V109.135H227.502H216.194H215.869L215.639 109.364L213.518 111.484L210.893 108.86L213.558 106.196L215.527 108.243L215.759 108.484H216.093H227.603H228.388V107.699V96.395V96.0675L228.155 95.8371L225.824 93.5299L228.057 91.2981L228.287 91.0682V90.7429V79.4387V78.6537H227.502H216.194H215.869L215.639 78.8836L213.468 81.0539L210.893 78.4799L213.558 75.816L215.527 77.8634L215.759 78.1042H216.093H227.603H228.388V77.3192L228.388 66.015V65.6875L228.155 65.4571L225.824 63.1499L228.057 60.9181L228.287 60.6882V60.3629L228.287 49.0588V48.2738H227.502H216.194H215.869L215.639 48.5036L213.468 50.6739L210.893 48.0999L213.558 45.436L215.527 47.4834L215.759 47.7242H216.093H227.603H228.388V46.9392V35.635V35.3075L228.155 35.0771L225.875 32.8202L228.057 30.639L228.287 30.4091V30.0839V18.6788V17.8938H227.502L216.194 17.8938H215.869L215.639 18.1236L213.518 20.2434L210.893 17.619L213.558 14.9551L215.527 17.0025L215.759 17.2433H216.093L227.603 17.2433H228.388V16.4583V5.15411V4.82661L228.155 4.59622L226.207 2.66821H223.976L226.818 5.48161V15.6733L216.427 15.6733L214.669 13.8449L217.254 11.2601L217.759 11.7651L217.998 12.0033L218.334 11.9947L222.272 11.8937L223.037 11.8741V11.109V7.47551V7.15027L222.807 6.92033L218.553 2.66821H216.056ZM218.631 10.4165L218.364 10.1502L221.091 7.42478L221.467 7.80074V10.3439L218.631 10.4165ZM217.305 3.63991L219.98 6.31481L209.783 16.509L207.107 13.8341L217.305 3.63991ZM208.723 9.99876L205.997 12.7241L205.671 12.3986V9.85552L208.507 9.78284L208.723 9.99876ZM212.469 6.25357L209.833 8.88879L209.379 8.43429L209.14 8.19608L208.804 8.20472L204.866 8.30565L204.101 8.32525V9.09038V12.7239V13.0491L204.331 13.2791L212.408 21.3534L209.732 24.0283L200.32 14.6191L200.32 4.42516L210.711 4.42516L212.469 6.25357ZM205.923 22.44L208.622 25.1383L208.297 25.4635L205.57 25.4635V22.7605L205.923 22.44ZM202.16 18.6785L204.811 21.3287L204.257 21.8322L204 22.0658V22.4132L204 26.2485V27.0335H204.785L208.622 27.0335H208.947L209.177 26.8037L216.519 19.4638H226.717V29.7586L224.759 31.7157L222.121 29.1041L222.908 28.3176L223.138 28.0877V27.7625V24.129V23.344H222.353H218.415H218.09L217.86 23.5738L210.518 30.9137L200.32 30.9137L200.32 20.5179L202.16 18.6785ZM221.568 27.4372L221.005 27.9996L218.316 25.3379L218.74 24.914H221.568V27.4372ZM214.578 29.0746L217.206 26.4479L226.818 35.9625V46.1542H216.427L214.669 44.3258L217.305 41.6906L217.759 42.1451L217.998 42.3833L218.334 42.3746L222.272 42.2737L223.037 42.2541L223.037 41.489V37.8555V37.5303L222.807 37.3003L214.578 29.0746ZM218.631 40.7965L218.415 40.5806L221.141 37.8552L221.467 38.1807V40.7239L218.631 40.7965ZM217.305 34.0199L220.031 36.7453L209.783 46.9899L207.057 44.2645L217.305 34.0199ZM208.672 40.4292L205.946 43.1546L205.671 42.8796V40.3364L208.507 40.2638L208.672 40.4292ZM212.42 36.683L209.783 39.3192L209.379 38.9152L209.14 38.677L208.804 38.6856L204.866 38.7866L204.101 38.8062V39.5713V43.2048V43.53L204.331 43.76L212.358 51.7839L209.729 54.4115L200.32 45.0978L200.32 34.9061H210.711L212.42 36.683ZM205.905 52.8357L208.619 55.5215L208.297 55.8435H205.57V53.1405L205.905 52.8357ZM202.176 49.1438L204.788 51.7297L204.257 52.2122L204 52.4458V52.7932V56.6285V57.4135H204.785H208.622H208.947L209.177 57.1837L216.519 49.8437H226.717V60.0377L224.709 62.0454L222.172 59.5344L222.908 58.7986L223.138 58.5686V58.2434V54.6099V53.8249H222.353H218.415H218.09L217.86 54.0547L210.518 61.3947H200.32L200.32 50.9989L202.176 49.1438ZM221.568 57.9181L221.056 58.4298L218.367 55.7681L218.74 55.3949H221.568V57.9181ZM214.629 59.505L217.257 56.8781L226.818 66.3425V76.5342H216.427L214.669 74.7058L217.305 72.0706L217.759 72.5251L217.998 72.7633L218.334 72.7546L222.272 72.6537L223.037 72.6341V71.869V68.2355V67.9103L222.807 67.6803L214.629 59.505ZM218.631 71.1765L218.415 70.9606L221.141 68.2352L221.467 68.5607V71.1038L218.631 71.1765ZM217.305 64.3999L220.031 67.1253L209.783 77.3699L207.057 74.6445L217.305 64.3999ZM208.672 70.8092L205.946 73.5346L205.671 73.2595V70.7164L208.507 70.6437L208.672 70.8092ZM212.42 67.063L209.783 69.6992L209.379 69.2952L209.14 69.057L208.804 69.0656L204.866 69.1666L204.101 69.1862L204.101 69.9513V73.5848V73.91L204.331 74.14L212.358 82.1638L209.729 84.7915L200.32 75.4777L200.32 65.2861H210.711L212.42 67.063ZM205.905 83.2157L208.619 85.9015L208.297 86.2235H205.57V83.5205L205.905 83.2157ZM202.176 79.5238L204.788 82.1097L204.257 82.5922L204 82.8258V83.1731V87.0085V87.7935H204.785H208.622H208.947L209.177 87.5637L216.519 80.2237H226.717L226.717 90.4177L224.709 92.4254L222.172 89.9143L222.908 89.1786L223.138 88.9486V88.6234V84.9899V84.2049H222.353H218.415H218.09L217.86 84.4347L210.518 91.7747H200.32L200.32 81.3789L202.176 79.5238ZM221.568 88.2981L221.056 88.8098L218.367 86.1481L218.74 85.7749H221.568V88.2981ZM214.578 89.9355L217.257 87.2581L226.818 96.7225L226.818 106.914H216.427L214.669 105.086L217.254 102.501L217.759 103.006L217.998 103.244L218.334 103.236L222.272 103.135L223.037 103.115V102.35V98.7164V98.3912L222.807 98.1612L214.578 89.9355ZM218.631 101.657L218.364 101.391L221.091 98.6657L221.467 99.0416V101.585L218.631 101.657ZM217.305 94.8808L219.98 97.5557L209.783 107.75L207.107 105.075L217.305 94.8808ZM208.723 101.24L205.997 103.965L205.671 103.64L205.671 101.096L208.507 101.024L208.723 101.24ZM212.469 97.4945L209.833 100.13L209.379 99.6752L209.14 99.437L208.804 99.4456L204.866 99.5465L204.101 99.5662V100.331L204.101 103.965V104.29L204.331 104.52L212.408 112.594L209.78 115.222L200.32 105.858L200.32 95.6661H210.711L212.469 97.4945ZM205.959 113.648L208.669 116.332L208.297 116.704H205.57V114.001L205.959 113.648ZM202.176 109.904L204.841 112.542L204.257 113.073L204 113.307V113.654V117.489V118.274H204.785H208.622H208.947L209.177 118.045L216.519 110.705H226.717V120.899L224.759 122.856L222.172 120.294L222.908 119.559L223.138 119.329V119.003V115.37V114.585H222.353H218.415H218.09L217.86 114.815L210.518 122.155H200.32L200.32 111.759L202.176 109.904ZM221.568 118.678L221.056 119.19L218.367 116.528L218.74 116.155H221.568V118.678ZM214.578 120.315L217.257 117.638L226.818 127.103V137.294H216.427L214.669 135.466L217.254 132.881L217.759 133.386L217.998 133.624L218.334 133.616L222.272 133.515L223.037 133.495V132.73L223.037 129.096V128.771L222.807 128.541L214.578 120.315ZM218.631 132.037L218.364 131.771L221.091 129.046L221.467 129.422V131.965L218.631 132.037ZM217.305 125.261L219.98 127.936L209.783 138.13L207.107 135.455L217.305 125.261ZM208.723 131.62L205.997 134.345L205.671 134.02V131.476L208.507 131.404L208.723 131.62ZM212.469 127.874L209.833 130.51L209.379 130.055L209.14 129.817L208.804 129.826L204.866 129.927L204.101 129.946V130.711V134.345V134.67L204.331 134.9L212.408 142.974L209.78 145.602L200.32 136.238L200.32 126.046H210.711L212.469 127.874ZM205.959 144.028L208.669 146.712L208.297 147.084H205.57L205.57 144.381L205.959 144.028ZM202.176 140.284L204.841 142.922L204.257 143.453L204 143.687V144.034L204 147.869V148.654H204.785H208.622H208.947L209.177 148.425L216.519 141.085H226.717V151.279L224.709 153.286L222.07 150.675L222.908 149.838L223.138 149.608V149.282V145.649V144.864H222.353H218.415H218.09L217.86 145.094L210.518 152.434H200.32L200.32 142.139L202.176 140.284ZM221.568 148.957L220.955 149.57L218.266 146.909L218.74 146.434H221.568V148.957ZM214.528 150.645L217.155 148.019L226.818 157.583V167.775H216.427L214.669 165.947L217.305 163.311L217.759 163.766L217.998 164.004L218.334 163.996L222.272 163.895L223.037 163.875V163.11V159.476V159.151L222.807 158.921L214.528 150.645ZM218.631 162.417L218.415 162.201L221.141 159.476L221.467 159.802L221.467 162.345L218.631 162.417ZM217.305 155.641L220.031 158.366L209.783 168.611L207.057 165.885L217.305 155.641ZM208.672 162.05L205.946 164.775L205.671 164.5V161.957L208.507 161.885L208.672 162.05ZM212.42 158.304L209.783 160.94L209.379 160.536L209.14 160.298L208.804 160.307L204.866 160.407L204.101 160.427V161.192V164.826V165.151L204.331 165.381L212.358 173.405L209.729 176.032L200.32 166.719L200.32 156.527H210.711L212.42 158.304ZM205.905 174.457L208.619 177.142L208.297 177.464H205.57V174.761L205.905 174.457ZM202.176 170.765L204.788 173.351L204.257 173.833L204 174.067V174.414V178.249L204 179.034H204.785H208.622H208.947L209.177 178.805L216.519 171.465H226.717L226.717 181.659L224.709 183.666L222.172 181.155L222.908 180.419L223.138 180.19V179.864V176.231V175.446H222.353H218.415H218.09L217.86 175.676L210.518 183.016H200.32L200.32 172.62L202.176 170.765ZM221.568 179.539L221.056 180.051L218.367 177.389L218.74 177.016H221.568V179.539ZM214.629 181.126L217.257 178.499L226.818 187.963L226.818 198.155H216.427L214.669 196.327L217.305 193.691L217.759 194.146L217.998 194.384L218.334 194.376L222.272 194.275L223.037 194.255V193.49V189.856V189.531L222.807 189.301L214.629 181.126ZM218.631 192.797L218.415 192.581L221.141 189.856L221.467 190.182V192.725L218.631 192.797ZM217.305 186.021L220.031 188.746L209.783 198.991L207.057 196.265L217.305 186.021ZM208.672 192.43L205.946 195.155L205.671 194.88V192.337L208.507 192.265L208.672 192.43Z" fill="#EE8842"/>
</svg>
