<svg width="229" height="198" viewBox="0 0 229 198" fill="none" xmlns="http://www.w3.org/2000/svg">
<path d="M137.172 194C187.957 190.847 228.172 148.624 228.172 97C228.172 45.3759 187.957 3.15261 137.172 0V27.8445C172.62 30.9378 200.428 60.7185 200.428 97C200.428 133.281 172.62 163.062 137.172 166.156V194Z" fill="#C12DD9"/>
<path d="M99.8373 126.219C100.059 126.219 100.392 126.108 100.614 126.108C102.611 126.108 104.164 127.662 104.164 129.659C104.164 131.545 102.611 133.098 100.725 133.209M94.1791 110.798C95.9542 111.353 97.0636 113.017 97.0636 114.903C97.0636 117.233 95.1776 119.23 92.8477 119.23M93.2915 123.002C94.0681 122.225 93.5134 119.784 92.0711 118.009C89.9632 115.347 91.1836 111.796 94.29 110.687C96.1761 110.243 98.1731 108.69 98.284 107.581M88.8537 128.993C90.9617 127.44 91.0726 123.113 88.9647 120.339C86.0801 116.456 87.6333 110.576 92.0711 108.468C93.8463 107.691 96.7308 104.03 97.9512 101.146C98.8388 98.4831 103.831 99.9253 100.836 102.921C98.5059 106.249 102.389 106.471 102.056 102.477C101.169 97.2627 107.271 98.0393 105.274 103.143C100.947 108.468 104.608 110.465 104.719 104.03M105.495 102.144C107.714 102.255 107.492 104.696 104.497 111.685C102.167 117.122 98.6169 124.222 93.6244 131.101C88.5209 137.536 89.6304 145.746 95.8433 147.521C95.9542 146.966 96.398 145.302 96.8418 144.192C97.5074 142.306 96.7308 139.311 95.1776 138.312C94.0681 137.314 93.8463 135.317 94.7338 134.207M85.5254 107.026C89.8522 125.221 88.8537 142.972 92.404 155.398C91.0726 156.618 87.6333 156.618 85.6363 155.509C83.5284 154.288 79.6453 154.843 77.8702 156.618C75.6513 158.948 71.8792 159.725 70.215 158.171C67.3305 155.509 61.6723 158.06 55.5703 164.162C56.5688 155.509 57.6783 145.635 57.5673 144.525M74.32 111.02C74.8747 112.351 76.4279 124.666 77.5374 135.871M71.1026 110.909C70.8807 114.681 68.8837 127.218 67.1086 135.982M61.1175 101.922C58.8987 102.477 58.233 105.362 59.7862 107.802C68.6618 112.906 82.1971 112.018 86.6348 106.027C87.7443 104.585 87.7443 101.7 86.413 100.036M74.7638 133.985C74.7638 134.429 74.8747 137.203 74.8747 139.533M71.8792 140.087C71.7683 136.426 71.7683 136.648 71.8792 133.985M90.5179 145.08C90.6289 144.525 88.8537 144.081 86.9677 143.97C85.1926 144.081 84.8597 143.083 86.0801 142.084C87.7443 140.42 84.7488 139.754 80.0891 140.753C75.0966 141.419 73.3215 139.755 76.5389 137.314C78.314 135.982 77.7593 134.429 75.6513 134.096C73.8762 133.542 70.4369 133.874 68.8837 134.54C66.5538 135.539 66.7757 136.87 69.4384 137.425C73.7653 139.422 72.5449 141.752 67.1086 142.306C61.5613 142.306 57.4564 143.638 55.9032 146.633C56.4579 131.101 58.5658 111.575 60.0081 107.359" stroke="#292526" stroke-width="1.62" stroke-miterlimit="22.926"/>
<path d="M92.736 115.902C93.41 115.902 93.9564 115.355 93.9564 114.681C93.9564 114.007 93.41 113.461 92.736 113.461C92.062 113.461 91.5156 114.007 91.5156 114.681C91.5156 115.355 92.062 115.902 92.736 115.902Z" fill="#292526"/>
<path d="M92.736 115.902C93.41 115.902 93.9564 115.355 93.9564 114.681C93.9564 114.007 93.41 113.461 92.736 113.461C92.062 113.461 91.5156 114.007 91.5156 114.681C91.5156 115.355 92.062 115.902 92.736 115.902Z" stroke="#292526" stroke-width="1.62" stroke-miterlimit="22.926"/>
<path fill-rule="evenodd" clip-rule="evenodd" d="M100.499 128.438C101.164 128.438 101.719 128.992 101.719 129.547C101.719 130.213 101.164 130.656 100.499 130.656C99.833 130.656 99.3892 130.102 99.3892 129.547C99.2783 128.992 99.833 128.438 100.499 128.438Z" fill="#292526"/>
<path d="M100.499 128.438C101.164 128.438 101.719 128.992 101.719 129.547C101.719 130.213 101.164 130.656 100.499 130.656C99.833 130.656 99.3892 130.102 99.3892 129.547C99.2783 128.992 99.833 128.438 100.499 128.438Z" stroke="#292526" stroke-width="1.62" stroke-miterlimit="22.926"/>
<path d="M85.9682 39.3514C87.1886 40.7937 89.6294 40.6827 90.7388 39.0185M85.8572 37.5763C87.6323 35.9121 90.0731 36.134 90.7388 37.7981M76.0941 39.5733C77.8692 41.4593 80.8647 41.3484 82.0851 39.4623M73.5424 39.0185C74.4299 38.9076 75.3175 38.4638 75.9831 37.7981C77.8692 35.9121 80.9757 36.023 82.0851 37.9091M66.7747 54.3289C64.8887 55.8821 64.7777 58.6558 66.6638 59.8762M66.8857 50.5568C65.6653 52.8866 66.8857 55.6602 69.3265 56.104M65.4434 43.6782C63.7792 47.5613 65.8872 51.3334 69.6593 51.2225M65.4434 43.6782C62.6698 42.4578 63.0026 39.2404 65.7762 38.3529C65.3325 37.7981 65.3325 36.5778 65.7762 35.1355M65.4434 43.6782C67.7732 44.4548 70.214 42.9016 70.325 40.5718C70.325 39.3514 70.214 38.3529 70.325 37.3544C70.5469 35.1355 71.1016 33.2494 71.4344 33.1385M68.7717 43.2344C68.9936 45.3424 70.5469 47.1175 71.8782 46.8956C72.6548 50.7787 71.7672 56.9916 70.1031 59.4324M90.1841 56.104C90.8497 57.5463 89.1856 58.9886 88.0761 57.8791M92.0701 52.9976C93.0686 55.2165 90.406 57.2135 88.7418 55.5493M93.6234 49.2255C94.8438 51.9991 91.5154 54.5508 89.2965 52.4429M94.7328 44.0111C96.5079 46.2299 94.4 50.0021 92.0701 49.4473M94.9547 37.2434C97.0626 39.7951 96.286 43.4563 93.6234 44.5658M94.8438 31.9181C96.397 34.026 95.8423 37.2434 93.6234 38.4638M84.1931 168.269C85.9682 169.046 87.7433 168.713 87.7433 167.604M84.0821 165.939C84.9697 166.272 86.6338 166.272 87.4105 165.828M67.5513 169.711C69.4374 170.599 71.9891 169.933 72.6548 168.491M67.3294 166.383C69.3265 167.382 71.7672 167.16 72.211 165.828M88.5199 156.287C88.5199 157.84 88.0761 162.167 87.6323 164.83C86.9667 166.827 88.5199 170.377 91.2935 172.152C95.8423 174.926 97.9502 181.472 96.286 187.13C91.4045 186.686 86.6338 182.803 86.7448 179.364C86.7448 178.365 86.7448 176.923 86.1901 175.813C85.6353 174.371 84.5259 173.151 83.4164 172.818C80.7538 171.93 80.5319 169.49 81.9742 167.382C82.7508 165.606 82.1961 163.166 81.3085 161.834C79.6443 158.95 79.0896 155.732 79.5334 155.4M64.6668 157.84C66.22 164.941 65.8872 171.93 63.8902 173.595C59.8962 176.923 58.8976 181.804 61.2275 187.574C65.7762 186.131 68.9936 183.025 69.3265 179.807C69.5483 177.367 70.8797 175.259 72.4329 174.593C74.4299 173.816 74.7628 171.154 72.9876 169.268C71.8782 167.825 72.1001 162.611 73.3205 158.728M79.7553 140.866C79.8662 142.752 80.0881 146.08 80.199 147.523M76.4269 140.755C76.316 143.75 76.205 150.518 76.205 154.29M69.4374 142.086C69.4374 143.528 69.4374 145.858 69.3265 146.746M66.5528 142.419C66.4419 142.974 66.1091 146.413 65.7762 149.187M62.7807 142.752C62.226 144.527 61.1165 151.073 60.5618 155.954M73.8752 98.0411C78.6458 97.0426 84.5259 88.8327 85.6353 81.7323M67.6623 97.9302C75.0956 97.3755 82.5289 99.8163 82.4179 102.812M80.31 105.807C80.7538 105.474 80.9757 105.253 81.3085 104.698C83.7493 101.369 86.301 94.4909 86.8557 89.1656C87.0776 83.6183 90.1841 77.1835 92.9577 76.296M87.9652 75.0756C88.9637 86.0591 84.304 97.9302 78.0911 99.0396M66.4419 92.1611C66.7747 97.8193 70.214 104.365 72.322 102.923C73.3205 102.035 72.211 101.037 69.8812 101.702M63.5573 94.269C64.8887 104.476 71.7672 108.803 75.0956 104.365C77.2035 100.926 73.0986 98.1521 68.4389 99.4834M102.055 87.6123C93.6234 86.9467 94.6219 78.293 105.605 64.6468M70.6578 87.5014C71.7672 89.8312 72.7657 92.0501 72.8767 92.0501C74.208 91.6063 76.0941 90.4969 76.6488 89.9422C75.6503 88.1671 74.5409 85.7263 74.4299 85.0606M60.7837 89.9422C59.0086 86.5029 61.2275 81.9542 65.2215 80.7338C65.6653 87.9452 70.4359 89.9422 74.5409 84.7278M53.4614 68.6408C57.5663 70.4159 60.6728 77.2945 59.6743 82.3979M49.8002 71.6363C54.3489 72.0801 58.121 77.1835 57.4554 81.9542M47.3594 74.5209C51.1315 72.7457 54.7927 76.4069 54.5708 81.7323M54.127 92.272C51.7972 85.8372 58.0101 81.1775 61.8932 82.9527M49.9111 88.3889C50.9096 83.5074 55.7912 80.5119 59.8962 82.5089M54.9036 82.3979C52.13 76.7398 44.0311 81.3994 46.5828 89.8312C45.4733 92.6049 47.3594 95.4894 50.244 95.6004C55.2365 99.7053 65.1106 95.7113 69.9921 87.6123M61.4494 64.8687C50.244 68.197 43.0326 77.1835 47.0266 82.7308M65.3324 63.0935C65.9981 62.8717 66.8857 62.3169 67.1076 61.8732M73.5424 69.1955C71.1016 66.8657 67.5513 62.6498 66.331 60.7637C66.4419 59.7652 67.6623 58.3229 68.8827 57.8791C70.6578 60.7637 74.9846 65.6453 77.5364 67.5313M77.2035 75.0756C80.4209 71.8582 86.7448 67.7532 89.6294 66.7547M72.5439 73.0786C72.322 72.6348 71.7672 71.1925 71.5454 70.194C76.9816 67.6423 84.6368 64.5358 86.6338 63.9811M85.1916 56.3259C85.1916 59.0995 85.8572 62.9826 86.5229 63.9811C87.4105 63.4264 92.0701 69.6393 95.9532 76.4069M87.2995 54.8836C87.6323 58.3229 90.5169 62.9826 93.2905 66.3109C95.8423 69.3065 98.7268 74.6318 98.1721 75.4084M91.7373 30.9196C92.1811 32.6947 92.292 34.3589 91.7373 35.3574C91.5154 36.7996 91.7373 38.131 91.9592 39.0185C92.6249 40.9046 91.9592 45.3424 90.406 48.116C89.8512 49.1145 88.7418 51.7772 88.1871 53.5523C86.5229 57.6573 80.7538 57.5463 76.6488 53.1085M81.3085 20.047C81.7523 21.2674 82.196 23.5972 82.196 24.7067M92.0701 34.026C89.6293 32.4728 85.7463 33.3604 85.4134 36.2449C85.6353 37.1325 86.1901 41.5703 86.412 44.8986C82.9727 45.4533 81.3085 45.4533 82.4179 44.122M73.6533 35.4683C75.9831 33.4713 80.5319 33.0275 82.7508 34.5807M72.8767 26.1489C73.6533 14.8326 87.1886 15.0545 88.409 24.5957M69.1046 27.1474C70.214 12.2809 89.5184 11.948 90.9607 24.7067M66.4419 78.5149C59.8962 61.8732 50.3549 30.9196 47.4703 16.8296C45.5843 1.85205 63.2245 -1.69819 68.5498 8.84157C71.2125 15.1654 64.8887 16.9405 64.1121 13.6122C64.4449 3.73811 49.6892 4.73661 51.6862 16.4968C54.5708 30.2539 63.4464 59.2105 69.5483 74.188M83.8602 108.359C85.6353 115.792 86.9667 132.212 86.5229 141.199M78.313 110.467C79.4224 114.35 80.9757 122.893 81.4194 127.663M66.7747 110.245C66.5528 113.019 64.0011 126.443 61.5603 137.094M61.6713 95.1566C61.7822 96.5989 61.5603 100.038 61.1165 101.924C65.1106 108.47 74.7627 109.579 81.7523 105.031C85.9682 102.257 88.0761 97.9302 90.7388 93.2705M63.4464 29.3663C73.2095 24.7067 89.6294 23.0425 96.286 26.1489C96.397 28.9226 95.8423 31.8071 94.9547 31.9181C90.0731 29.2554 75.4284 30.9196 65.6653 35.2464C64.3339 34.4698 63.2245 31.5852 63.4464 29.3663Z" stroke="#292526" stroke-width="1.62" stroke-miterlimit="22.926"/>
<path fill-rule="evenodd" clip-rule="evenodd" d="M80.8612 36.7938C80.8612 37.9032 80.0845 38.5689 79.197 38.5689C78.4204 38.5689 77.5328 38.0142 77.4219 36.9047C77.8657 36.6828 78.5313 36.5719 79.197 36.4609C79.7517 36.4609 80.4174 36.5719 80.8612 36.7938Z" fill="#292526"/>
<path d="M80.8612 36.7938C80.8612 37.9032 80.0845 38.5689 79.197 38.5689C78.4204 38.5689 77.5328 38.0142 77.4219 36.9047C77.8657 36.6828 78.5313 36.5719 79.197 36.4609C79.7517 36.4609 80.4174 36.5719 80.8612 36.7938Z" stroke="#292526" stroke-width="1.62" stroke-miterlimit="22.926"/>
<path fill-rule="evenodd" clip-rule="evenodd" d="M89.9612 36.9092C89.9612 38.0187 89.1845 38.5734 88.4079 38.6843C87.6313 38.6843 86.8547 38.2406 86.6328 37.0202C87.0766 36.7983 87.8532 36.5764 88.4079 36.5764C89.0736 36.4654 89.6283 36.6873 89.9612 36.9092Z" fill="#292526"/>
<path d="M89.9612 36.9092C89.9612 38.0187 89.1845 38.5734 88.4079 38.6843C87.6313 38.6843 86.8547 38.2406 86.6328 37.0202C87.0766 36.7983 87.8532 36.5764 88.4079 36.5764C89.0736 36.4654 89.6283 36.6873 89.9612 36.9092Z" stroke="#292526" stroke-width="1.62" stroke-miterlimit="22.926"/>
<path d="M101.609 137.753C101.941 136.421 101.165 134.313 99.8335 132.316C98.3912 130.319 98.3912 126.769 101.498 123.996M124.907 160.164C126.571 162.826 127.348 167.153 126.904 167.819C122.244 168.373 118.805 167.264 119.915 164.601C120.802 162.493 121.246 160.496 120.913 159.498C120.691 159.054 120.247 158.832 119.804 158.832C118.25 158.943 117.252 157.723 117.363 156.059C117.474 153.396 117.141 152.065 116.586 150.733C115.033 146.628 111.261 146.074 106.712 150.4M104.937 142.856C106.934 142.967 111.15 142.523 113.369 141.969C116.919 140.97 120.025 143.189 119.582 146.517C119.915 151.066 123.021 157.501 125.906 159.387C127.348 160.385 129.234 163.603 129.567 165.933C128.679 166.376 127.459 166.487 127.015 166.266M118.139 175.363C118.694 178.359 118.472 182.796 117.585 184.128C114.145 183.684 111.039 181.132 111.372 178.913C111.816 177.249 112.148 176.029 113.813 174.586C114.589 173.699 114.256 172.035 113.036 171.48C111.483 170.925 111.261 169.372 112.037 167.93C114.145 160.718 111.372 155.393 106.49 157.168C102.052 159.276 96.9489 159.165 95.5067 156.28C94.841 154.838 92.733 153.285 91.7345 152.952M103.717 113.9C105.381 114.121 105.714 116.229 104.16 117.228M104.826 111.126C107.932 111.681 108.82 115.786 106.712 119.336C105.603 121.666 108.154 121.888 107.822 119.669C107.489 116.451 108.487 114.565 109.486 116.008C110.04 116.34 110.262 119.447 109.042 122.775C108.154 126.436 108.709 130.319 109.264 131.873C111.372 136.754 109.264 142.191 105.048 142.745C101.498 143.633 100.499 149.18 105.27 150.4C107.045 150.844 110.373 151.066 111.705 151.066C113.923 151.066 115.699 152.508 116.364 154.505C116.586 155.393 116.586 156.391 116.475 157.279C115.699 163.825 117.474 170.925 119.36 174.586C121.024 177.36 121.69 181.687 120.58 183.129C119.915 183.24 118.583 182.685 117.807 182.02M74.4272 84.7211C75.4257 83.6117 76.757 82.5022 77.0898 82.5022M74.6491 80.0615C77.9774 78.2863 79.7525 79.5067 78.3102 82.5022C77.5336 83.3898 75.8694 84.3883 74.8709 84.4992M73.2068 77.9535C76.9789 75.5127 79.4197 76.2893 78.1993 79.3958M71.4317 76.0674C74.8709 73.7376 77.8665 73.9595 77.4227 76.5112M65.2188 80.6162C65.2188 80.7271 66.4391 78.5082 67.5486 76.1784C70.3222 72.7391 74.3162 71.8515 75.4257 74.2923M98.2803 75.4018C92.844 79.063 90.736 90.1574 96.7271 91.5997M122.577 58.0944C124.685 55.9865 126.571 56.5412 123.798 59.5367C118.028 64.862 111.261 69.2998 109.375 69.4108C108.82 72.2953 108.265 74.958 107.822 77.3988C103.828 102.029 83.4137 98.9221 90.9579 81.6147C92.1783 78.8411 96.1723 75.9565 98.1693 75.5127M116.475 59.2038C117.03 57.9835 119.138 56.6521 120.802 56.4302C123.243 53.3238 125.684 51.9924 125.684 53.8785C124.796 54.877 123.132 56.985 122.355 58.2053C121.246 58.5382 119.027 59.9805 117.807 61.0899M114.589 57.3178C115.699 55.9865 118.028 54.877 119.138 55.0989C121.69 52.1034 124.574 50.9939 124.796 52.88M122.022 52.2143C121.579 51.1049 119.138 51.6596 117.252 53.5457C115.81 53.7676 113.48 55.2098 113.369 55.7646C112.37 55.5427 110.262 56.3193 109.042 57.3178M110.262 50.5502C111.372 51.5487 111.039 53.9894 109.597 55.3208C108.931 56.3193 108.82 57.7616 109.264 58.2053C110.151 58.982 110.706 61.3118 110.151 62.7541M106.268 65.9715C104.382 63.1979 103.162 59.4257 106.046 54.7661C108.043 52.9909 110.151 50.883 110.151 50.5502M99.5007 73.4048C99.0569 76.4003 102.385 78.3973 106.046 77.3988M101.165 70.7421C100.832 72.4063 102.607 74.0704 104.715 74.1814M103.273 67.6356C103.162 70.5202 106.157 71.9625 109.153 70.6312M83.3027 49.6626C84.1903 50.1064 85.5216 49.9954 85.8545 49.5517M81.4167 48.3313C82.3042 48.4422 83.4137 48.4422 83.8575 48.3313C84.3012 48.2203 85.4107 48.2203 85.7435 48.3313C86.4092 48.4422 87.1858 48.4422 87.5186 48.1094" stroke="#292526" stroke-width="1.62" stroke-miterlimit="22.926"/>
<path fill-rule="evenodd" clip-rule="evenodd" d="M17.2337 -0.00146484L14.7787 2.4527L12.8186 0.414863L12.587 0.174049L12.2528 0.174049L0.785009 0.174048L9.36371e-06 0.174048L9.32939e-06 0.959052L8.83707e-06 12.2219L8.82286e-06 12.5472L0.230022 12.7771L2.29014 14.8365L0.230022 16.896L8.62271e-06 17.1259L8.60849e-06 17.4511L8.10738e-06 28.9152L8.07307e-06 29.7002H0.785008L12.0516 29.7002H12.3767L12.6066 29.4703L14.6671 27.4105L17.3794 30.1219L14.7294 32.771L12.8186 30.7845L12.587 30.5436H12.2528L0.785008 30.5436H8.03621e-06L8.00189e-06 31.3286L7.50957e-06 42.5915L7.49525e-06 42.919L0.232761 43.1494L2.30028 45.196L0.230022 47.2656L7.29521e-06 47.4955L7.28099e-06 47.8207L6.77988e-06 59.2848L6.74557e-06 60.0698H0.785007H12.0516H12.3767L12.6066 59.8399L14.7174 57.7299L17.3794 60.3909L14.7294 63.04L12.8186 61.0535L12.587 60.8127H12.2528H0.785007H6.7131e-06L6.67879e-06 61.5977L6.18647e-06 72.8606L6.17215e-06 73.1881L0.23276 73.4185L2.30027 75.465L0.230019 77.5346L5.97212e-06 77.7645L5.9579e-06 78.0898L5.45679e-06 89.5538L5.42248e-06 90.3388H0.785005H12.0516H12.3767L12.6066 90.109L14.6671 88.0492L17.3794 90.7605L14.7787 93.3604L12.8186 91.3225L12.587 91.0817H12.2528H0.785005H5.39e-06L5.35569e-06 91.8667L4.86337e-06 103.13L4.84906e-06 103.457L0.232759 103.687L2.30028 105.734L0.230018 107.804L4.64902e-06 108.034L4.6348e-06 108.359L4.13369e-06 119.823L4.09938e-06 120.608H0.785004H12.0516H12.3767L12.6066 120.378L14.6671 118.318L17.3794 121.03L14.7787 123.629L12.8186 121.592L12.587 121.351H12.2528H0.785004H4.0669e-06L4.03258e-06 122.136L3.54026e-06 133.399L3.52596e-06 133.726L0.232757 133.957L2.30028 136.003L0.230018 138.073L3.32591e-06 138.303L3.3117e-06 138.628L2.81498e-06 149.991L2.78067e-06 150.776H0.785003H12.0516H12.3767L12.6066 150.546L14.6168 148.537L17.3794 151.299L14.7294 153.948L12.8186 151.961L12.587 151.72H12.2528H0.785003H2.7394e-06L2.70508e-06 152.505L2.21278e-06 163.768L2.19846e-06 164.096L0.232756 164.326L2.30027 166.373L0.230013 168.442L1.99841e-06 168.672L1.9842e-06 168.997L0 180.461V181.246H0.785001H12.0516H12.3767L12.6066 181.017L14.7174 178.907L17.3794 181.568L14.7787 184.167L12.8186 182.13L12.587 181.889H12.2528H0.785001H0V182.674V193.937V194.262L0.230014 194.492L3.24786 197.509L4.35784 196.398L1.57 193.611L1.57 183.459H11.9187L13.6682 185.278L10.9954 187.95L10.5947 187.549L10.3564 187.311L10.0196 187.319L6.09642 187.42L5.33154 187.44V188.205V191.825V192.15L5.56155 192.38L10.7925 197.609L11.3976 197.004L11.6007 197.207L14.7567 194.052L16.7168 196.09L16.9484 196.331H17.2826L28.7504 196.331H29.5354V195.546V184.283V183.955L29.3027 183.725L26.9824 181.428L29.2048 179.207L29.4348 178.977V178.651V167.388V166.603L28.6498 166.603H17.3832H17.0581L16.8282 166.833L14.6671 168.994L12.1057 166.433L14.7567 163.783L16.7168 165.821L16.9484 166.062H17.2826L28.7504 166.062H29.5354V165.277V154.014V153.686L29.3027 153.456L26.9824 151.159L29.2048 148.937L29.4348 148.708V148.382V137.119V136.334L28.6498 136.334H17.3832H17.0581L16.8282 136.564L14.7174 138.674L12.1057 136.064L14.7567 133.413L16.7168 135.451L16.9484 135.692H17.2826H28.7504L29.5354 135.692V134.907V123.644V123.317L29.3027 123.086L27.033 120.84L29.2048 118.668L29.4348 118.439V118.113L29.4348 106.85V106.065H28.6498H17.3832H17.0581L16.8282 106.295L14.7174 108.405L12.1057 105.794L14.7567 103.144L16.7168 105.182L16.9485 105.423H17.2826H28.7504H29.5354V104.638V93.3751V93.0476L29.3027 92.8172L26.9824 90.5205L29.2048 88.2989L29.4348 88.0689V87.7437V76.4808V75.6958H28.6498H17.3832H17.0581L16.8282 75.9256L14.6671 78.086L12.1057 75.5255L14.7567 72.8754L16.7168 74.9132L16.9485 75.154H17.2826H28.7504H29.5354V74.369L29.5354 63.1061V62.7786L29.3027 62.5482L26.9824 60.2515L29.2048 58.0298L29.4348 57.7999V57.4746V46.2118V45.4268H28.6498H17.3832H17.0581L16.8282 45.6566L14.6671 47.8169L12.1057 45.2564L14.7567 42.6063L16.7168 44.6441L16.9485 44.885H17.2826H28.7504H29.5354V44.1V32.8371V32.5096L29.3027 32.2792L27.033 30.0325L29.2048 27.8614L29.4348 27.6314V27.3062L29.4348 15.9427V15.1577H28.6498L17.3832 15.1577H17.0581L16.8282 15.3875L14.7174 17.4976L12.1057 14.8868L14.7567 12.2367L16.7168 14.2746L16.9485 14.5154H17.2826L28.7504 14.5154H29.5354V13.7304V2.46748V2.13998L29.3027 1.90958L27.3721 -0.00146484H25.1404L27.9654 2.79498V12.9454L17.6167 12.9454L15.8673 11.1265L18.4394 8.55524L18.9407 9.05634L19.179 9.29455L19.5158 9.28591L23.439 9.18534L24.2039 9.16573V8.4006L24.2039 4.78039V4.45515L23.9739 4.22521L19.7458 -0.00146484H17.2337ZM19.8124 7.70779L19.5498 7.44527L22.262 4.7339L22.6339 5.10562V7.63547L19.8124 7.70779ZM18.4897 0.962844L21.1517 3.62392L10.9954 13.7769L8.33343 11.1158L18.4897 0.962844ZM9.93536 7.29443L7.22309 10.0058L6.90155 9.68436V7.1545L9.72305 7.08219L9.93536 7.29443ZM13.6682 3.56287L11.0457 6.18445L10.5947 5.73363L10.3564 5.49544L10.0196 5.50407L6.09643 5.60463L5.33155 5.62423V6.38937V10.0096V10.3348L5.56156 10.5648L13.6071 18.6076L10.9451 21.2687L1.57001 11.8967L1.57001 1.74405L11.9187 1.74405L13.6682 3.56287ZM7.14939 19.6942L9.83476 22.3787L9.51348 22.6998L6.80095 22.6998V20.0108L7.14939 19.6942ZM3.40048 15.9465L6.03777 18.5829L5.488 19.0826L5.23095 19.3162V19.6635V23.4848L5.23095 24.2698H6.01595L9.83856 24.2698H10.1636L10.3935 24.04L17.7083 16.7277H27.8648V26.9809L25.9172 28.928L23.2926 26.33L24.0745 25.5484L24.3045 25.3185V24.9933V21.373V20.588H23.5195H19.5963H19.2712L19.0413 20.8179L11.7266 28.1302L1.57001 28.1302L1.57001 17.7764L3.40048 15.9465ZM22.7345 24.668L22.1768 25.2255L19.5017 22.5775L19.9214 22.158H22.7345V24.668ZM15.7775 26.3006L18.3914 23.6875L27.9654 33.1646V43.315H17.6167L15.8673 41.4961L18.4897 38.8745L18.9407 39.3254L19.179 39.5636L19.5158 39.5549L23.439 39.4544L24.2039 39.4348V38.6696V35.0494V34.7242L23.9739 34.4942L15.7775 26.3006ZM19.8124 37.9768L19.6001 37.7646L22.3123 35.0532L22.6339 35.3747V37.9045L19.8124 37.9768ZM18.4897 31.2319L21.202 33.9432L10.9954 44.1464L8.28313 41.4351L18.4897 31.2319ZM9.88506 37.6137L7.17279 40.3251L6.90155 40.0539V37.5241L9.72305 37.4518L9.88506 37.6137ZM13.6188 33.8812L10.9954 36.5038L10.5947 36.1032L10.3564 35.865L10.0196 35.8737L6.09643 35.9742L5.33155 35.9938V36.759V40.3792V40.7044L5.56156 40.9343L13.5568 48.9269L10.9419 51.5409L1.57001 42.264L1.57001 32.1136H11.9187L13.6188 33.8812ZM7.13213 49.9789L9.83152 52.6509L9.51348 52.9689H6.80094V50.2799L7.13213 49.9789ZM3.41609 46.3005L6.01477 48.8729L5.48799 49.3516L5.23095 49.5852V49.9325V53.7539V54.5389H6.01594H9.83856H10.1636L10.3935 54.309L17.7083 46.9968H27.8648V57.1494L25.8666 59.147L23.3432 56.6491L24.0745 55.918L24.3045 55.6881V55.3628V51.7426V50.9576H23.5195H19.5963H19.2712L19.0413 51.1875L11.7266 58.4998H1.57001L1.57001 48.146L3.41609 46.3005ZM22.7345 55.0376L22.2274 55.5446L19.5523 52.8966L19.9214 52.5276H22.7345V55.0376ZM15.8278 56.6199L18.4419 54.0066L27.9654 63.4336V73.584H17.6167L15.8673 71.7652L18.4897 69.1436L18.9407 69.5944L19.179 69.8326L19.5158 69.824L23.439 69.7234L24.2039 69.7038V68.9387V65.3185V64.9932L23.9739 64.7633L15.8278 56.6199ZM19.8124 68.2459L19.6001 68.0336L22.3123 65.3223L22.6339 65.6437V68.1735L19.8124 68.2459ZM18.4897 61.5009L21.202 64.2123L10.9954 74.4155L8.28313 71.7041L18.4897 61.5009ZM9.88507 67.8828L7.17279 70.5941L6.90155 70.323V67.7931L9.72305 67.7208L9.88507 67.8828ZM13.6188 64.1502L10.9954 66.7728L10.5947 66.3723L10.3564 66.1341L10.0196 66.1427L6.09643 66.2433L5.33155 66.2629V67.028L5.33155 70.6482V70.9735L5.56156 71.2034L13.5568 79.1959L10.9419 81.81L1.57001 72.5331L1.57001 62.3827H11.9187L13.6188 64.1502ZM7.13213 80.2479L9.83152 82.92L9.51349 83.2379H6.80094V80.5489L7.13213 80.2479ZM3.41609 76.5695L6.01477 79.1419L5.48799 79.6206L5.23094 79.8542V80.2016V84.0229V84.8079H6.01594H9.83856H10.1636L10.3935 84.5781L17.7083 77.2658H27.8648V87.4184L25.8666 89.416L23.3432 86.9181L24.0745 86.1871L24.3045 85.9571V85.6319V82.0117V81.2267H23.5195H19.5963H19.2712L19.0413 81.4565L11.7266 88.7688H1.57001L1.57001 78.415L3.41609 76.5695ZM22.7345 85.3066L22.2274 85.8136L19.5523 83.1656L19.9214 82.7967H22.7345L22.7345 85.3066ZM15.7775 86.9392L18.4419 84.2756L27.9654 93.7026L27.9654 103.853H17.6167L15.8673 102.034L18.4394 99.4629L18.9407 99.964L19.179 100.202L19.5158 100.194L23.439 100.093L24.2039 100.073V99.3083V95.688V95.3628L23.9739 95.1329L15.7775 86.9392ZM19.8124 98.6154L19.5498 98.3529L22.262 95.6416L22.6339 96.0133V98.5431L19.8124 98.6154ZM18.4897 91.8705L21.1517 94.5316L10.9954 104.685L8.33343 102.023L18.4897 91.8705ZM9.93535 98.2021L7.22309 100.913L6.90154 100.592L6.90154 98.0622L9.72304 97.9898L9.93535 98.2021ZM13.6682 94.4705L11.0457 97.0921L10.5947 96.6413L10.3564 96.4031L10.0196 96.4117L6.09643 96.5123L5.33154 96.5319V97.297L5.33154 100.917V101.242L5.56156 101.472L13.6071 109.515L10.9924 112.129L1.57 102.802L1.57001 92.6517H11.9187L13.6682 94.4705ZM7.1851 110.569L9.88207 113.239L9.51347 113.608H6.80094V110.919L7.1851 110.569ZM3.41609 106.839L6.06775 109.463L5.48799 109.99L5.23094 110.224V110.571L5.23094 114.393V115.178H6.01594H9.83856H10.1636L10.3935 114.948L17.7083 107.635H27.8648V117.788L25.9172 119.735L23.3432 117.187L24.0745 116.456L24.3045 116.226V115.901V112.281V111.496H23.5195H19.5963H19.2712L19.0413 111.726L11.7266 119.038H1.57L1.57 108.684L3.41609 106.839ZM22.7345 115.576L22.2274 116.083L19.5523 113.435L19.9214 113.066H22.7345V115.576ZM15.7775 117.208L18.4419 114.545L27.9654 123.972V134.122H17.6167L15.8673 132.303L18.4394 129.732L18.9407 130.233L19.179 130.471L19.5158 130.463L23.439 130.362L24.2039 130.342V129.577V125.957V125.632L23.9739 125.402L15.7775 117.208ZM19.8124 128.884L19.5498 128.622L22.262 125.911L22.6339 126.282L22.6339 128.812L19.8124 128.884ZM18.4897 122.14L21.1517 124.801L10.9954 134.954L8.33342 132.292L18.4897 122.14ZM9.93535 128.471L7.22308 131.182L6.90154 130.861V128.331L9.72304 128.259L9.93535 128.471ZM13.6682 124.74L11.0457 127.361L10.5947 126.91L10.3564 126.672L10.0196 126.681L6.09643 126.781L5.33154 126.801V127.566V131.186V131.512L5.56156 131.741L13.6071 139.784L10.9924 142.398L1.57 133.071L1.57 122.921H11.9187L13.6682 124.74ZM7.18509 140.838L9.88206 143.508L9.51347 143.877H6.80094L6.80094 141.188L7.18509 140.838ZM3.41609 137.108L6.06773 139.732L5.48799 140.259L5.23094 140.493V140.84L5.23094 144.662V145.447H6.01594H9.83856H10.1636L10.3935 145.217L17.7083 137.904H27.8648L27.8648 148.057L25.8666 150.055L23.2421 147.457L24.0745 146.625L24.3045 146.395V146.069V142.449V141.664H23.5195H19.5963H19.2712L19.0413 141.894L11.7266 149.206H1.57L1.57 138.953L3.41609 137.108ZM22.7345 145.744L22.1263 146.352L19.4512 143.704L19.9214 143.234H22.7345V145.744ZM15.7272 147.427L18.3408 144.814L27.9654 154.341V164.492H17.6167L15.8673 162.673L18.4897 160.051L18.9407 160.502L19.179 160.74L19.5158 160.732L23.439 160.631L24.2039 160.611V159.846V156.226V155.901L23.9739 155.671L15.7272 147.427ZM19.8124 159.154L19.6001 158.941L22.3123 156.23L22.6339 156.551V159.081L19.8124 159.154ZM18.4897 152.409L21.202 155.12L10.9954 165.323L8.28312 162.612L18.4897 152.409ZM9.88505 158.79L7.17279 161.502L6.90154 161.231V158.701L9.72304 158.628L9.88505 158.79ZM13.6188 155.058L10.9954 157.68L10.5947 157.28L10.3564 157.042L10.0196 157.05L6.09643 157.151L5.33154 157.171V157.936V161.556V161.881L5.56155 162.111L13.5568 170.104L10.9419 172.718L1.57 163.441L1.57 153.29H11.9187L13.6188 155.058ZM7.13213 171.156L9.83152 173.828L9.51347 174.146H6.80094V171.457L7.13213 171.156ZM3.41608 167.477L6.01479 170.05L5.48799 170.528L5.23094 170.762V171.109V174.931V175.716H6.01594H9.83855H10.1636L10.3935 175.486L17.7083 168.173H27.8648V178.326L25.8666 180.324L23.3432 177.826L24.0745 177.095L24.3045 176.865V176.54V172.919V172.134H23.5195H19.5963H19.2712L19.0413 172.364L11.7266 179.676H1.57L1.57 169.323L3.41608 167.477ZM22.7345 176.214L22.2274 176.721L19.5523 174.073L19.9214 173.704H22.7345V176.214ZM15.8277 177.797L18.4419 175.183L27.9654 184.61L27.9654 194.761H17.6167L15.8673 192.942L18.4897 190.32L18.9407 190.771L19.179 191.009L19.5158 191.001L23.439 190.9L24.2039 190.881V190.115V186.495V186.17L23.9739 185.94L15.8277 177.797ZM19.8124 189.423L19.6001 189.21L22.3124 186.499L22.6339 186.82V189.35L19.8124 189.423ZM18.4897 182.678L21.202 185.389L10.9954 195.592L8.28312 192.881L18.4897 182.678ZM9.88505 189.059L7.17278 191.771L6.90154 191.5V188.97L9.72303 188.898L9.88505 189.059Z" fill="#C12DD9"/>
</svg>
