<svg width="229" height="200" viewBox="0 0 229 200" fill="none" xmlns="http://www.w3.org/2000/svg">
<path d="M91 196V168.299C55.5523 165.222 27.7439 135.594 27.7439 99.5C27.7439 63.4056 55.5523 33.7783 91 30.7009V3C40.2146 6.13635 4.50917e-06 48.142 0 99.5C-4.50917e-06 150.858 40.2146 192.864 91 196Z" fill="#6442EE"/>
<path d="M147.759 57.109C148.158 56.3103 150.554 55.8111 152.451 56.1107M146.76 64.0977C146.461 60.5035 146.061 56.4102 145.962 55.911C147.16 53.2153 151.453 52.6163 154.448 54.6131M136.078 56.8095C138.174 54.4134 142.268 54.1139 144.364 56.2105C144.464 57.8079 144.764 62.6001 144.863 65.6951C144.863 66.394 145.962 66.4938 146.96 65.7949M137.775 57.8079C139.272 56.3103 142.367 56.3103 144.165 57.6082M148.058 59.9045C149.256 61.2024 152.152 60.8031 153.25 59.4053M138.074 60.7032C139.272 62.0011 142.168 61.6018 143.266 60.204M147.16 59.5052C148.358 57.4086 151.353 56.9094 153.549 58.2073M143.565 59.006C141.369 57.7081 138.374 58.2073 137.176 60.3039C136.677 62.7 139.173 68.8899 141.968 72.6838C144.065 75.7788 148.557 76.1781 151.053 73.4825M168.226 106.03C174.016 102.436 180.106 98.8414 180.306 98.9412M175.314 90.5548C171.321 92.4517 165.829 95.8462 164.332 97.1441C165.33 99.1409 167.527 102.236 168.725 103.334C170.122 102.336 175.414 99.2407 179.407 97.1441M162.235 116.912C162.135 112.819 163.533 105.531 164.931 102.236M179.108 152.355C180.506 150.957 181.704 152.754 183.401 152.155M163.932 128.793C164.432 131.488 174.715 143.868 184.599 153.453C183.601 155.15 181.504 152.854 180.206 153.653M158.941 127.495C158.941 127.894 159.14 128.493 159.24 128.793M158.242 120.207C157.044 117.811 157.942 115.514 160.039 115.614C162.036 115.714 163.333 117.91 162.635 120.706M163.533 125.798C160.238 124.999 155.945 125.598 154.947 126.996C154.648 127.495 154.947 128.094 155.546 128.194C156.644 127.695 159.739 127.395 161.836 127.595C164.731 129.592 169.823 130.989 172.019 130.49M154.348 126.397C153.949 126.197 153.849 125.598 154.148 125.199C155.346 123.501 160.139 122.902 163.733 124.001M153.949 124.5C153.449 124.3 153.35 123.601 153.849 123.002C155.846 121.405 160.638 121.105 163.533 122.303M169.723 121.305C172.618 121.505 175.813 124.3 176.113 126.896M169.523 122.004C171.82 122.902 174.216 126.397 174.116 128.893M153.949 121.804C155.346 120.207 159.839 119.708 163.034 120.806C163.733 120.606 166.928 121.505 169.523 122.703C171.52 124.2 172.718 128.194 171.92 130.59C174.515 129.991 181.105 121.105 185.298 113.018C184.1 101.138 170.622 81.0702 158.342 73.0831M171.92 98.3422C172.219 98.5419 172.618 98.442 172.718 98.0427C172.818 97.244 171.82 96.7448 171.121 97.4436C170.322 98.442 170.921 99.6401 172.219 99.7399C173.517 99.8398 174.615 98.3422 173.916 96.8446C173.417 95.7464 171.42 94.5483 169.124 95.0475M176.612 95.7464C176.712 96.1457 176.412 96.4453 176.013 96.4453C175.214 96.2456 175.114 95.1474 176.013 94.748C177.211 94.3487 178.109 95.347 177.81 96.6449C177.411 97.843 175.713 98.3422 174.515 97.1441C173.717 96.2456 173.317 93.9493 174.615 92.0524M135.379 106.529C135.578 105.83 135.079 105.331 134.281 105.331C132.983 105.63 132.683 107.627 134.281 108.426C136.477 109.125 137.975 107.328 137.376 105.131C136.677 102.935 133.582 102.136 131.485 104.233C130.786 104.932 130.087 106.229 129.988 107.727M169.723 99.6401C169.823 100.039 169.523 100.339 169.124 100.339C168.325 100.139 168.226 99.0411 169.124 98.6417C170.322 98.2423 171.221 99.2407 170.921 100.539C170.522 101.737 168.825 102.236 167.626 101.038C166.828 100.139 166.428 97.843 167.726 95.9461M145.263 68.7901C145.562 68.9898 146.461 68.9898 146.96 68.6903M144.664 71.0864C145.163 71.4857 146.86 71.3859 148.158 70.8867M143.565 69.6886C144.264 70.4873 146.96 70.2877 148.857 69.1894M145.163 81.5694C148.058 82.4679 153.449 82.3681 155.846 81.3697M143.266 79.1733C148.058 80.3713 154.348 80.3713 155.846 79.1733M155.546 74.1814C156.045 78.2747 155.846 85.9623 155.147 89.5564C156.644 89.0572 159.54 88.8576 160.738 89.0572M153.35 72.1846C154.348 75.3794 158.941 74.381 158.641 71.5856M154.448 79.6725C154.548 78.6741 154.049 76.0783 153.449 74.4809C153.15 73.183 153.25 71.3859 153.649 69.9882C154.548 68.3907 155.346 64.6967 155.446 63.4987C157.143 64.1975 158.441 58.6066 156.145 59.1058C157.044 56.7097 156.844 53.0157 155.746 51.6179M151.553 155.35C153.449 158.245 157.243 155.15 155.646 153.053M123.498 129.192C126.593 128.593 131.086 129.292 132.483 130.39M174.515 156.148C176.712 157.147 179.308 155.649 179.807 153.053M175.813 158.345C178.209 159.243 180.805 157.347 180.905 154.551C172.219 144.368 167.227 137.978 165.63 135.282M113.115 182.406C119.405 185.102 130.087 184.602 134.48 181.408M112.316 180.209C118.806 182.905 130.287 182.506 134.78 179.211M112.116 171.124C118.406 173.82 129.089 173.321 133.382 170.126M114.013 165.733C117.608 168.528 126.293 168.429 131.585 165.533M115.411 163.736C118.107 166.232 125.495 166.132 130.187 163.437M136.477 189.594C134.48 190.493 132.384 191.691 131.186 192.49C130.587 192.789 128.29 194.087 126.693 194.786C131.385 194.686 135.578 195.285 137.276 194.187C139.272 193.188 142.268 193.488 144.464 194.287C146.96 194.886 148.458 193.288 147.16 191.591C146.361 189.994 146.86 187.298 147.559 186.699M161.736 187.597C159.24 188.296 154.648 190.293 152.651 191.691C152.052 191.99 149.855 193.089 148.158 193.787C152.85 194.386 158.042 194.187 158.641 193.488C160.039 192.789 163.633 192.789 165.829 193.588C168.325 194.187 169.523 193.089 168.226 191.391C167.427 189.794 167.227 187.498 167.926 186.899M156.644 181.807C153.949 181.008 153.25 178.512 153.949 176.416C154.648 174.219 157.243 172.722 159.839 174.219M137.176 186.3C144.364 183.304 151.652 182.506 151.752 184.702C151.553 186.1 153.849 186.1 156.245 184.503C157.743 183.005 161.736 183.005 161.636 184.203C161.536 185.501 164.232 185.102 167.926 183.404C170.522 182.206 174.615 181.208 176.113 181.408M142.667 129.192C138.973 134.683 136.477 155.649 137.675 171.224C138.474 177.714 137.775 186.998 136.177 189.794C142.667 186.499 149.356 185.501 149.556 187.697C149.955 189.195 153.549 188.895 156.445 186.899C158.741 185.701 160.937 185.701 160.837 187.098C160.738 188.197 165.23 187.897 169.623 186.3C172.818 184.802 176.812 184.003 177.71 184.602C174.216 177.414 170.322 164.635 169.424 157.546C169.324 156.947 169.324 156.049 169.224 155.549M125.794 109.624C128.19 109.125 133.482 110.722 136.377 112.719M126.293 107.427C129.488 107.328 134.88 109.025 137.076 110.822M128.19 98.7415C132.284 99.1409 137.975 101.936 139.572 104.332M128.59 96.8446C132.384 96.7448 138.474 99.4404 140.77 102.136M140.77 76.9768C140.97 77.0767 141.269 77.2763 141.369 77.476C145.662 80.6708 150.354 90.0556 150.854 96.9445M168.026 81.4695C159.24 85.2634 153.35 104.832 156.145 120.506M158.242 72.9833C158.641 74.381 158.541 80.9704 158.142 85.9623C159.739 85.8624 162.135 85.8624 162.734 85.8624M138.274 75.3794C139.272 75.7788 140.071 74.7804 139.472 73.6822C138.574 72.2844 136.477 72.7836 136.078 74.381C135.578 76.1781 136.976 77.7755 138.773 77.6757C140.071 77.6757 141.369 76.6773 141.768 75.5791C142.268 74.4809 142.068 73.5823 142.068 72.7836M158.042 69.3891C156.944 69.6886 156.345 68.6903 156.744 67.592C157.643 66.1943 159.739 66.6935 160.238 68.3907C160.738 70.2877 159.44 71.7852 157.443 71.7852C155.546 71.7852 154.248 70.8867 154.049 68.7901M136.377 70.4873C137.376 70.9865 138.074 69.7885 137.575 68.7901C136.677 67.4922 134.68 67.8916 134.281 69.5888C133.781 71.3859 135.379 72.9833 136.976 72.8835C138.274 72.7836 139.472 71.9849 139.772 70.7869M145.962 6.09174C146.461 9.88559 147.26 25.9595 147.359 38.2396M144.464 6.09174C144.065 9.78576 143.965 25.66 144.165 37.8403M157.243 45.7275C158.841 43.6309 159.739 40.0367 159.739 37.8403C159.739 36.0432 158.142 35.9433 156.345 37.7404C155.846 38.2396 155.247 38.9385 154.847 39.5375C153.749 41.0351 152.152 42.4328 150.854 43.5311C149.256 44.8289 147.559 45.3281 146.561 45.2283M135.878 46.5262C134.281 44.4296 132.683 40.1366 132.783 37.9401C132.783 36.8419 133.582 36.3427 134.38 36.5424C134.979 36.6422 135.578 37.1414 136.277 37.8403C136.677 38.4393 137.176 38.9385 137.675 39.5375C138.873 41.0351 140.071 42.5327 141.269 43.5311C142.867 44.8289 144.165 45.2283 145.363 45.1285M159.44 46.1268C163.234 40.8354 165.829 33.4474 163.733 30.3524C161.736 26.7582 156.544 29.2542 153.549 33.6471C151.353 36.7421 148.557 38.5391 146.061 38.4393M133.881 47.6244C130.087 42.333 127.591 33.8467 129.688 30.7518C131.685 27.1576 136.777 28.5553 139.472 33.1479C141.369 36.4425 143.466 38.1398 145.962 38.4393M155.047 50.8192C151.752 46.9255 142.667 47.4247 136.976 51.7178C135.479 52.6163 134.979 55.2121 135.978 56.9094C136.177 57.6082 136.777 59.4053 137.076 60.4037M136.078 64.0977C135.578 66.394 136.876 68.7901 138.574 68.7901M134.48 57.7081C133.182 60.1042 134.38 63.4987 136.876 64.3972M135.279 58.6066C130.886 54.6131 130.686 48.6228 135.179 46.8257C139.073 45.1285 150.654 44.6293 158.441 45.8273C162.335 46.8257 160.139 52.4166 156.844 50.6196M134.58 28.9547C139.073 -2.29466 151.453 -1.59579 157.343 29.8532M169.424 122.703C169.923 119.109 171.92 112.719 173.417 109.824C169.024 107.827 163.134 101.038 161.636 96.3454C164.532 94.0491 170.721 90.3551 173.916 88.8576M133.182 83.3665C141.469 83.666 147.958 106.329 146.061 128.693M123.398 131.788C124.796 106.03 132.084 78.9736 137.875 77.6757M132.184 132.986C132.783 123.601 137.475 107.328 141.669 100.439M123.997 132.387C123.099 131.988 123.298 131.488 124.397 131.389C126.992 131.189 130.487 131.688 131.285 132.287C132.384 132.786 132.384 133.485 131.285 133.685M130.487 140.973C130.686 141.772 130.587 143.269 130.187 143.968M123.798 145.765C121.501 142.97 121.102 137.279 122.999 134.384C123.698 133.286 124.397 131.888 124.297 131.488M124.896 147.163C123.199 146.364 122.699 141.672 123.798 138.277M126.493 149.559C124.297 147.862 124.197 142.471 126.293 138.976M127.392 151.456C125.495 149.359 125.994 143.469 128.29 139.675M130.587 145.665C132.483 144.667 133.582 139.675 132.384 136.58C131.485 134.783 130.886 132.587 131.086 132.187M130.886 138.377C131.186 139.975 130.287 141.372 129.888 141.872C128.989 142.97 127.991 145.066 127.991 146.364C127.991 149.959 127.092 154.651 125.894 155.949C125.195 152.554 124.197 150.358 123.698 148.96C123.099 147.762 122.899 146.364 123.598 145.665M171.82 161.739C174.216 160.841 175.913 158.644 175.214 157.446M159.839 131.189C141.169 135.382 136.777 126.297 137.775 109.125C137.675 125.498 144.664 132.886 159.14 128.593C159.34 129.891 165.33 147.163 173.018 164.435C175.015 163.237 176.812 160.741 176.512 159.443C170.821 150.358 163.333 136.48 161.536 131.588M122.3 142.57C122 142.67 121.701 142.87 121.302 143.469C119.804 140.674 115.711 137.479 113.215 137.079C112.815 138.078 111.917 138.976 110.719 140.174C119.804 142.071 122.1 153.752 115.311 163.537C109.021 173.321 111.018 185.8 119.405 188.396C119.005 189.395 118.107 190.493 117.308 191.291C119.505 192.39 125.694 192.49 129.189 190.992C128.29 190.093 127.492 188.596 127.591 188.097C135.778 187.098 137.176 175.018 130.387 163.936C129.289 162.438 127.991 160.042 127.891 159.144C130.786 154.152 131.585 145.466 129.189 142.471M145.263 5.99191C146.66 5.99191 147.759 4.89369 147.759 3.49595C147.759 2.09822 146.66 1 145.263 1C143.865 1 142.767 2.09822 142.767 3.49595C142.767 4.89369 143.965 5.99191 145.263 5.99191Z" stroke="#292526" stroke-miterlimit="22.926"/>
<path fill-rule="evenodd" clip-rule="evenodd" d="M140.871 58.4062C141.669 60.5029 138.574 60.9022 138.674 58.9054C139.173 58.7058 140.072 58.5061 140.871 58.4062Z" fill="#292526"/>
<path d="M140.871 58.4062C141.669 60.5029 138.574 60.9022 138.674 58.9054C139.173 58.7058 140.072 58.5061 140.871 58.4062Z" stroke="#292526" stroke-miterlimit="22.926"/>
<path fill-rule="evenodd" clip-rule="evenodd" d="M150.855 57.6094C151.654 59.706 148.559 60.1053 148.659 58.1086C149.158 57.9089 150.056 57.6094 150.855 57.6094Z" fill="#292526"/>
<path d="M150.855 57.6094C151.654 59.706 148.559 60.1053 148.659 58.1086C149.158 57.9089 150.056 57.6094 150.855 57.6094Z" stroke="#292526" stroke-miterlimit="22.926"/>
<path d="M164.235 155.849C164.635 157.347 166.731 158.046 168.429 157.347C166.232 156.848 165.134 154.252 164.735 152.155M145.366 153.753C146.464 155.25 148.461 155.051 149.559 153.154M150.358 146.065C143.07 147.463 144.068 155.849 142.071 157.147C144.567 157.147 146.264 155.45 145.466 153.753M150.058 138.278C150.058 141.073 146.564 142.471 145.066 140.374C146.165 142.671 143.868 144.967 140.474 144.967C143.269 143.17 141.173 134.684 149.06 134.684M150.757 153.852C148.96 157.047 153.752 160.542 156.747 156.848M163.836 158.046C159.343 159.543 159.543 168.03 165.134 167.231M164.235 160.142C170.425 160.442 171.923 167.83 166.831 170.525M170.425 172.622C174.019 174.818 173.321 180.01 169.826 181.208M138.777 171.124C141.472 174.818 147.263 171.025 144.467 167.031M152.255 166.232C156.448 165.833 158.445 171.025 155.35 173.321M115.315 183.305C115.414 184.004 116.014 185.301 116.413 185.801M117.811 183.804C117.91 184.702 118.31 185.801 118.509 186M120.207 184.103C120.207 184.802 120.506 185.801 120.606 186.1M132.087 182.606C131.888 183.604 131.488 184.802 131.289 185.002M129.691 183.504C129.691 184.103 129.392 185.102 129.192 185.601M127.495 183.804C127.595 184.403 127.395 185.401 127.195 185.801M125.099 184.203C125.199 184.702 125.199 185.601 125.099 186M122.603 184.203C122.603 184.603 122.603 185.501 122.803 186M111.82 172.922C118.909 175.917 129.991 175.517 133.984 172.023M119.009 170.725C119.308 171.624 120.207 172.323 121.305 172.323C122.902 172.422 124.1 171.224 123.801 169.727C123.302 168.129 121.105 168.03 120.806 169.427C120.506 170.525 121.604 171.224 122.403 170.625C122.703 170.326 122.703 169.827 122.403 169.627M139.475 152.854C137.678 151.456 137.279 148.561 139.176 146.964C141.372 145.366 144.168 147.663 143.169 149.759C142.371 151.456 140.274 151.257 139.875 149.659C139.775 148.96 140.274 148.262 140.973 148.461M156.548 136.68C157.746 135.782 157.946 133.785 156.747 132.787C155.25 131.788 153.453 133.286 154.052 134.684C154.551 135.782 155.949 135.682 156.248 134.584C156.348 134.085 155.949 133.685 155.549 133.785M161.939 137.18C161.54 136.78 160.841 136.481 160.342 136.281C158.545 135.682 156.348 136.181 155.35 137.978C154.152 140.674 157.147 143.17 159.144 141.772C160.741 140.574 160.142 138.378 158.345 138.278C157.546 138.378 156.947 138.977 157.247 139.675M161.839 149.559C160.042 151.157 156.747 150.957 155.45 148.661C154.252 145.965 157.247 143.469 159.243 144.867C160.841 146.065 160.242 148.262 158.445 148.361C157.646 148.262 157.047 147.663 157.347 146.964M144.268 181.707C142.87 182.905 140.474 182.806 139.575 181.008C138.677 179.012 140.873 177.115 142.371 178.213C143.569 179.112 143.07 180.709 141.772 180.809C141.173 180.809 140.773 180.21 140.973 179.81M144.667 175.318C143.769 176.516 143.769 180.01 145.366 181.208C146.364 182.107 148.161 182.007 148.86 180.709C149.559 179.211 147.862 177.814 146.764 178.612C145.865 179.311 146.165 180.509 147.163 180.509C147.562 180.509 147.962 180.11 147.762 179.711M147.363 170.825C146.464 172.023 146.464 175.517 148.062 176.715C149.06 177.614 150.857 177.514 151.556 176.216C152.255 174.719 150.558 173.321 149.459 174.12C148.561 174.818 148.86 176.017 149.859 176.017C150.258 176.017 150.657 175.617 150.458 175.218M139.376 166.532C140.873 166.532 143.569 164.236 143.469 162.239C143.469 160.841 142.271 159.543 140.773 159.843C139.176 160.242 139.176 162.439 140.574 162.838C141.672 163.137 142.371 162.039 141.772 161.241C141.472 160.941 140.973 160.941 140.773 161.241M145.066 159.144C144.168 160.342 144.368 163.836 146.065 165.034C147.163 165.833 148.86 165.733 149.559 164.335C150.158 162.838 148.461 161.54 147.363 162.339C146.464 163.038 146.864 164.236 147.862 164.236C148.261 164.136 148.561 163.736 148.461 163.437M144.867 145.666C147.662 146.265 152.754 143.669 152.954 139.076C153.153 136.281 151.057 134.584 148.561 134.783C145.865 135.183 145.466 138.877 147.662 139.675C149.459 140.274 150.757 138.677 149.958 137.279C149.459 136.68 148.661 136.58 148.361 137.18M158.345 159.344C157.047 161.939 158.145 167.43 162.538 168.928C165.234 169.827 167.43 168.329 167.929 165.833C168.229 163.137 164.834 161.74 163.437 163.637C162.338 165.134 163.536 166.931 165.134 166.432C165.833 166.133 166.132 165.334 165.633 164.835M163.237 149.26C164.934 150.558 165.733 155.15 163.337 156.947C162.039 158.046 159.942 158.146 158.844 156.548C157.746 154.751 159.643 152.754 161.14 153.653C162.338 154.352 162.139 155.849 160.841 156.149C160.242 156.149 159.842 155.749 159.942 155.25M154.052 146.265C152.155 145.167 147.662 146.265 146.963 149.16C146.464 150.757 147.263 152.754 149.06 153.154C151.057 153.453 152.255 150.957 150.857 149.859C149.759 149.06 148.461 149.859 148.661 151.057C148.86 151.556 149.459 151.856 149.759 151.456M149.859 158.245C149.26 159.743 150.458 163.337 152.554 164.136C153.952 164.735 155.749 164.036 156.049 162.439C156.248 160.641 154.052 159.743 153.153 161.041C152.454 162.039 153.253 163.137 154.252 162.838C154.751 162.638 154.851 162.139 154.651 161.84M165.034 169.028C163.437 170.625 162.838 176.216 165.034 178.413C166.432 179.91 169.227 180.11 170.525 178.213C171.823 176.017 169.427 173.62 167.63 174.719C166.132 175.617 166.532 177.514 168.029 177.714C168.728 177.714 169.227 177.215 169.028 176.616M162.239 172.622C163.437 173.92 163.936 178.113 162.139 179.81C161.041 181.008 158.944 181.108 157.846 179.611C156.847 177.913 158.644 176.017 160.142 176.915C161.24 177.614 161.041 179.112 159.842 179.311C159.343 179.311 158.844 178.912 159.044 178.413M149.359 165.833C148.461 167.031 148.461 170.525 150.058 171.724C151.057 172.622 152.854 172.522 153.553 171.224C154.252 169.727 152.554 168.329 151.456 169.128C150.558 169.827 150.857 171.025 151.855 171.025C152.255 171.025 152.654 170.625 152.454 170.226M123.801 169.827C124.1 168.928 124.999 168.229 126.097 168.229C127.695 168.129 128.793 169.228 128.493 170.725C127.994 172.223 125.897 172.323 125.598 171.025C125.298 169.926 126.397 169.228 127.195 169.827C127.495 170.126 127.495 170.625 127.195 170.825M127.894 168.529C128.194 167.73 128.992 167.231 129.891 167.231C131.389 167.131 132.387 168.229 132.187 169.527C131.688 170.925 129.791 171.025 129.392 169.727C129.192 168.728 130.091 168.029 130.889 168.629C131.189 168.928 131.189 169.327 130.889 169.527M114.017 168.529C113.518 170.226 114.716 171.823 116.513 171.823C118.21 171.923 119.508 170.725 119.208 169.028C118.609 167.331 116.313 167.231 115.914 168.728C115.614 169.926 116.712 170.725 117.611 170.026C118.01 169.727 118.01 169.128 117.611 168.928M129.292 98.9415C131.189 99.84 132.287 102.536 131.389 104.433M128.593 100.739C130.29 101.837 130.59 104.532 129.192 106.13M131.988 108.326C131.788 105.032 134.683 103.734 135.981 105.431M149.559 82.0688C149.659 83.3667 149.559 87.4601 149.459 90.3554M151.756 82.0688C151.756 83.4666 151.855 87.1606 151.955 89.5567M150.558 94.5486C151.157 90.3554 153.752 84.3651 155.749 82.4682M159.443 55.6117C160.841 60.8033 158.445 63.2993 156.847 67.6921M159.643 50.3203C161.739 51.5184 160.841 56.3106 157.846 55.8114M143.469 132.487C143.968 132.487 144.368 132.886 144.368 133.386C144.368 133.885 143.968 134.284 143.469 134.284C142.97 134.284 142.57 133.885 142.57 133.386C142.57 132.886 142.97 132.487 143.469 132.487ZM168.928 170.525C169.427 170.525 169.826 170.925 169.826 171.424C169.826 171.923 169.427 172.323 168.928 172.323C168.429 172.323 168.029 171.923 168.029 171.424C167.929 171.025 168.429 170.525 168.928 170.525ZM141.472 167.43C142.171 167.43 142.77 168.03 142.77 168.728C142.77 169.427 142.171 170.026 141.472 170.026C140.773 170.026 140.174 169.427 140.174 168.728C140.174 168.03 140.773 167.43 141.472 167.43ZM131.888 175.917C132.287 175.917 132.686 176.316 132.686 176.815C132.686 177.314 132.387 177.714 131.888 177.714C131.488 177.714 131.089 177.314 131.089 176.815C131.189 176.316 131.488 175.917 131.888 175.917ZM126.297 177.414C126.796 177.414 127.195 177.814 127.195 178.313C127.195 178.812 126.796 179.211 126.297 179.211C125.798 179.211 125.398 178.812 125.398 178.313C125.398 177.814 125.798 177.414 126.297 177.414ZM114.416 176.316C114.815 176.316 115.215 176.715 115.215 177.215C115.215 177.714 114.915 178.113 114.416 178.113C113.917 178.113 113.617 177.714 113.617 177.215C113.617 176.715 113.917 176.316 114.416 176.316ZM120.007 177.514C120.506 177.514 120.906 177.913 120.906 178.413C120.906 178.912 120.506 179.311 120.007 179.311C119.508 179.311 119.108 178.912 119.108 178.413C119.108 177.814 119.508 177.514 120.007 177.514ZM131.888 174.12C133.186 174.12 134.284 175.318 134.284 176.915C134.284 178.413 133.186 179.711 131.888 179.711C130.59 179.711 129.492 178.513 129.492 176.915C129.492 175.318 130.59 174.12 131.888 174.12ZM126.297 175.617C127.794 175.617 129.092 176.815 129.092 178.413C129.092 179.91 127.894 181.208 126.297 181.208C124.799 181.208 123.501 180.01 123.501 178.413C123.501 176.815 124.699 175.617 126.297 175.617ZM114.416 174.519C115.714 174.519 116.812 175.717 116.812 177.314C116.812 178.812 115.714 180.11 114.416 180.11C113.118 180.11 112.02 178.912 112.02 177.314C111.92 175.717 113.018 174.519 114.416 174.519ZM120.007 175.617C121.505 175.617 122.803 176.815 122.803 178.413C122.803 179.91 121.604 181.208 120.007 181.208C118.509 181.208 117.212 180.01 117.212 178.413C117.212 176.915 118.509 175.617 120.007 175.617Z" stroke="#292526" stroke-miterlimit="22.926"/>
<path fill-rule="evenodd" clip-rule="evenodd" d="M216.107 2.66235L213.665 5.10351L211.714 3.07533L211.482 2.83451L211.148 2.83451L199.723 2.83451L198.938 2.83451L198.938 3.61951L198.938 14.8408L198.938 15.1661L199.168 15.396L201.218 17.4458L199.168 19.4956L198.938 19.7255L198.938 20.0507L198.938 31.4724L198.938 32.2574H199.723L210.948 32.2574H211.273L211.503 32.0276L213.553 29.9775L216.252 32.6747L213.615 35.3099L211.714 33.3328L211.482 33.092H211.148L199.723 33.092H198.938L198.938 33.877L198.938 45.0983L198.938 45.4258L199.17 45.6562L201.228 47.6932L199.168 49.7531L198.938 49.983L198.938 50.3082L198.938 61.7299L198.938 62.515H199.723H210.948H211.273L211.503 62.2851L213.603 60.1849L216.252 62.832L213.615 65.4672L211.714 63.4901L211.482 63.2493H211.148H199.723H198.938L198.938 64.0343L198.938 75.2556L198.938 75.5832L199.17 75.8136L201.228 77.8505L199.168 79.9104L198.938 80.1403L198.938 80.4655L198.938 91.8873L198.938 92.6722H199.723H210.948H211.273L211.503 92.4424L213.553 90.3923L216.252 93.0895L213.665 95.6756L211.714 93.6474L211.482 93.4066H211.148H199.723H198.938L198.938 94.1916L198.938 105.413L198.938 105.74L199.17 105.971L201.228 108.008L199.168 110.068L198.938 110.298L198.938 110.623L198.938 122.045L198.938 122.83H199.723H210.948H211.273L211.503 122.6L213.553 120.55L216.252 123.247L213.665 125.833L211.714 123.805L211.482 123.564H211.148H199.723H198.938L198.938 124.349L198.938 135.57L198.938 135.898L199.17 136.128L201.228 138.165L199.168 140.225L198.938 140.455L198.938 140.78L198.938 152.102L198.938 152.887H199.723H210.948H211.273L211.503 152.657L213.503 150.657L216.252 153.404L213.615 156.039L211.714 154.062L211.482 153.821H211.148H199.723H198.938L198.938 154.606L198.938 165.828L198.938 166.155L199.17 166.386L201.228 168.423L199.168 170.482L198.938 170.712L198.938 171.038L198.938 182.459V183.244H199.723H210.948H211.273L211.503 183.015L213.603 180.914L216.252 183.561L213.665 186.148L211.714 184.119L211.482 183.879H211.148H199.723H198.938V184.664V195.885V196.21L199.168 196.44L202.174 199.446L203.284 198.335L200.508 195.56L200.508 185.449H210.814L212.554 187.258L209.895 189.916L209.498 189.519L209.26 189.28L208.923 189.289L205.014 189.389L204.249 189.409L204.249 190.174V193.781V194.106L204.479 194.336L209.691 199.546L210.296 198.941L210.5 199.145L213.643 196.004L215.593 198.032L215.825 198.273H216.159H227.585H228.37V197.488V186.267V185.939L228.137 185.709L225.827 183.423L228.039 181.211L228.269 180.981V180.656V169.435V168.65H227.484H216.259H215.934L215.704 168.879L213.553 171.03L211.006 168.483L213.643 165.847L215.593 167.875L215.825 168.116H216.159H227.585H228.37V167.331V156.109L228.37 155.782L228.137 155.551L225.827 153.265L228.039 151.054L228.269 150.824V150.499L228.269 139.277V138.492H227.484H216.259H215.934L215.704 138.722L213.603 140.822L211.006 138.225L213.643 135.589L215.593 137.617L215.825 137.858H216.159H227.585H228.37V137.073V125.852V125.524L228.137 125.294L225.878 123.058L228.039 120.896L228.269 120.667V120.341V109.12V108.335H227.484H216.259H215.934L215.704 108.565L213.603 110.665L211.006 108.068L213.643 105.432L215.593 107.46L215.825 107.701H216.159H227.585H228.37V106.916V95.6945V95.367L228.137 95.1366L225.827 92.8504L228.039 90.639L228.269 90.4091V90.0838V78.8625V78.0775H227.484H216.259H215.934L215.704 78.3073L213.553 80.4577L211.006 77.9107L213.643 75.2745L215.593 77.3027L215.825 77.5435H216.159H227.585H228.37V76.7585L228.37 65.5372V65.2097L228.137 64.9793L225.827 62.6931L228.039 60.4817L228.269 60.2518V59.9265L228.269 48.7052V47.9202H227.484H216.259H215.934L215.704 48.15L213.553 50.3004L211.006 47.7534L213.643 45.1172L215.593 47.1454L215.825 47.3862H216.159H227.585H228.37V46.6012V35.3799V35.0524L228.137 34.822L225.878 32.5856L228.039 30.4246L228.269 30.1946V29.8694V18.5479V17.7629H227.484L216.259 17.7629H215.934L215.704 17.9927L213.603 20.093L211.006 17.4959L213.643 14.8597L215.593 16.8879L215.825 17.1287H216.159L227.585 17.1287H228.37V16.3437V5.12237V4.79487L228.137 4.56447L226.215 2.66235H223.984L226.8 5.44987V15.5587L216.493 15.5587L214.753 13.7495L217.312 11.1918L217.809 11.689L218.047 11.9272L218.384 11.9185L222.293 11.8183L223.058 11.7987V11.0336V7.42674V7.10151L222.828 6.87157L218.617 2.66235H216.107ZM218.681 10.3404L218.422 10.0818L221.12 7.38453L221.488 7.75198V10.2685L218.681 10.3404ZM217.362 3.6274L220.01 6.27455L209.895 16.3859L207.247 13.7387L217.362 3.6274ZM208.835 9.9315L206.137 12.6288L205.819 12.3114V9.79492L208.626 9.72298L208.835 9.9315ZM212.554 6.21368L209.945 8.82153L209.498 8.37443L209.26 8.13622L208.923 8.14486L205.014 8.24505L204.249 8.26466V9.02979V12.6366V12.9619L204.479 13.1918L212.493 21.2029L209.845 23.8501L200.508 14.5156L200.508 4.40451L210.814 4.40451L212.554 6.21368ZM206.063 22.2895L208.735 24.9601L208.418 25.2772L205.719 25.2772V22.6023L206.063 22.2895ZM202.328 18.5558L204.952 21.1782L204.406 21.674L204.149 21.9076V22.2549V26.0622L204.149 26.8472H204.934L208.743 26.8472H209.068L209.298 26.6173L216.585 19.3329H226.699V29.5442L224.762 31.4811L222.151 28.8968L222.928 28.1202L223.158 27.8903V27.565V23.9582V23.1732H222.373H218.464H218.139L217.909 23.403L210.622 30.6874L200.508 30.6874L200.508 20.376L202.328 18.5558ZM221.588 27.2398L221.035 27.7923L218.374 25.1582L218.789 24.7432H221.588V27.2398ZM214.664 28.8675L217.264 26.2682L226.8 35.7074V45.8162H216.493L214.753 44.007L217.362 41.3992L217.809 41.8463L218.047 42.0845L218.384 42.0758L222.293 41.9757L223.058 41.9561V41.1909V37.5841V37.2588L222.828 37.0289L214.664 28.8675ZM218.681 40.4977L218.472 40.2892L221.17 37.5919L221.488 37.9093V40.4258L218.681 40.4977ZM217.362 33.7847L220.06 36.482L209.895 46.6434L207.197 43.9461L217.362 33.7847ZM208.785 40.1389L206.087 42.8362L205.819 42.5689V40.0524L208.626 39.9805L208.785 40.1389ZM212.505 36.4201L209.895 39.0289L209.498 38.6319L209.26 38.3937L208.923 38.4024L205.014 38.5025L204.249 38.5221V39.2873V42.8941V43.2194L204.479 43.4493L212.443 51.4103L209.842 54.0106L200.508 44.7708L200.508 34.662L210.814 34.662L212.505 36.4201ZM206.046 52.4624L208.732 55.1206L208.418 55.4345H205.719V52.7596L206.046 52.4624ZM202.344 48.7977L204.929 51.3564L204.406 51.8313L204.149 52.0649V52.4122V56.2195V57.0045H204.934H208.743H209.068L209.298 56.7746L216.585 49.4902H226.699V59.6013L224.712 61.5886L222.202 59.104L222.928 58.3777L223.158 58.1478V57.8225V54.2157V53.4307H222.373H218.464H218.139L217.909 53.6605L210.622 60.9449H200.508L200.508 50.6335L202.344 48.7977ZM221.588 57.4973L221.086 57.9995L218.425 55.3654L218.789 55.0007H221.588V57.4973ZM214.714 59.0749L217.314 56.4753L226.8 65.8647V75.9735H216.493L214.753 74.1643L217.362 71.5565L217.809 72.0036L218.047 72.2418L218.384 72.2332L222.293 72.133L223.058 72.1134V71.3482V67.7414V67.4161L222.828 67.1862L214.714 59.0749ZM218.681 70.655L218.472 70.4465L221.17 67.7492L221.488 68.0666V70.5831L218.681 70.655ZM217.362 63.942L220.06 66.6393L209.895 76.8007L207.197 74.1035L217.362 63.942ZM208.785 70.2962L206.087 72.9935L205.819 72.7262V70.2097L208.626 70.1378L208.785 70.2962ZM212.505 66.5774L209.895 69.1862L209.498 68.7892L209.26 68.551L208.923 68.5597L205.014 68.6599L204.249 68.6795V69.4446L204.249 73.0515V73.3767L204.479 73.6066L212.443 81.5676L209.842 84.1679L200.508 74.9281L200.508 64.8193H210.814L212.505 66.5774ZM206.046 82.6197L208.732 85.2779L208.418 85.5918H205.719V82.9169L206.046 82.6197ZM202.344 78.955L204.929 81.5137L204.406 81.9886L204.149 82.2222V82.5695V86.3768V87.1618H204.934H208.743H209.068L209.298 86.9319L216.585 79.6475H226.699V89.7586L224.712 91.7459L222.202 89.2613L222.928 88.535L223.158 88.3051V87.9798L223.158 84.373V83.588H222.373H218.464H218.139L217.909 83.8178L210.622 91.1022H200.508L200.508 80.7908L202.344 78.955ZM221.588 87.6546L221.086 88.1568L218.425 85.5227L218.789 85.158H221.588V87.6546ZM214.664 89.2823L217.314 86.6327L226.8 96.022L226.8 106.131H216.493L214.753 104.322L217.312 101.764L217.809 102.261L218.047 102.499L218.384 102.491L222.293 102.39L223.058 102.371V101.606V97.9989V97.6736L222.828 97.4437L214.664 89.2823ZM218.681 100.913L218.422 100.654L221.12 97.9566L221.488 98.3241V100.841L218.681 100.913ZM217.362 94.1995L220.01 96.8467L209.895 106.958L207.247 104.311L217.362 94.1995ZM208.835 100.504L206.137 103.201L205.819 102.884L205.819 100.367L208.626 100.295L208.835 100.504ZM212.554 96.7858L209.945 99.3937L209.498 98.9465L209.26 98.7083L208.923 98.717L205.014 98.8172L204.249 98.8368V99.6019L204.249 103.209V103.534L204.479 103.764L212.493 111.775L209.892 114.375L200.508 105.085L200.508 94.9766H210.814L212.554 96.7858ZM206.099 112.829L208.782 115.485L208.418 115.849H205.719L205.719 113.174L206.099 112.829ZM202.344 109.112L204.982 111.723L204.406 112.246L204.149 112.48V112.827L204.149 116.634V117.419H204.934H208.743H209.068L209.298 117.189L216.585 109.905H226.699V120.016L224.762 121.953L222.202 119.419L222.928 118.692L223.158 118.462V118.137V114.53V113.745H222.373H218.464H218.139L217.909 113.975L210.622 121.26H200.508L200.508 110.948L202.344 109.112ZM221.588 117.812L221.086 118.314L218.425 115.68L218.789 115.315H221.588V117.812ZM214.664 119.44L217.314 116.79L226.8 126.179V136.288H216.493L214.753 134.479L217.312 131.921L217.809 132.418L218.047 132.657L218.384 132.648L222.293 132.548L223.058 132.528V131.763V128.156V127.831L222.828 127.601L214.664 119.44ZM218.681 131.07L218.422 130.811L221.12 128.114L221.488 128.481V130.998L218.681 131.07ZM217.362 124.357L220.01 127.004L209.895 137.115L207.247 134.468L217.362 124.357ZM208.835 130.661L206.137 133.358L205.819 133.041V130.524L208.626 130.452L208.835 130.661ZM212.554 126.943L209.945 129.551L209.498 129.104L209.26 128.866L208.923 128.874L205.014 128.974L204.249 128.994V129.759V133.366V133.691L204.479 133.921L212.493 141.932L209.892 144.532L200.508 135.243L200.508 125.134H210.814L212.554 126.943ZM206.099 142.987L208.782 145.642L208.418 146.007H205.719V143.332L206.099 142.987ZM202.344 139.27L204.982 141.881L204.406 142.403L204.149 142.637V142.984L204.149 146.792V147.577H204.934H208.743H209.068L209.298 147.347L216.584 140.062H226.699V150.173L224.712 152.161L222.101 149.576L222.928 148.749L223.158 148.52V148.194V144.587V143.802H222.373H218.464H218.139L217.909 144.032L210.622 151.317H200.508L200.508 141.105L202.344 139.27ZM221.588 147.869L220.985 148.472L218.324 145.838L218.789 145.372H221.588V147.869ZM214.614 149.547L217.214 146.948L226.8 156.437V166.546H216.493L214.753 164.736L217.362 162.129L217.809 162.576L218.047 162.814L218.384 162.805L222.293 162.705L223.058 162.685V161.92V158.313V157.988L222.828 157.758L214.614 149.547ZM218.681 161.227L218.472 161.019L221.17 158.321L221.488 158.639V161.155L218.681 161.227ZM217.362 154.514L220.06 157.211L209.895 167.373L207.197 164.676L217.362 154.514ZM208.785 160.868L206.087 163.566L205.819 163.298V160.782L208.626 160.71L208.785 160.868ZM212.505 157.15L209.895 159.758L209.498 159.361L209.26 159.123L208.923 159.132L205.014 159.232L204.249 159.252V160.017V163.624V163.949L204.479 164.179L212.443 172.14L209.842 174.74L200.508 165.5L200.508 155.391H210.814L212.505 157.15ZM206.046 173.192L208.732 175.85L208.418 176.164H205.719V173.489L206.046 173.192ZM202.344 169.527L204.929 172.086L204.406 172.561L204.149 172.794V173.142V176.949V177.734H204.934H208.743H209.068L209.298 177.504L216.584 170.22H226.699L226.699 180.331L224.712 182.318L222.202 179.833L222.928 179.107L223.158 178.877V178.552V174.945V174.16H222.373H218.464H218.139L217.909 174.39L210.622 181.674H200.508L200.508 171.363L202.344 169.527ZM221.588 178.227L221.086 178.729L218.425 176.095L218.789 175.73H221.588V178.227ZM214.714 179.804L217.314 177.205L226.8 186.594L226.8 196.703H216.493L214.753 194.894L217.362 192.286L217.809 192.733L218.047 192.971L218.384 192.963L222.293 192.862L223.058 192.843V192.078V188.471V188.146L222.828 187.916L214.714 179.804ZM218.681 191.384L218.472 191.176L221.17 188.479L221.488 188.796V191.313L218.681 191.384ZM217.362 184.671L220.06 187.369L209.895 197.53L207.197 194.833L217.362 184.671ZM208.785 191.026L206.087 193.723L205.819 193.456V190.939L208.626 190.867L208.785 191.026Z" fill="#6442EE"/>
</svg>
