<svg width="228" height="197" viewBox="0 0 228 197" fill="none" xmlns="http://www.w3.org/2000/svg">
<path d="M137.156 193.661C187.85 190.517 227.993 148.406 227.993 96.9201C227.993 45.434 187.85 3.32365 137.156 0.179466V27.9495C172.54 31.0345 200.299 60.7357 200.299 96.9201C200.299 133.105 172.54 162.806 137.156 165.891V193.661Z" fill="#189387"/>
<path d="M56.0568 55.5515C55.9667 57.0863 56.4172 58.5308 57.4984 59.885M57.4984 59.885C57.6786 72.2535 54.7053 79.5663 55.7865 84.5317C57.138 90.8514 62.634 91.4834 63.8954 91.4834C67.0489 91.4834 69.2113 89.3166 70.1123 86.9693C70.9232 84.8928 70.8331 82.2747 69.5717 80.5594C68.4905 79.0246 67.2291 78.3023 65.337 78.212C63.2647 78.0315 61.2825 79.2954 61.0123 81.4622M57.4984 59.885C60.5618 60.4267 62.9043 59.4336 64.436 56.8154C66.238 62.8643 67.2291 67.6492 67.4093 71.0798M57.2281 51.3986C55.6063 51.4888 55.1558 52.8431 55.4261 54.107C55.6063 55.0098 56.3271 56.0029 57.2281 57.1766C57.7687 57.2668 58.6697 56.5446 58.1291 55.4612M58.1291 50.4958C56.3271 51.6694 56.6875 53.5653 58.6697 56.364C59.2103 56.4543 60.0212 55.7321 59.4806 54.739C59.2103 53.9264 59.0301 53.3848 59.0301 52.9333M64.2558 56.996C65.337 51.6694 63.1746 49.1415 58.039 49.5027C57.8588 50.1346 58.039 50.8569 58.6697 51.3986C59.0301 51.6694 59.7509 51.85 60.6519 51.85C60.742 52.3917 61.0122 52.8431 61.5528 53.1139C60.3816 53.7459 59.5707 55.0098 59.9311 56.6349M101.737 40.7454C101.016 40.5648 100.476 40.5648 99.5749 40.4746M70.8331 40.7454C71.5539 40.5648 72.0945 40.5648 72.9955 40.4746M101.467 42.551C100.746 42.2802 100.025 42.0996 99.2145 41.9191M71.0133 42.551C71.7341 42.2802 72.4549 42.0996 73.2658 41.9191M101.107 44.2664C100.296 43.9052 99.4848 43.5441 98.4937 43.2733M71.3737 44.2664C72.1846 43.9052 72.9955 43.5441 73.9866 43.2733M100.836 45.9817C99.8452 45.44 99.0343 44.9886 97.863 44.4469M71.644 45.9817C72.6351 45.44 73.446 44.9886 74.6173 44.4469M100.476 47.8776C99.3947 46.9748 98.2234 46.2525 96.962 45.5303M72.1846 47.7873C73.2658 46.8845 74.347 46.2525 75.6084 45.5303M99.7551 49.7735C98.4937 48.5999 97.3224 47.697 95.7006 46.7942M72.7252 49.7735C73.9866 48.5999 75.1579 47.697 76.7797 46.7942M99.1244 51.7597C97.863 50.2249 96.5115 49.1415 94.6194 47.8776M73.446 51.6694C74.7074 50.1346 75.9688 49.1415 77.8609 47.8776M98.2234 54.107C96.962 52.3014 95.4303 50.586 93.4481 49.1415M74.347 54.0167C75.6084 52.2111 77.05 50.586 79.0322 49.1415M97.3224 32.6201C94.259 30.3631 91.1956 30.995 89.0332 30.6339C87.5015 30.4534 86.5104 29.6408 86.2401 28.106C85.9698 29.6408 84.9788 30.4534 83.4471 30.6339C81.2847 30.995 78.2213 30.3631 75.1579 32.6201M83.4471 50.586C84.8887 51.4888 86.4203 51.7597 88.3124 51.0374M61.1924 49.7735C60.832 48.0582 60.2915 46.5234 59.6608 44.9886C59.3905 44.4469 58.6697 44.2664 58.3093 44.6275C57.9489 44.8983 57.8588 45.44 58.039 46.2525C58.3994 47.4262 58.7598 48.5096 58.94 49.5027M63.535 51.3083C63.0845 48.961 62.4538 46.7039 61.5528 44.6275C61.2825 43.9955 60.5618 43.9052 60.2014 44.2664C59.841 44.5372 59.7509 45.0789 59.9311 45.8914M90.7451 19.7099C89.8441 23.0503 89.3035 25.849 88.6728 28.3769M81.7352 19.7099C82.6362 23.0503 83.1768 25.849 83.8075 28.3769M108.585 37.405C106.062 37.8564 103.719 38.1272 101.016 38.5786M63.8954 37.405C66.4182 37.8564 68.7608 38.1272 71.4638 38.5786M108.855 44.0858C105.972 43.6344 103.81 43.4538 101.467 43.183M63.7152 44.0858C66.5984 43.6344 68.7608 43.4538 71.1034 43.183M74.6173 62.9545C67.139 58.7113 62.5439 50.7666 62.5439 42.1899C62.5439 29.0089 73.2658 18.2654 86.4203 18.2654C99.5749 18.2654 110.297 29.0089 110.297 42.1899C110.297 49.9541 106.513 57.1766 100.296 61.6906M55.8766 77.0384C59.5707 77.8509 62.8142 77.1287 65.4271 74.8716M57.4083 63.4962C60.5618 64.399 63.7152 63.1351 65.4271 60.6072M57.138 67.3783C60.832 68.3714 64.1657 66.7464 66.3281 64.0379M56.6875 71.9827C60.7419 72.9757 64.5261 71.441 67.139 68.8228M72.9955 36.4119C76.7797 32.8909 83.1768 33.0715 85.1589 36.0508C84.7985 40.926 84.5283 44.6275 84.3481 47.3359C85.3391 47.7873 86.15 47.9679 86.9609 47.697M97.0521 56.4543C94.7095 52.2111 92.2768 49.4124 88.1322 47.2456C87.952 44.5372 87.7718 40.8357 87.3213 35.9605C89.3035 32.9812 95.7907 32.7104 99.8452 35.8702M75.5183 56.4543C77.7708 52.3014 80.3837 49.5027 84.4382 47.4262M77.5005 58.3502C77.7708 57.7182 78.2213 56.7252 78.5817 56.0932M78.5817 56.0932C78.6718 55.9126 78.7619 55.7321 78.852 55.6418C80.4738 52.8431 82.9966 50.4055 86.2401 48.961C90.5649 50.8569 93.358 54.6487 95.2501 58.8016M78.5817 56.0932C79.3025 57.4474 80.654 59.253 79.9332 61.0586C79.2124 63.1351 76.6896 64.399 74.7074 66.3852M89.3936 53.1139C90.7451 56.5446 92.2768 61.0586 92.9075 63.3157M82.8164 53.3848C81.555 57.2668 80.7441 60.2461 80.1134 62.5934M84.1679 53.6556C83.1768 58.4405 82.5461 62.0517 82.1857 64.4893M88.0421 53.5653C89.3035 58.8016 90.2045 62.5031 90.5649 65.3019M85.4292 53.7459C85.1589 59.7044 84.9787 63.9476 84.8887 66.3852M86.7807 53.7459C87.3213 59.253 87.7718 63.4962 88.0421 66.7464M103.359 140.416C102.818 147.458 105.972 151.34 110.657 153.777C115.703 156.305 121.829 158.652 123.902 160.819C122.73 156.576 121.92 150.166 121.829 146.735C121.199 135.992 121.92 129.763 116.153 122.269C112.82 117.936 107.594 114.415 101.467 112.338C100.926 109.178 100.746 106.38 100.656 103.491C100.566 102.407 100.566 101.053 100.476 99.9698C105.341 102.317 110.026 101.143 112.549 98.7059C115.162 96.178 116.153 91.3931 115.703 86.1568C114.802 76.8578 108.945 67.288 98.4937 60.4267C96.2412 58.9822 95.8808 58.5308 97.5927 55.3709C99.8452 50.8569 101.287 45.9817 101.737 40.6551M87.5916 67.0172C87.8619 71.3507 87.952 75.2328 88.0421 78.4829M79.3926 61.9615C81.4649 64.1282 83.9877 66.3852 86.7807 67.288C89.5738 66.5658 91.7362 64.6699 94.3491 61.7809M77.1401 64.3088C79.753 65.8435 81.8253 67.6492 83.2669 69.8159C84.7985 72.2535 85.6094 75.1425 85.9698 78.6634M97.6828 64.399C95.8808 62.8643 93.7184 61.6906 93.0877 59.9753C92.5471 58.5308 93.1778 57.1766 93.8085 56.0029M125.163 129.943C123.812 130.485 122.1 130.485 120.208 130.124M45.2448 126.693C46.5963 127.686 48.0379 128.228 49.4795 128.318M118.045 113.151C116.784 113.963 115.973 115.498 115.973 117.033C115.973 119.741 118.226 121.998 121.019 122.179C122.46 122.269 123.812 121.637 124.803 120.644M53.1736 111.435C54.5251 112.429 55.2459 113.963 55.336 115.498C55.336 118.207 53.1736 120.283 50.3805 120.193C48.8488 120.102 47.4072 119.38 46.4161 118.116M118.135 125.248C119.036 125.7 120.388 125.88 121.019 125.88C122.55 125.971 124.082 125.61 125.343 124.978M113.45 111.435C112.459 112.88 111.828 114.595 111.828 116.491C111.828 117.033 111.919 117.484 112.009 118.026M52.3627 123.804C51.732 123.894 51.1013 123.985 50.3805 123.894C48.5785 123.804 46.8666 123.172 45.3349 122.179M57.7687 110.172C58.8499 111.706 59.4806 113.512 59.4806 115.408C59.4806 116.582 59.3004 117.665 58.8499 118.748M67.5895 84.3512C67.0489 87.9624 64.436 90.0389 60.9221 90.7611M56.9578 87.511C61.2825 87.7818 64.7964 85.5248 65.4271 81.9136M68.3103 89.6777C68.941 87.2402 68.04 84.1706 66.1479 82.5455C64.7063 81.2816 62.7241 80.9205 60.9221 81.4622C60.0212 83.6289 57.6786 83.7192 55.5162 83.2678M64.2558 78.1218C65.6073 73.1563 68.04 69.0937 71.5539 65.663C72.9955 64.2185 76.3292 61.6003 77.05 59.885C77.3203 59.253 76.9599 58.8919 76.6896 58.3502C73.446 53.0236 71.4638 47.0651 70.8331 40.5648C74.1668 25.1268 96.7818 22.6892 101.737 40.5648M54.7954 160.819C67.6796 166.146 79.0322 166.146 85.6094 166.146M85.6094 166.146C91.4659 166.146 100.476 166.597 113.811 159.375M85.6094 166.146C79.1223 166.056 67.8598 164.972 59.9311 158.291M85.6094 166.146C91.4659 166.146 101.467 164.43 108.495 156.937M63.535 155.583C70.2024 161.18 80.1134 162.173 85.6995 161.993C90.655 161.812 99.5749 160.187 105.071 154.5M65.8776 151.701C72.2747 156.937 79.753 157.75 85.4292 157.569C90.3847 157.389 96.8719 155.944 102.458 151.701M66.9588 146.555C72.2747 152.243 81.1946 153.236 85.3391 153.145C90.2946 153.055 95.3402 151.791 100.386 147.819M70.3826 143.305C73.9866 146.735 81.1946 148.722 85.3391 148.631C90.2946 148.541 94.5293 147.277 99.4848 143.124M72.6351 139.152C75.7886 142.131 81.1045 143.576 85.2491 143.485C90.2045 143.395 94.7996 141.77 99.7551 137.527M73.8965 134.638C80.2035 139.242 89.8441 139.874 97.3224 133.825M73.9866 129.311C80.2936 134.818 89.754 134.909 96.061 129.943M82.8164 96.3585C84.7985 97.3516 87.3213 97.4419 89.6639 96.6294M82.5461 101.143C84.5283 102.227 87.2312 102.498 89.6639 101.595M82.1857 106.56C84.4382 107.644 87.2312 107.915 89.6639 107.012M81.9154 112.158C84.258 113.331 87.4114 113.602 89.9342 112.429M81.555 117.665C84.2579 118.748 87.5916 119.019 90.2946 117.845M81.3748 123.172C85.249 124.617 89.6639 124.255 93.2679 121.547M74.1668 124.436C80.7441 130.304 89.8441 130.846 96.1511 124.707M109.666 110.623C108.315 111.706 107.594 113.151 107.233 114.776M61.5528 109.63C63.3548 111.255 64.2558 113.693 64.2558 115.95M104.711 107.012C103.269 106.741 101.737 106.921 100.836 107.824M104.711 107.012C104.08 104.213 103.81 102.588 103.449 100.963M104.711 107.012C105.882 107.463 107.143 108.908 107.323 110.262C108.315 110.442 108.134 110.352 109.035 110.533C115.342 111.797 119.217 113.061 122.28 116.22C126.064 120.283 125.794 125.519 124.803 133.554C124.352 137.707 121.199 145.562 123.902 160.639M67.139 106.651C69.3014 106.651 70.743 107.192 71.7341 108.276M107.323 110.172C105.161 110.442 103.179 110.804 101.467 112.248M64.9766 109.269C67.0489 110.623 68.2202 112.338 68.6707 114.505M69.5717 87.8721C69.1212 93.0181 68.4905 98.2545 67.139 106.741C65.9677 107.012 65.1568 108.095 64.9766 109.359C57.0479 110.081 52.3627 110.804 49.029 114.234C43.4428 119.741 44.8844 128.499 47.6775 145.562M73.0856 124.707C75.7886 134.186 72.8153 142.312 66.6885 146.645M71.5539 65.7533C74.6173 65.9338 77.8609 67.5589 80.0233 70.3576C81.7352 72.6146 82.8164 75.5036 83.2669 78.9343M90.0243 89.0458L88.3124 89.1361L88.0421 83.8095L95.16 83.2678L95.7006 87.4207M89.754 91.6639L85.8797 91.7542L85.3391 81.4622L97.6828 80.5594L98.9442 90.3097M89.6639 94.2821L83.357 94.5529L82.6362 79.0246L100.025 77.4898L102.098 90.8514M123.902 160.729C124.262 162.354 124.803 164.069 125.524 165.785C123.271 163.347 116.153 160.278 110.477 157.84C101.827 153.958 98.2234 147.187 99.9353 137.707M65.9677 142.673C68.04 150.256 64.9766 155.132 60.7419 157.75C56.1469 160.548 50.3805 162.173 48.6686 164.43C49.2092 160.187 48.9389 155.402 48.5785 151.972C47.227 141.319 45.9656 133.735 50.7409 126.061C54.435 120.102 63.0845 115.679 71.2836 113.783C72.6351 99.3378 73.446 90.0389 73.5361 83.8998C73.6262 77.4898 69.9321 74.0591 65.337 75.3231M66.238 127.415C67.2291 130.304 66.8687 135.27 65.337 138.068C62.5439 142.763 56.0568 143.485 53.4439 148.631C52.7231 150.076 52.2726 151.972 52.2726 154.319M62.1835 145.652C64.436 154.77 54.1647 155.493 52.2726 158.291C52.4528 155.493 52.1825 152.784 51.9122 150.527C51.4617 146.284 51.0112 142.582 51.0112 139.332C50.9211 133.825 52.7231 128.499 58.2192 124.075C61.8231 121.186 67.2291 118.839 74.6173 116.943C75.9688 101.866 76.4193 91.3931 76.7797 83.99C76.9599 80.2885 76.2391 77.1287 74.7074 75.0522C72.7252 72.2535 69.4816 71.3507 66.6885 72.0729M99.9353 123.804C99.0343 127.325 99.3046 131.117 101.467 133.825C103.539 136.353 106.152 137.707 108.765 139.062C111.288 140.416 114.351 141.589 116.424 144.569C117.505 146.013 118.316 147.909 118.766 150.347M107.053 142.221C106.873 145.742 108.315 147.728 110.297 149.263C113.54 151.791 118.135 152.604 119.577 154.319C118.856 151.43 118.496 148.722 118.316 146.374C118.045 142.582 118.045 138.61 117.685 135.45C117.234 131.297 115.973 127.415 112.82 123.985C109.216 120.102 104.17 117.033 97.6828 114.776C97.0521 109.72 96.6917 105.477 96.5115 96.2683M103.269 125.61C102.909 127.867 103.269 130.124 104.44 131.929C105.612 133.645 107.414 134.638 109.125 135.541C111.378 136.714 113.54 137.617 114.802 138.791C114.892 133.915 114.081 130.575 110.747 126.964C107.233 123.172 101.827 120.012 94.3491 117.936C93.1778 109.81 92.8174 100.241 93.1778 89.2263C95.5204 92.7473 98.8541 94.4626 102.278 93.921C103.99 93.6501 105.612 92.9279 107.233 91.6639C110.207 89.2263 115.252 90.9417 114.622 95.546M63.1746 129.492C63.4449 131.658 63.3548 134.006 62.634 135.631C60.5617 140.055 56.237 140.777 54.8855 142.763C54.3449 140.055 54.5251 137.166 55.2459 134.909C55.7865 133.103 56.5974 131.388 57.7687 129.943C61.4627 125.339 68.04 121.818 78.0411 120.012C78.6718 109.359 79.3926 98.3447 80.2936 86.5179C80.654 79.7468 79.5728 74.8716 76.9599 71.8021C74.9777 69.5451 71.9143 68.1909 68.8509 68.9131M58.6697 148.09C58.94 148.992 58.6697 149.805 58.1291 150.437C57.4984 151.249 56.3271 151.52 55.8766 152.152C56.237 149.895 57.8588 148.541 60.7419 146.645C62.4538 145.471 65.6974 143.846 67.9499 140.687C70.2024 137.527 71.4638 132.832 69.7519 126.061M111.468 144.749C111.468 145.652 111.828 146.103 112.369 146.645C113.09 147.458 114.081 147.728 114.622 148.27C113.901 146.013 111.919 144.749 108.585 143.034C104.62 140.957 92.9075 137.166 96.6016 122.54M90.655 78.3023C91.3758 76.1356 91.6461 73.698 92.1867 71.5313C93.1778 67.288 95.4303 64.8504 98.2234 64.3088C100.926 63.6768 103.81 64.399 105.972 66.7464M94.0788 77.9412C95.6105 76.1356 96.5115 73.3369 97.1422 70.9896C97.863 68.0103 99.4848 66.4755 101.467 65.9338C103.359 65.3921 105.341 65.9338 106.873 67.5589M98.2234 77.6704C99.665 76.4967 100.206 74.9619 100.746 73.1563C101.917 68.2811 106.332 67.1978 108.945 70.0867M100.296 79.8371C100.476 79.7468 100.656 79.7468 100.746 79.6565C102.008 78.9343 102.548 78.0315 103.269 76.3161C105.161 71.6215 109.666 71.2604 111.828 74.4202M100.926 83.3581C101.287 83.2678 101.557 83.2678 101.917 83.0872C103.359 82.5455 103.99 81.733 104.981 80.0177C107.594 75.5036 112.279 75.6842 114.081 79.2954M101.467 87.0596C101.827 87.0596 102.098 86.9693 102.458 86.879C103.9 86.4276 104.62 85.7054 105.792 84.0803C108.855 79.6565 113.811 80.5594 115.432 84.5317M107.323 128.318C107.323 129.311 107.594 130.214 108.044 130.846C108.765 131.749 109.936 132.2 110.567 132.742C109.216 129.131 105.882 126.874 102.368 124.978C98.1333 122.811 95.8808 121.998 90.5649 121.005C89.8441 110.804 89.0332 98.6156 90.1144 87.7818C90.4748 84.5317 93.7184 83.99 95.5204 86.7887C96.962 89.768 99.5749 91.1222 102.188 90.6708C103.449 90.4903 104.711 89.768 105.882 88.5944C109.396 84.4414 114.441 85.8859 115.793 89.768M83.0867 90.5806C82.2758 104.213 81.555 113.693 81.4649 123.172C74.7975 123.894 69.2113 125.519 65.1568 128.047C61.8231 130.124 58.6697 133.103 57.7687 136.443C58.6697 135.541 60.1113 134.186 60.0212 132.381M93.0877 36.6827C92.0966 36.6827 91.2857 37.4953 91.2857 38.3981C91.2857 39.3912 92.0966 40.1134 93.0877 40.1134C94.0788 40.1134 94.8897 39.3009 94.8897 38.3981C94.7996 37.4953 94.0788 36.6827 93.0877 36.6827ZM79.5728 36.5925C80.5639 36.5925 81.3748 37.405 81.3748 38.3078C81.3748 39.3009 80.5639 40.0231 79.5728 40.0231C78.5817 40.0231 77.7708 39.2106 77.7708 38.3078C77.7708 37.405 78.5817 36.5925 79.5728 36.5925ZM88.2223 38.6689C90.3847 34.0646 95.4303 34.4257 98.1333 38.7592C95.2501 42.6413 90.1144 42.3705 88.2223 38.6689ZM84.7084 38.7592C82.5461 34.1549 76.5094 34.0646 74.2569 39.0301C77.3203 42.4607 82.2758 42.4607 84.7084 38.7592ZM121.109 116.04C120.298 116.04 119.577 116.672 119.577 117.484C119.577 118.297 120.298 119.019 121.109 119.109C121.92 119.2 122.64 118.477 122.64 117.665C122.73 116.762 122.01 116.04 121.109 116.04ZM50.1102 114.054C51.0112 114.054 51.6419 114.776 51.6419 115.679C51.6419 116.491 50.9211 117.213 50.1102 117.123C49.2993 117.033 48.5785 116.401 48.5785 115.498C48.5785 114.686 49.2993 113.963 50.1102 114.054Z" stroke="#292526" stroke-miterlimit="22.926"/>
<path fill-rule="evenodd" clip-rule="evenodd" d="M17.1724 0.000488281L14.7339 2.43822L12.7818 0.408775L12.5502 0.16796L12.2161 0.16796L0.785009 0.16796L9.3766e-06 0.16796L9.34229e-06 0.952964L8.85155e-06 12.1797L8.83733e-06 12.505L0.230022 12.7349L2.28175 14.786L0.230023 16.837L8.63792e-06 17.0669L8.6237e-06 17.3922L8.1242e-06 28.8194L8.08989e-06 29.6044H0.785008L12.0155 29.6044H12.3406L12.5705 29.3746L14.6226 27.3232L17.3226 30.0223L14.6847 32.6593L12.7818 30.681L12.5502 30.4402H12.2161L0.785008 30.4402H8.05335e-06L8.01904e-06 31.2252L7.5283e-06 42.452L7.51398e-06 42.7795L0.232761 43.0098L2.29186 45.0481L0.230022 47.1092L7.31468e-06 47.3391L7.30046e-06 47.6644L6.80095e-06 59.0917L6.76664e-06 59.8767H0.785007H12.0155H12.3406L12.5705 59.6468L14.6727 57.5453L17.3226 60.1943L14.6847 62.8313L12.7818 60.853L12.5502 60.6122H12.2161H0.785007H6.7345e-06L6.70018e-06 61.3972L6.20945e-06 72.6239L6.19513e-06 72.9514L0.232762 73.1818L2.29185 75.2201L0.230019 77.2812L5.99583e-06 77.5111L5.98161e-06 77.8364L5.4821e-06 89.2636L5.44779e-06 90.0486H0.785005H12.0155H12.3406L12.5705 89.8188L14.6226 87.7674L17.3226 90.4665L14.7339 93.0544L12.7818 91.025L12.5502 90.7841H12.2161H0.785005H5.41564e-06L5.38133e-06 91.5691L4.89059e-06 102.796L4.87627e-06 103.123L0.232759 103.354L2.29185 105.392L0.230018 107.453L4.67696e-06 107.683L4.66274e-06 108.008L4.16324e-06 119.436L4.12893e-06 120.221H0.785004H12.0155H12.3406L12.5705 119.991L14.6226 117.939L17.3226 120.638L14.7339 123.226L12.7818 121.197L12.5502 120.956H12.2161H0.785004H4.09679e-06L4.06247e-06 121.741L3.57172e-06 132.968L3.55742e-06 133.295L0.232757 133.526L2.29185 135.564L0.230018 137.625L3.3581e-06 137.855L3.34388e-06 138.18L2.84877e-06 149.507L2.81446e-06 150.292H0.785003H12.0155H12.3406L12.5705 150.063L14.5725 148.061L17.3226 150.81L14.6847 153.447L12.7818 151.469L12.5502 151.228H12.2161H0.785003H2.77354e-06L2.73922e-06 152.013L2.24849e-06 163.24L2.23417e-06 163.568L0.232756 163.798L2.29185 165.836L0.230013 167.897L2.03485e-06 168.127L2.02065e-06 168.453L0 179.88V180.665H0.785001H12.0155H12.3406L12.5705 180.435L14.6727 178.333L17.3226 180.982L14.7339 183.57L12.7818 181.541L12.5502 181.3H12.2161H0.785001H0V182.085V193.312V193.637L0.230014 193.867L3.23819 196.874L4.34816 195.764L1.57 192.987L1.57 182.87H11.8819L13.6233 184.681L10.9627 187.34L10.5651 186.943L10.3268 186.705L9.98995 186.713L6.07933 186.813L5.31445 186.833L5.31444 187.598V191.207V191.532L5.54446 191.762L10.7586 196.974L11.3636 196.369L11.5678 196.573L14.7119 193.43L16.6639 195.46L16.8955 195.701H17.2297L28.6608 195.701H29.4458V194.916V183.689V183.361L29.213 183.131L26.902 180.843L29.1155 178.631L29.3455 178.401V178.076V166.849V166.064L28.5605 166.064H17.33H17.0049L16.775 166.294L14.6226 168.445L12.073 165.896L14.7119 163.258L16.6639 165.288L16.8955 165.529H17.2297L28.6608 165.529H29.4458V164.744V153.517L29.4458 153.189L29.213 152.959L26.902 150.671L29.1155 148.459L29.3455 148.229V147.904V136.677V135.892L28.5605 135.892H17.33H17.0049L16.775 136.122L14.6727 138.223L12.073 135.624L14.7119 132.986L16.6639 135.016L16.8955 135.256H17.2297H28.6608L29.4458 135.256V134.471V123.245V122.917L29.213 122.687L26.9524 120.449L29.1155 118.287L29.3455 118.057V117.732L29.3455 106.505V105.72H28.5605H17.33H17.0049L16.775 105.95L14.6727 108.051L12.073 105.452L14.7119 102.814L16.6639 104.844L16.8956 105.084H17.2297H28.6608H29.4458V104.299V93.0727V92.7452L29.213 92.5148L26.902 90.2272L29.1155 88.0145L29.3455 87.7846V87.4593V76.2325V75.4475H28.5605H17.33H17.0049L16.775 75.6774L14.6226 77.829L12.073 75.2803L14.7119 72.6423L16.6639 74.6717L16.8956 74.9125H17.2297H28.6608H29.4458V74.1275L29.4458 62.9007V62.5732L29.213 62.3429L26.902 60.0553L29.1155 57.8425L29.3455 57.6126V57.2873V46.0606V45.2756H28.5605H17.33H17.0049L16.775 45.5054L14.6226 47.6571L12.073 45.1083L14.7119 42.4703L16.6639 44.4997L16.8956 44.7405H17.2297H28.6608H29.4458V43.9555V32.7288V32.4013L29.213 32.1709L26.9524 29.9332L29.1155 27.7708L29.3455 27.5408V27.2156V15.8886V15.1036H28.5605L17.33 15.1036H17.0049L16.775 15.3334L14.6727 17.435L12.073 14.8361L14.7119 12.1981L16.6639 14.2275L16.8956 14.4683H17.2297L28.6608 14.4683H29.4458V13.6833V2.45655V2.12904L29.213 1.89865L27.2954 0.000488281H25.0637L27.8758 2.78404V12.8983L17.5638 12.8983L15.8224 11.0879L18.3828 8.52835L18.8807 9.02607L19.119 9.26427L19.4558 9.25564L23.3664 9.1554L24.1313 9.13579V8.37065L24.1313 4.76205V4.43681L23.9013 4.20687L19.6935 0.000488281H17.1724ZM19.7524 7.67752L19.4932 7.41838L22.1932 4.71927L22.5613 5.08728V7.60551L19.7524 7.67752ZM18.433 0.960304L21.0828 3.60929L10.9627 13.7261L8.31279 11.0771L18.433 0.960304ZM9.90246 7.26802L7.20245 9.96713L6.88445 9.64925V7.131L9.69337 7.059L9.90246 7.26802ZM13.6233 3.5484L11.0128 6.15805L10.5651 5.71046L10.3268 5.47225L9.98996 5.48089L6.07934 5.58112L5.31445 5.60073V6.36587V9.97448V10.2997L5.54447 10.5297L13.5624 18.5449L10.9125 21.1939L1.57001 11.8545L1.57001 1.73796L11.8819 1.73796L13.6233 3.5484ZM7.1289 19.6315L9.80219 22.3039L9.48445 22.6215L6.78417 22.6215V19.9448L7.1289 19.6315ZM3.39209 15.8959L6.01728 18.5202L5.47122 19.0165L5.21417 19.2501V19.5974V23.4065L5.21417 24.1915H5.99917L9.80953 24.1915H10.1346L10.3645 23.9617L17.6551 16.6736H27.7755L27.7755 26.8904L25.8366 28.8286L23.224 26.2426L24.0016 25.4653L24.2316 25.2353V24.9101V21.3015V20.5165H23.4466H19.536H19.2109L18.981 20.7463L11.6904 28.0344L1.57001 28.0344L1.57001 17.7174L3.39209 15.8959ZM22.6616 24.5849L22.1082 25.1381L19.4453 22.5021L19.861 22.0865H22.6616V24.5849ZM15.7329 26.2132L18.3349 23.6121L27.8758 33.0563V43.1705H17.5638L15.8224 41.3601L18.433 38.7505L18.8807 39.198L19.119 39.4362L19.4558 39.4276L23.3664 39.3274L24.1313 39.3078V38.5426V34.934V34.6088L23.9013 34.3789L15.7329 26.2132ZM19.7524 37.8495L19.5433 37.6405L22.2433 34.9414L22.5613 35.2593V37.7775L19.7524 37.8495ZM18.433 31.1323L21.133 33.8314L10.9627 43.9983L8.26266 41.2992L18.433 31.1323ZM9.85232 37.4901L7.15231 40.1892L6.88445 39.9215V37.4032L9.69337 37.3312L9.85232 37.4901ZM13.5742 33.7695L10.9627 36.3801L10.5651 35.9827L10.3268 35.7445L9.98996 35.7531L6.07934 35.8533L5.31445 35.8729V36.6381V40.2467V40.5719L5.54446 40.8019L13.5123 48.767L10.9093 51.3691L1.57001 42.1245L1.57001 32.0102H11.8819L13.5742 33.7695ZM7.11171 49.8191L9.79895 52.4791L9.48445 52.7935H6.78417V50.1168L7.11171 49.8191ZM3.40767 46.1526L5.99435 48.7131L5.47122 49.1885L5.21417 49.4221V49.7694V53.5785V54.3635H5.99917H9.80953H10.1346L10.3645 54.1337L17.655 46.8456H27.7755V56.9621L25.7862 58.9508L23.2744 56.4644L24.0016 55.7375L24.2316 55.5076V55.1823V51.5737V50.7887H23.4466H19.536H19.2109L18.981 51.0185L11.6904 58.3067H1.57001L1.57001 47.9896L3.40767 46.1526ZM22.6616 54.8571L22.1586 55.3599L19.4957 52.724L19.861 52.3587H22.6616V54.8571ZM15.7831 56.4353L18.3853 53.834L27.8758 63.2282V73.3425H17.5638L15.8224 71.5321L18.433 68.9224L18.8807 69.37L19.119 69.6082L19.4558 69.5996L23.3664 69.4994L24.1313 69.4797V68.7146V65.106V64.7808L23.9013 64.5508L15.7831 56.4353ZM19.7524 68.0215L19.5433 67.8124L22.2433 65.1133L22.5613 65.4312V67.9495L19.7524 68.0215ZM18.433 61.3043L21.133 64.0034L10.9627 74.1703L8.26265 71.4712L18.433 61.3043ZM9.85232 67.6621L7.1523 70.3612L6.88445 70.0935V67.5752L9.69336 67.5032L9.85232 67.6621ZM13.5742 63.9415L10.9627 66.5521L10.5651 66.1547L10.3268 65.9165L9.98995 65.9251L6.07934 66.0253L5.31445 66.0449V66.8101L5.31445 70.4187V70.7439L5.54446 70.9739L13.5123 78.939L10.9093 81.5411L1.57001 72.2964L1.57001 62.1822H11.8819L13.5742 63.9415ZM7.11171 79.9911L9.79895 82.6511L9.48445 82.9655H6.78417V80.2887L7.11171 79.9911ZM3.40766 76.3246L5.99436 78.885L5.47122 79.3605L5.21417 79.5941V79.9414V83.7505V84.5355H5.99917H9.80953H10.1346L10.3645 84.3056L17.655 77.0175H27.7755V87.1341L25.7862 89.1227L23.2744 86.6364L24.0016 85.9095L24.2316 85.6795V85.3543L24.2316 81.7457V80.9607H23.4466H19.536H19.2109L18.981 81.1905L11.6904 88.4786H1.57001L1.57001 78.1616L3.40766 76.3246ZM22.6616 85.0291L22.1586 85.5319L19.4957 82.896L19.861 82.5307H22.6616L22.6616 85.0291ZM15.7329 86.6574L18.3853 84.0059L27.8758 93.4002L27.8758 103.515H17.5638L15.8224 101.704L18.3828 99.1445L18.8807 99.6422L19.119 99.8804L19.4558 99.8718L23.3664 99.7716L24.1313 99.752V98.9868V95.3782V95.053L23.9013 94.8231L15.7329 86.6574ZM19.7524 98.2937L19.4932 98.0346L22.1932 95.3354L22.5613 95.7035V98.2217L19.7524 98.2937ZM18.433 91.5765L21.0828 94.2255L10.9627 104.342L8.31279 101.693L18.433 91.5765ZM9.90245 97.8842L7.20244 100.583L6.88445 100.265L6.88445 97.7472L9.69338 97.6752L9.90245 97.8842ZM13.6233 94.1646L11.0128 96.7742L10.5651 96.3266L10.3268 96.0884L9.98995 96.0971L6.07933 96.1973L5.31445 96.2169V96.982L5.31445 100.591V100.916L5.54446 101.146L13.5624 109.161L10.9597 111.763L1.57 102.468L1.57001 92.3541H11.8819L13.6233 94.1646ZM7.1645 110.215L9.84933 112.873L9.48444 113.238H6.78417L6.78417 110.561L7.1645 110.215ZM3.40766 106.497L6.04715 109.109L5.47122 109.633L5.21417 109.866V110.214L5.21417 114.023V114.808H5.99917H9.80953H10.1346L10.3645 114.578L17.655 107.29H27.7755V117.406L25.8366 119.345L23.2744 116.808L24.0016 116.081L24.2316 115.852V115.526V111.918V111.133H23.4466H19.536H19.2109L18.981 111.363L11.6904 118.651H1.57L1.57 108.334L3.40766 106.497ZM22.6616 115.201L22.1586 115.704L19.4957 113.068L19.861 112.703H22.6616V115.201ZM15.7329 116.829L18.3853 114.178L27.8758 123.572V133.686H17.5638L15.8224 131.876L18.3828 129.316L18.8807 129.814L19.119 130.052L19.4558 130.044L23.3664 129.944L24.1313 129.924V129.159V125.55V125.225L23.9013 124.995L15.7329 116.829ZM19.7524 128.466L19.4932 128.207L22.1932 125.507L22.5613 125.875L22.5613 128.394L19.7524 128.466ZM18.433 121.748L21.0828 124.397L10.9627 134.514L8.31278 131.865L18.433 121.748ZM9.90245 128.056L7.20244 130.755L6.88445 130.437V127.919L9.69337 127.847L9.90245 128.056ZM13.6233 124.337L11.0128 126.946L10.5651 126.499L10.3268 126.26L9.98996 126.269L6.07933 126.369L5.31445 126.389V127.154V130.763V131.088L5.54446 131.318L13.5624 139.333L10.9597 141.935L1.57 132.64L1.57 122.526H11.8819L13.6233 124.337ZM7.16449 140.387L9.84932 143.045L9.48444 143.41H6.78417V140.733L7.16449 140.387ZM3.40766 136.669L6.04714 139.281L5.47122 139.805L5.21417 140.038V140.386L5.21417 144.195V144.98H5.99917H9.80953H10.1346L10.3645 144.75L17.655 137.462H27.7755V147.578L25.7862 149.567L23.1736 146.981L24.0016 146.153L24.2316 145.923V145.598V141.989V141.204H23.4466H19.536H19.2109L18.981 141.434L11.6904 148.722H1.57L1.57 138.506L3.40766 136.669ZM22.6616 145.273L22.0578 145.876L19.3949 143.24L19.861 142.774H22.6616V145.273ZM15.6828 146.951L18.2845 144.35L27.8758 153.844V163.959H17.5638L15.8224 162.148L18.433 159.539L18.8807 159.986L19.119 160.224L19.4558 160.216L23.3664 160.116L24.1313 160.096V159.331V155.722V155.397L23.9013 155.167L15.6828 146.951ZM19.7524 158.638L19.5433 158.429L22.2433 155.73L22.5613 156.047V158.566L19.7524 158.638ZM18.433 151.92L21.133 154.62L10.9627 164.786L8.26264 162.087L18.433 151.92ZM9.85231 158.278L7.1523 160.977L6.88445 160.71V158.191L9.69337 158.119L9.85231 158.278ZM13.5742 154.558L10.9627 157.168L10.565 156.771L10.3268 156.533L9.98995 156.541L6.07933 156.641L5.31445 156.661V157.426V161.035V161.36L5.54446 161.59L13.5122 169.555L10.9093 172.157L1.57 162.913L1.57 152.798H11.8819L13.5742 154.558ZM7.11171 170.607L9.79894 173.267L9.48444 173.582H6.78417V170.905L7.11171 170.607ZM3.40765 166.941L5.99435 169.501L5.47122 169.977L5.21417 170.21V170.558V174.367V175.152H5.99917H9.80952H10.1346L10.3645 174.922L17.655 167.634H27.7755V177.75L25.7862 179.739L23.2744 177.253L24.0016 176.526L24.2316 176.296V175.97V172.362V171.577H23.4466H19.536H19.2109L18.981 171.807L11.6904 179.095H1.57L1.57 168.778L3.40765 166.941ZM22.6616 175.645L22.1586 176.148L19.4957 173.512L19.861 173.147H22.6616V175.645ZM15.7831 177.223L18.3853 174.622L27.8758 184.016L27.8758 194.131H17.5638L15.8224 192.32L18.433 189.711L18.8807 190.158L19.119 190.396L19.4558 190.388L23.3664 190.288L24.1313 190.268V189.503V185.894V185.569L23.9013 185.339L15.7831 177.223ZM19.7524 188.81L19.5433 188.601L22.2433 185.902L22.5613 186.219V188.738L19.7524 188.81ZM18.433 182.092L21.133 184.792L10.9627 194.958L8.26265 192.259L18.433 182.092ZM9.85232 188.45L7.1523 191.149L6.88444 190.882V188.363L9.69337 188.291L9.85232 188.45Z" fill="#189387"/>
</svg>
