<svg width="275" height="275" viewBox="0 0 275 275" fill="none" xmlns="http://www.w3.org/2000/svg">
<path d="M260.428 137.389C262.43 138.946 265.545 142.284 266.88 144.731C269.328 142.951 272.665 139.614 274 137.166M224.829 223.939C225.051 226.386 225.051 231.059 223.939 233.729C226.831 234.174 231.726 234.174 234.174 233.506M253.308 178.773C254.643 180.998 256.423 185.002 256.868 187.895C259.76 187.005 263.988 185.002 265.99 183.222M190.12 248.413C189.452 250.861 187.895 255.088 186.115 257.313C188.785 258.87 193.235 260.205 195.905 260.65M258.648 157.858C260.428 159.861 262.875 163.421 263.765 166.313C266.435 164.978 270.218 162.086 271.998 160.083M208.587 237.733C208.364 240.403 207.474 244.631 206.139 247.301C209.032 248.413 213.704 249.081 216.374 248.858M244.853 197.462C245.743 199.91 246.856 204.137 246.856 207.029C249.971 206.807 254.42 205.249 256.645 203.914M170.763 255.756C169.65 258.203 167.425 261.985 165.423 263.988C167.87 265.99 172.32 268.215 174.99 268.883M232.394 215.707C232.839 218.154 233.284 222.826 232.616 225.496C235.731 225.719 240.403 225.051 242.851 224.161M149.181 259.538C147.846 261.763 144.731 265.1 142.284 266.658C144.286 268.883 148.291 271.998 150.738 273.333M259.983 148.291C261.763 150.071 264.655 153.631 265.768 156.301C268.438 154.743 271.998 151.628 273.555 149.403M216.819 231.281C216.819 233.951 216.374 238.401 215.262 240.848C218.154 241.738 222.826 241.961 225.496 241.516M249.081 188.785C250.193 191.01 251.751 195.46 251.751 198.13C254.643 197.462 259.093 195.905 261.318 194.347M180.108 252.641C179.218 255.088 177.215 259.093 175.213 261.095C177.66 262.875 182.332 264.655 185.002 265.323M256.423 168.538C257.98 170.54 260.205 174.545 260.65 177.438C263.543 176.325 267.548 173.878 269.328 172.098M199.465 243.518C199.02 245.966 197.907 250.416 196.127 252.641C198.797 253.976 203.469 255.088 206.139 255.088M238.623 207.029C239.291 209.477 240.181 213.927 239.736 216.819C242.851 216.819 247.301 215.707 249.748 214.594M159.638 257.98C158.526 260.205 155.856 263.988 153.408 265.545C155.633 267.548 160.083 270.44 162.531 271.553M138.056 260.205C136.499 262.208 133.161 265.323 130.714 266.658C132.494 269.105 136.276 272.665 138.501 274M118.254 100.455V118.477H91.7775M81.3203 118.477H50.3936V50.6161H101.122M110.689 50.6161H118.254V92.6675M97.5623 124.484L110.467 137.389L91.7775 156.078M85.3252 162.531L62.6308 185.225L14.5721 137.389L50.3936 101.567M57.0685 94.8924L62.6308 89.3301L92.2225 118.922M156.078 81.0978V50.6161H223.939V101.567M223.939 112.024V118.477H181.888M174.1 118.477H156.078V91.555M149.848 98.0073L137.166 110.689L118.254 91.555M110.912 84.2127L89.3301 62.6308L137.389 14.5721L173.433 50.8386M179.885 57.291L185.225 62.6308L155.633 92.445M100.01 156.078H118.254V182.777M118.254 191.9V223.716H50.3936V173.21M50.3936 163.866V156.078H92.2225M162.753 189.452L185.002 211.702L136.944 259.76L100.9 223.716M93.5575 216.374L89.1076 211.924L118.699 182.333M124.039 176.993L137.166 163.866L156.078 182.777M192.122 156.078H223.939V223.939H172.988M162.753 223.939H156.078V182.333M156.078 174.323V155.856H182.777M190.12 110.912L211.924 89.1076L259.983 137.166L224.161 172.988M216.597 180.33L211.924 185.002L182.332 155.633M176.77 150.071L163.866 137.166L182.555 118.477M110.912 105.35V111.134H84.2127M73.7555 110.912H57.0685V57.0685H94.8924M104.237 57.0685H110.912V96.4499M95.7824 133.161L100.01 137.389L81.3203 156.078M74.868 162.531L61.9633 175.435L23.9169 137.389L50.6161 110.689M56.846 104.237L61.7408 99.3423L89.7751 126.932M162.753 74.6455V57.0685H216.597V93.7799M216.597 104.237V110.912H177.883M169.205 110.912H162.531V85.3252M104.015 162.531H110.912V190.12M110.912 199.465V216.374H57.0685V179.663M57.0685 170.54V162.531H95.5599M162.753 200.132L174.545 211.924L136.499 249.971L110.467 223.939M102.902 216.374L98.2298 211.702L125.374 184.557M131.604 178.55L136.499 173.655L156.078 193.235M198.575 162.531H216.374V216.374H180.553M169.873 216.374H162.753V178.773M162.753 170.095V162.531H189.452M199.242 111.134L211.257 99.1198L249.303 137.166L223.939 162.531M216.597 169.873L211.257 175.213L184.557 148.513M178.328 142.284L172.988 136.944L191.677 118.254M162.531 96.0049C171.208 101.345 177.883 109.577 181.888 118.922M184.335 126.042C185.225 129.824 185.67 133.606 185.67 137.389C185.67 143.841 184.335 150.293 181.888 155.856M178.773 162.753C173.433 171.43 165.423 178.55 155.856 182.333M147.623 185.002C144.286 185.67 140.726 186.115 137.166 186.115C130.491 186.115 124.039 184.78 118.254 182.333M110.912 178.328C102.68 172.988 96.0049 164.978 92.2225 155.856M89.7751 147.846C89.1076 144.509 88.6626 140.949 88.6626 137.389C88.6626 130.714 89.9976 124.262 92.445 118.477M96.4499 110.912C101.79 102.457 109.8 96.0049 119.144 92.2225M126.264 89.9976C129.824 89.1076 133.384 88.6626 137.166 88.6626C143.619 88.6626 150.071 89.9976 155.856 92.445M162.753 104.682C169.205 109.577 174.1 116.697 176.77 124.484M178.328 131.826C178.55 133.606 178.773 135.609 178.773 137.389C178.773 144.064 177.215 150.293 174.545 155.856M170.318 162.531C165.2 169.205 158.303 174.1 150.293 176.993M141.616 178.773C140.281 178.995 138.724 178.995 137.166 178.995C130.491 178.995 124.039 177.438 118.254 174.545M110.912 169.65C104.905 164.755 100.232 158.081 97.7848 150.516M95.7824 141.616C95.5599 140.281 95.5599 138.724 95.5599 137.389C95.5599 130.491 97.3398 124.039 100.232 118.254M105.127 111.134C110.244 104.905 116.919 100.232 124.707 97.7848M131.826 96.2274C133.606 96.0049 135.386 96.0049 137.166 96.0049C143.619 96.0049 150.516 97.5623 156.078 100.455M141.394 96.0049L136.721 100.677L118.254 82.4328M110.689 74.868L98.4523 62.6308L136.721 24.5844L162.753 50.6161M169.428 57.291L174.768 62.6308L147.401 89.9976M86.2151 223.939C90.665 230.836 98.2298 235.286 106.907 235.286C108.687 235.286 110.244 235.064 111.802 234.841M118.922 232.171C126.042 228.389 130.936 221.046 131.604 212.592C131.826 204.582 122.927 204.137 121.369 209.699C119.589 199.91 129.156 197.017 135.386 202.357C130.936 197.907 131.826 190.342 137.389 187.005C142.951 190.342 143.841 197.907 139.391 202.357C145.621 197.017 155.188 199.91 153.408 209.699C151.628 204.137 142.951 204.582 143.174 212.592C143.841 220.601 148.513 227.721 154.966 231.504M82.8777 216.597C80.8753 209.032 82.6553 200.8 87.9951 194.57C93.5575 188.785 100.01 194.792 97.3398 199.91C105.35 194.125 100.677 185.447 92.6675 184.78C98.8973 184.78 103.57 178.773 102.012 172.543C95.7824 170.985 89.9975 175.213 89.9975 181.665C89.3301 173.433 80.6528 168.983 74.868 176.993C79.9853 174.323 85.9927 180.775 80.2078 186.337C74.6455 191.232 67.3032 193.012 60.1834 191.9C59.5159 191.677 57.9584 191.455 57.0685 191.01M123.149 236.399C130.936 231.504 136.499 223.049 137.166 213.259C137.834 222.604 143.174 230.836 150.516 235.954M116.697 239.513C113.582 240.626 110.244 241.071 106.907 241.071C94.8924 241.071 84.4352 233.951 79.5403 223.939M76.8704 216.374C76.4254 214.594 76.4254 212.592 76.4254 210.589C76.4254 202.579 79.5403 195.682 84.6577 189.452C77.9829 194.57 72.198 197.685 64.1883 197.685C62.1858 197.685 59.0709 197.24 57.0685 196.795M157.636 239.513C160.751 240.626 164.088 241.071 167.425 241.071C179.44 241.071 189.897 233.951 194.792 223.939M197.24 216.374C197.685 214.594 197.685 212.592 197.685 210.589C197.685 205.249 196.127 200.355 193.68 195.682C192.345 193.235 190.787 191.232 189.23 189.007C192.122 191.232 194.792 193.235 197.907 194.792C202.134 196.795 206.362 198.13 211.034 198.13C213.037 198.13 214.817 197.907 216.819 197.462M235.954 150.516C230.836 143.174 222.826 138.279 213.482 137.389C222.826 136.499 230.836 131.381 235.954 124.039M239.513 157.413C240.626 160.528 241.293 164.088 241.293 167.648C241.293 179.663 234.396 190.12 224.161 195.015M127.154 199.91C123.817 195.905 127.822 190.787 132.716 193.012M101.345 179.663C106.017 181.443 105.127 187.895 100.01 188.34M50.6161 86.2152C43.7188 90.665 39.2689 98.2298 39.2689 106.907C39.2689 108.687 39.4914 110.245 39.7139 111.802M42.3839 118.699C46.3887 125.597 53.5086 130.714 61.9633 131.381C69.9731 131.604 70.4181 122.704 64.8557 121.147C74.6455 119.367 77.5379 128.934 72.198 135.164C76.6479 130.714 83.9902 131.381 87.3276 136.944C83.9902 142.506 76.6479 143.619 72.198 139.169C77.5379 145.399 74.6455 154.966 64.8557 153.186C70.4181 151.406 69.9731 142.729 61.9633 142.951C53.5086 143.619 46.3887 148.513 42.6064 155.633M57.0685 83.1002C57.5134 83.1002 58.8484 82.6552 59.2934 82.6552C66.4132 81.0978 74.2005 82.8777 79.9853 87.9951C85.7702 93.5575 79.7628 100.01 74.6455 97.3399C80.4303 105.35 89.1076 100.677 89.7751 92.6675C89.7751 98.8973 96.0049 103.792 102.235 102.235C103.792 96.0049 99.3423 89.7751 93.1125 89.7751C101.345 89.3301 105.795 80.4303 97.7848 74.6455C100.455 79.7628 94.0024 85.7702 88.4401 79.9853C83.3227 73.978 81.5428 66.1907 83.1002 59.0709C83.1002 58.6259 83.3227 57.9584 83.5452 57.5134M38.1565 122.927C43.0513 130.714 51.5061 136.054 61.2958 136.944C51.5061 137.834 43.2738 143.396 38.1565 151.183M35.2641 116.697C34.1516 113.582 33.7066 110.244 33.7066 106.907C33.7066 94.8924 40.6039 84.4352 50.8386 79.5403M57.0685 77.0929C58.8484 76.6479 61.9633 76.4254 63.9658 76.4254C69.5281 76.4254 74.868 77.9829 79.5403 80.6528C81.7653 81.9878 83.3227 83.3227 85.3252 84.8802C84.2127 83.5452 83.1002 82.2103 81.9878 80.6528C78.4279 75.758 76.8704 69.9731 76.8704 63.7433C76.8704 61.7408 77.0929 59.0709 77.5379 57.0685M74.868 127.154C78.8729 123.817 83.9902 127.822 81.7653 132.716M94.8924 101.122C93.1125 105.795 86.6601 104.905 86.2151 99.7873M86.8826 50.3936C91.3325 43.4963 98.8973 39.0465 107.575 39.0465C109.355 39.0465 110.912 39.269 112.469 39.4914M119.367 42.1614C126.487 45.9438 131.381 53.2861 132.049 61.7408C132.271 69.7506 123.372 70.1956 121.814 64.6333C120.034 74.423 129.601 77.3154 135.831 71.9755C131.381 76.4254 132.271 84.2127 137.834 87.5501C143.396 84.2127 144.286 76.4254 139.836 71.9755C146.066 77.3154 155.633 74.423 153.853 64.6333C152.073 70.1956 143.396 69.7506 143.619 61.7408C144.286 53.7311 148.736 46.8337 155.188 42.8289M123.594 37.934C131.381 42.8289 136.721 51.2836 137.611 61.0734C138.501 51.7286 143.396 43.7188 150.738 38.824M117.364 35.0416C114.249 33.9291 110.912 33.4841 107.575 33.4841C95.5599 33.4841 85.1027 40.6039 80.2078 50.6161M127.822 74.6455C124.707 78.6504 128.489 83.5452 133.384 81.5428M102.012 94.6699C106.685 92.89 105.795 86.4376 100.677 85.9927M224.161 86.4377C231.059 90.8875 235.509 98.4523 235.509 107.13C235.509 108.91 235.286 110.467 235.064 112.024M231.949 119.589C227.944 126.264 221.046 130.936 212.814 131.604C204.804 131.826 204.359 123.149 209.922 121.369C200.132 119.812 197.24 129.156 202.579 135.386C198.13 130.936 190.565 132.049 187.227 137.389C190.565 142.951 198.13 143.841 202.579 139.169C197.24 145.399 200.132 154.966 209.922 153.186C204.359 151.406 204.804 142.729 212.814 142.951C220.824 143.619 227.721 148.068 231.726 154.521M216.819 83.1002C209.254 81.0978 201.022 82.8777 194.792 88.2176C189.007 93.7799 195.015 100.232 200.132 97.5624C194.347 105.572 185.67 101.122 185.002 92.89C185.002 99.1198 178.995 104.015 172.765 102.457C171.208 96.2274 176.103 89.5526 182.555 89.7751C174.1 89.1076 169.428 80.2078 177.66 74.423C174.99 79.5403 181.443 85.5477 187.005 79.7628C192.122 73.7555 193.902 65.9682 192.345 58.8484C192.345 58.4034 191.9 57.5134 191.9 57.0685M239.736 116.697C240.848 113.582 241.293 110.244 241.293 106.907C241.293 94.8924 234.174 84.4352 223.939 79.5403M216.374 77.0929C214.594 76.6479 212.592 76.6479 210.589 76.6479C202.579 76.6479 196.127 79.9853 189.675 85.3252C194.57 79.0954 198.352 71.9756 198.352 63.9658C198.352 61.9633 197.907 59.2934 197.462 57.291M200.132 127.377C196.127 124.262 191.232 128.266 193.235 132.939M179.885 101.567C181.665 106.24 188.117 105.35 188.562 100.232M188.117 223.939C183.667 230.836 176.103 235.286 167.425 235.286C165.645 235.286 164.088 235.064 162.531 234.841M191.232 216.597C193.235 209.032 191.455 200.8 186.115 194.57C180.553 188.785 174.1 194.792 176.77 199.91C168.76 194.125 173.433 185.447 181.443 184.78C175.213 184.78 170.54 178.773 172.098 172.543C178.328 170.985 184.78 175.658 184.78 182.11C185.225 173.878 194.125 169.205 199.91 177.438C194.792 174.768 188.785 181.22 194.57 186.782C200.799 192.122 208.809 193.68 216.374 191.9M147.178 199.91C150.293 195.905 146.511 190.787 141.616 193.012M172.988 179.663C168.315 181.443 169.205 187.895 174.323 188.34M50.6161 187.895C43.7188 183.445 39.4914 176.103 39.4914 167.425C39.4914 165.645 39.7139 164.088 39.9364 162.531M35.2641 157.636C34.1516 160.751 33.7066 164.088 33.7066 167.425C33.7066 179.218 40.6039 189.452 50.3936 194.57M74.868 146.956C78.8729 150.071 83.7677 146.066 81.7653 141.394M94.8924 172.765C93.1125 168.093 86.6601 168.983 86.2151 174.1M188.785 50.3936C184.335 43.4963 176.77 39.0465 168.093 39.0465C166.313 39.0465 164.31 39.2689 162.753 39.7139M157.858 35.0416C158.303 34.8191 159.416 34.5966 159.861 34.3741C162.531 33.7066 165.2 33.2616 168.093 33.2616C180.108 33.2616 190.565 40.3814 195.46 50.3936M147.623 74.6455C150.961 78.6504 146.956 83.5452 142.061 81.5428M173.655 94.6699C168.983 92.89 169.873 86.4376 174.99 85.9927M223.939 188.562C230.836 184.112 235.731 176.325 235.731 167.648C235.731 165.868 235.286 163.866 235.064 162.308M200.132 147.401C196.127 150.738 191.01 146.733 193.235 141.839M180.108 173.21C181.888 168.538 188.34 169.428 188.785 174.545M51.5061 225.051C49.0587 225.274 44.1638 225.274 41.4939 224.384C41.0489 227.276 41.0489 232.171 41.7164 234.619M96.8949 253.308C94.6699 254.643 90.22 256.645 87.3276 256.868C88.2176 259.76 90.22 263.988 92 265.99M26.5868 190.342C24.1394 189.675 19.912 188.117 17.687 186.337C16.1296 189.007 14.7946 193.457 14.3496 196.127M117.587 258.648C115.584 260.428 111.579 263.098 108.91 263.988C110.244 266.658 113.137 270.44 115.139 272.22M37.489 209.032C34.8191 208.809 30.5917 207.919 27.9218 206.584C26.8093 209.477 26.1418 214.149 26.3643 216.819M78.2054 244.853C75.7579 245.743 70.8631 247.078 68.1931 247.078C68.4156 250.193 69.9731 254.643 71.3081 256.868M19.467 170.985C17.0196 170.095 13.2372 167.648 11.2347 165.645C9.23227 168.093 7.00733 172.543 6.33985 175.213M59.5159 232.171C57.0685 232.616 52.3961 233.061 49.7262 232.394C49.5037 235.509 50.1711 240.403 51.0611 243.073M15.4621 149.626C13.2372 148.291 9.89975 145.176 8.3423 142.729C6.11736 144.731 3.00245 148.736 1.66748 151.183M127.599 259.76C125.819 261.54 122.037 264.655 119.367 265.768C120.924 268.438 124.039 271.998 126.264 273.555M43.7188 217.042C41.0489 217.042 36.599 216.597 34.1516 215.484C33.4841 218.377 33.0391 223.049 33.4841 225.719M86.8826 249.081C84.6577 250.193 79.7628 251.973 76.8704 251.973C77.5379 254.866 79.0953 259.315 80.6528 261.54M22.3594 180.33C19.912 179.44 15.9071 177.438 13.9046 175.658C12.1247 178.105 10.3447 182.778 9.67726 185.447M107.13 256.423C105.127 257.98 100.677 260.428 98.0073 260.873C99.1198 263.765 101.567 267.77 103.57 269.55M31.4817 199.91C29.0342 199.465 24.5843 198.352 22.1369 196.795C20.802 199.465 19.912 204.137 19.6895 206.807M68.4156 238.846C65.9682 239.513 61.5183 240.403 58.6259 239.958C58.6259 243.073 59.7384 247.523 60.8509 249.971M17.0196 160.083C14.7946 158.971 11.0122 156.301 9.45477 153.853C7.45232 156.078 4.5599 160.528 3.66993 162.976M14.5721 137.834C12.5697 136.276 9.67726 133.384 8.3423 130.936C5.89487 132.716 2.33496 136.054 1 138.501M49.7262 51.2836C49.5037 48.8362 49.5037 44.1638 50.3936 41.4939C47.5012 41.0489 43.0513 41.0489 40.3814 41.7164M21.4694 96.6724C20.1345 94.4474 18.3545 90.4425 17.9095 87.5501C15.0171 88.4401 10.7897 90.4425 8.78728 92.2225M84.4352 26.5868C85.1027 24.1394 86.6601 19.912 88.4401 17.687C85.7702 16.1296 81.3203 14.7946 78.6504 14.5721M16.1296 117.364C14.3496 115.362 11.9022 111.802 11.0122 108.91C8.3423 110.244 4.5599 113.137 2.77995 115.139M65.7457 37.489C65.9682 34.8191 66.8582 30.3692 68.1931 27.9218C65.3007 27.0318 60.8509 26.5868 57.9584 26.8093M29.9242 77.7604C29.0342 75.313 27.6993 71.0856 27.9218 68.1932C24.8068 68.6381 20.802 69.7506 18.3545 71.3081M103.792 19.467C104.682 17.0196 107.13 13.2372 109.132 11.2347C106.685 9.23227 102.235 7.00734 99.5648 6.33985M42.1614 59.7384C41.7164 57.291 41.2714 52.6186 41.9389 49.9487C38.824 49.7262 34.5966 50.6161 32.1491 51.5061M125.152 15.2396C126.487 13.0147 129.601 9.67726 132.049 8.11981C130.046 5.89487 126.042 2.77995 123.594 1.66748M14.7946 127.154C13.0147 125.374 10.1222 121.814 9.00978 119.144C6.33985 120.702 3.00244 123.817 1.22249 126.042M57.7359 43.9413C57.7359 41.2714 58.1809 36.8215 59.2934 34.3741C56.401 33.7066 51.7286 33.4841 49.0587 33.7066M25.4743 86.4377C24.3619 84.2127 22.8044 79.7628 22.8044 77.0929C19.912 77.7604 15.4621 79.5403 13.2372 80.8753M94.4474 22.3594C95.3374 19.912 97.3398 15.9071 99.1198 13.9046C96.6724 12.1247 92 10.3447 89.3301 9.67726M18.3545 106.685C16.7971 104.682 14.5721 100.677 14.1271 98.0073C11.2347 99.1198 7.22983 101.567 5.44988 103.57M74.868 31.4817C75.313 29.0342 76.6479 24.5844 78.2054 22.3594C75.5354 21.0245 70.8631 20.1345 68.1931 20.1345M35.9315 68.4157C35.2641 65.9682 34.3741 61.5183 34.8191 58.6259C31.7042 58.6259 27.2543 59.7384 24.8068 60.8509M114.694 17.0196C115.807 14.7946 118.477 11.0122 120.702 9.45477C118.477 7.45233 114.027 4.5599 111.579 3.66993M136.944 14.7946C138.501 12.7922 141.839 9.67726 144.286 8.3423C142.506 5.89487 138.724 2.33496 136.499 1M224.384 50.6161C226.831 50.3936 231.504 50.3936 234.174 51.5061C234.619 48.6137 234.396 43.7188 233.951 41.2714M179.44 21.9144C181.665 20.5795 185.67 18.7995 188.562 18.3545C187.672 15.4621 185.67 11.2347 183.89 9.23228M248.858 85.3252C251.306 85.9927 255.533 87.5501 257.758 89.3301C259.315 86.6601 260.65 82.2103 261.095 79.5403M158.526 16.3521C160.528 14.5721 164.31 12.1247 166.98 11.4572C165.645 8.78729 162.976 5.00489 160.751 3.22494M238.178 66.6357C240.848 66.8582 245.076 67.7482 247.746 69.0831C248.858 66.1907 249.303 61.5183 249.081 58.8484M198.13 30.3692C200.577 29.4792 205.249 28.3667 207.919 28.5892C207.697 25.4743 205.917 21.2469 204.582 18.7995M255.978 104.682C258.425 105.795 262.208 108.02 263.988 110.244C265.99 107.797 268.215 103.347 268.883 100.677M216.152 42.8289C218.599 42.3839 223.271 41.9389 225.941 42.6064C226.164 39.4914 225.496 35.0416 224.606 32.3716M259.76 126.709C261.985 128.044 265.323 131.159 266.658 133.606C268.883 131.604 271.998 127.599 273.332 125.152M148.291 14.7946C150.071 13.0147 153.631 10.1223 156.301 9.23228C154.743 6.56235 151.628 3.22494 149.403 1.66748M231.726 58.6259C234.396 58.6259 238.846 59.0709 241.293 60.4059C242.183 57.5134 242.406 52.8411 241.961 50.1711M189.452 25.9193C191.677 24.8068 196.127 23.2494 198.797 23.2494C198.352 20.357 196.572 15.9071 195.015 13.6822M252.863 95.3374C255.31 96.2274 259.315 98.2298 261.318 100.232C263.098 97.7848 265.1 93.1125 265.545 90.4425M169.205 18.577C171.208 17.0196 175.213 14.7946 178.105 14.3496C176.993 11.4572 174.545 7.45232 172.765 5.44988M243.963 75.9804C246.411 76.4254 250.861 77.7604 253.086 79.3178C254.42 76.6479 255.533 71.9755 255.533 69.3056M207.474 36.599C209.922 35.9315 214.372 35.0416 217.264 35.4866C217.264 32.3716 216.152 27.9218 215.039 25.4743M258.425 115.807C260.65 116.919 263.988 119.812 265.545 122.037C267.77 119.812 270.44 115.584 271.553 112.914M137.611 14.3496C205.249 14.3496 260.428 69.5281 260.428 137.166C260.428 204.804 205.249 259.983 137.611 259.983C69.9731 259.983 14.7946 204.804 14.7946 137.166C14.5721 69.7506 69.9731 14.3496 137.611 14.3496ZM137.389 1.22249C212.592 1.22249 273.777 62.4083 273.777 137.611C273.777 212.814 212.592 274 137.389 274C62.1858 274 1 212.814 1 137.611C1 62.4083 62.4083 1.22249 137.389 1.22249Z" stroke="#D8D9DA" stroke-width="1.57" stroke-miterlimit="22.926"/>
</svg>
