<svg width="275" height="275" viewBox="0 0 275 275" fill="none" xmlns="http://www.w3.org/2000/svg">
<path d="M189.709 180.258C181.753 181.253 173.797 181.253 165.841 180.01M156.642 178.269C155.647 178.021 154.653 177.772 153.658 177.523C150.674 182.993 147.442 187.717 143.464 192.441M252.115 128.792C244.656 117.852 233.219 108.902 220.042 102.686M211.589 99.2052C201.892 95.7244 191.45 93.7354 181.007 93.4867M171.559 93.7354C165.592 94.2326 159.376 95.2272 153.658 96.9676C153.161 95.973 152.912 95.4758 152.415 94.7299M250.872 196.916C245.153 207.607 237.197 219.541 228.247 228.492M221.782 213.574C225.76 212.331 230.484 213.574 233.468 216.558C234.462 217.552 235.208 218.796 235.954 220.039M233.965 233.713C229.241 238.437 221.534 238.437 216.81 233.713C214.572 231.476 213.08 227.746 213.329 224.514M222.031 213.326C214.572 215.812 206.616 216.558 198.411 216.309M188.963 215.066C177.526 213.077 166.338 208.602 156.642 202.137M148.934 196.668C143.713 192.441 139.238 187.717 135.259 182.744M129.79 174.54C128.049 171.308 126.806 168.821 125.812 165.34C118.85 168.821 111.391 170.81 103.435 171.556M215.318 214.818C217.804 201.889 216.312 187.717 211.589 174.788M207.859 166.335C203.881 158.13 198.66 150.671 192.693 143.958M224.766 220.785C222.777 221.282 221.285 222.028 219.793 222.525C212.334 224.763 204.378 225.757 195.925 225.26M186.974 224.265C174.791 222.028 162.609 217.304 151.669 210.342M144.21 204.872C140.481 201.889 136.751 198.905 133.519 195.176C131.281 192.938 129.292 190.203 127.552 187.717M122.082 180.01C121.585 179.015 121.336 178.518 120.839 177.523C114.872 179.264 109.153 180.258 102.938 180.755M224.517 212.58C227.003 199.403 225.263 185.231 220.291 171.556M216.561 162.854C212.086 153.655 206.119 144.953 199.157 137.245M77.8263 251.615C66.638 245.648 54.9524 237.443 45.7532 228.243M45.7532 228.243C44.0128 226.503 44.0128 223.768 45.7532 222.028C47.4936 220.287 50.2285 220.287 51.9689 222.028C53.7093 223.768 53.7093 226.503 51.9689 228.243C50.4771 229.984 47.4936 229.984 45.7532 228.243ZM60.6709 221.531C61.914 225.509 60.6709 230.233 57.6873 233.216C56.6928 234.211 55.4497 234.956 54.2065 235.702M40.532 233.216C35.808 228.492 35.808 221.033 40.532 216.558C42.7696 214.32 46.2504 213.077 49.4826 213.077M60.6709 221.779C58.1846 214.32 57.4387 206.364 57.936 198.159M59.1791 188.712C61.1681 177.275 65.6435 166.335 72.1078 156.39M77.5776 148.931C81.8043 143.71 86.7769 138.986 91.7495 135.008M59.1791 215.315C72.1078 217.801 86.2796 216.309 99.2083 211.585M107.91 207.856C116.115 203.878 124.32 198.408 130.784 192.441M53.212 224.514C52.9634 223.271 52.2175 221.779 51.7203 220.536C50.9744 218.298 50.4771 216.061 49.9798 213.574C48.7367 207.856 48.4881 201.64 48.9853 195.425M49.9798 186.723C52.2175 174.54 56.9415 162.606 64.1517 151.914M69.6215 144.207C74.5941 137.991 80.3126 132.024 86.7769 127.3M61.4168 224.265C74.5941 226.752 88.7659 225.011 102.441 220.287M111.391 216.558C120.59 212.083 129.292 206.364 137 199.154M265.292 148.682C264.049 161.114 261.066 174.788 256.093 186.971M244.407 175.534C247.64 172.799 252.364 172.302 256.342 173.794C257.585 174.291 258.828 175.037 259.822 176.031M263.552 189.457C260.817 195.673 253.607 198.657 247.391 196.17C244.407 194.927 241.921 192.192 240.678 189.209M244.656 175.286C238.689 180.258 231.976 184.236 224.269 186.971M215.069 189.457C203.881 191.944 191.45 192.192 179.764 189.955M170.565 187.717C164.1 185.728 158.133 183.242 152.663 180.01M144.459 174.54C141.724 172.302 139.486 170.313 137.249 167.578C132.027 173.297 125.812 178.021 118.85 181.75M239.186 179.264C236.451 166.335 229.738 153.904 220.539 143.71M213.578 137.245C206.865 131.278 199.157 126.057 190.952 122.576M181.504 118.847C173.797 116.609 166.089 115.366 158.382 115.863C158.631 112.383 158.631 109.15 158.133 105.421M249.877 181.253C248.634 181.999 247.391 183.49 246.148 184.485C240.181 189.706 233.219 193.435 225.263 196.17M216.312 198.657C204.378 201.392 191.201 201.392 178.272 199.154M169.322 197.165C161.614 194.927 154.155 191.944 147.194 187.966M139.486 182.496C138.74 181.75 137.994 181.253 137.249 180.507C132.525 184.236 127.303 187.717 121.834 190.452M246.645 173.794C243.91 160.865 236.949 148.185 227.003 137.494M220.291 130.781C212.583 123.819 203.881 118.101 194.433 113.874M185.482 110.393C179.764 108.404 173.797 107.161 167.581 106.415C167.581 105.421 167.581 104.924 167.333 103.681M220.042 235.702C210.345 243.658 198.411 251.366 186.477 256.339M196.671 251.366C196.671 249.874 196.422 248.631 195.676 247.388C193.936 243.41 190.455 240.675 186.228 240.178C178.272 239.432 170.565 237.194 163.355 233.713M189.461 263.549C183.245 266.035 176.035 263.052 173.548 256.836C172.305 253.852 172.305 249.874 173.797 246.891M155.398 229.238C145.702 223.022 136.751 214.32 130.287 204.872M125.314 196.668C122.082 190.949 119.596 184.733 118.104 178.518M116.115 169.07C115.618 165.589 115.618 162.357 115.866 158.627C108.159 159.125 100.451 158.13 92.744 155.644M179.515 239.183C186.726 227.995 190.952 214.569 191.45 200.894M191.45 191.198C190.952 181.999 188.963 173.048 185.98 164.843M185.98 248.134C185.234 247.885 184.488 248.134 183.742 248.134C175.04 247.885 166.338 245.399 158.133 241.421M149.68 236.697C139.238 229.984 129.79 221.033 122.579 210.342M117.607 202.386C113.629 195.425 110.645 187.966 108.656 180.258M106.916 171.059C106.667 170.064 106.667 169.319 106.667 168.324C100.7 167.578 94.4844 166.335 88.7659 164.346M188.963 240.675C196.174 229.487 200.152 215.563 200.897 200.894M200.649 191.446C200.152 181.253 197.914 170.81 194.185 161.114M38.5429 220.039C30.5868 210.342 22.8793 198.159 17.9067 185.977M22.8793 196.419C24.3711 196.419 25.6142 196.17 27.106 195.425C31.0841 193.684 33.819 190.203 34.3162 185.977C35.0621 178.021 37.0512 170.562 40.532 163.351M11.1938 188.96C8.70749 182.744 11.4424 175.783 17.6581 173.297C20.6417 172.053 24.1225 172.053 27.106 173.545M45.0073 155.395C45.5045 154.898 46.0018 153.655 46.4991 153.158C52.7148 144.207 60.1736 136.5 69.3729 130.532M77.329 125.311C83.2961 122.079 90.0091 119.593 96.2248 117.852M35.3108 179.264C35.808 179.512 36.3053 180.01 36.8025 180.258C47.4936 186.971 60.4223 190.701 73.5996 191.446M83.0475 191.198C91.7495 190.701 100.203 188.96 108.408 186.225C108.905 185.977 109.651 185.977 110.148 185.728M26.3601 185.479C26.6088 184.236 26.3601 182.247 26.6088 180.507C27.3546 172.551 29.3437 165.092 33.0731 157.633M37.797 149.428C44.51 138.986 53.4607 130.035 64.1517 122.576M71.8592 117.852C78.8208 113.874 86.7769 110.642 94.4844 108.653M33.819 188.712C45.0073 195.922 58.6819 199.9 73.3509 200.646M82.7988 200.646C92.9926 200.148 103.684 197.911 113.38 194.43M175.786 260.317C163.603 263.797 150.426 266.284 137.249 266.284M137.249 266.284C134.762 266.284 132.773 264.295 132.773 261.808C132.773 259.322 134.762 257.333 137.249 257.333C139.735 257.333 141.724 259.322 141.724 261.808C141.724 264.295 139.735 266.284 137.249 266.284ZM148.437 265.538C148.934 264.295 149.183 262.803 149.183 261.311C149.183 257.084 146.945 253.106 143.216 251.117C136.254 247.388 130.038 242.415 124.568 236.448M137.497 273.743C130.784 273.743 125.314 268.024 125.314 261.56C125.314 258.328 126.806 254.847 129.292 252.609M118.85 229.238C112.137 219.79 107.413 208.353 104.927 196.916M105.673 158.627C106.667 155.147 107.91 152.163 109.402 149.18C102.192 146.693 95.2303 142.715 89.2632 137.743M137.249 247.388C148.188 239.929 157.139 228.989 162.857 216.558M166.587 207.856C169.57 199.154 171.311 190.203 171.559 181.253M171.311 171.308C170.565 163.351 168.327 156.141 164.846 149.18C168.078 147.936 171.311 146.693 174.543 144.953M139.735 258.328C137.994 257.333 136.254 256.836 134.514 255.841C127.801 252.112 121.834 247.388 116.364 241.421M110.645 233.962C103.684 223.768 98.4624 211.834 95.7275 199.154M94.2358 189.955C93.2412 181.999 93.2412 174.042 94.4844 166.086M96.4734 156.887C96.722 155.893 96.9707 155.395 97.2193 154.401C91.7495 151.417 86.7769 147.936 82.3016 143.958M145.453 252.36C156.393 244.902 165.344 233.465 171.559 220.287M175.04 211.834C178.521 202.137 180.51 191.695 180.759 181.501M180.759 171.805C180.261 165.589 179.267 159.622 177.526 153.904C178.521 153.655 179.018 153.406 179.764 152.909M126.06 265.538C113.629 264.295 99.457 261.311 87.2741 256.339M98.4624 260.068C99.457 259.073 100.203 257.83 100.7 256.587C102.192 252.609 101.695 247.885 98.9597 244.653C93.9871 238.686 90.0091 231.476 87.2741 224.017M84.7879 263.3C78.8208 260.814 75.8372 253.604 78.3235 247.637C79.5667 244.653 82.3016 241.918 85.2851 240.924M84.7879 214.818C82.3016 203.629 82.3016 191.695 84.2906 180.258M86.5283 171.059C88.5173 164.595 91.2522 158.13 94.4844 152.66M99.7056 144.953C101.943 142.218 104.181 139.98 106.916 137.494C101.197 132.521 96.4734 126.057 92.744 119.095M94.9817 239.183C107.91 236.448 120.342 229.735 130.536 220.536M137.249 213.823C142.718 207.856 147.194 200.894 150.674 193.933C151.172 192.938 151.669 191.695 152.166 190.701M155.647 181.75C157.885 174.042 158.631 166.584 158.382 158.876C161.863 159.125 165.344 159.125 169.073 158.627M93.2412 249.874C92.4954 248.631 90.7549 247.388 89.7604 245.896C84.7879 239.929 81.0584 232.719 78.3235 224.763M75.5886 216.309C72.8537 204.375 72.8537 191.446 75.0914 178.766M77.329 169.319C79.5667 161.611 82.5502 154.152 86.7769 147.191M92.2467 139.732C92.9926 138.986 93.2413 138.489 93.7385 137.743C90.0091 133.019 86.5283 127.798 83.7934 122.328M100.7 246.891C113.629 244.156 126.309 237.194 137 227.249M143.713 220.287C150.674 212.58 156.393 204.127 160.62 194.679M164.1 185.728C166.089 180.01 167.333 174.042 168.078 167.827C169.073 167.827 169.57 167.827 170.813 167.578M13.9287 175.534C10.4479 164.097 8.21023 149.925 8.21023 137.245M23.3766 143.212C21.3876 146.942 17.1609 149.428 12.9342 149.428C11.4424 149.428 10.1993 149.18 8.70749 148.682M1 137.494C1 130.781 6.46983 125.56 12.9342 125.56C16.1663 125.56 19.3985 127.052 21.6362 129.289M23.3766 143.461C27.106 136.5 32.0786 130.284 38.0457 124.814M45.5045 118.847C54.9524 112.134 66.1407 107.41 77.5776 105.172M86.7769 103.681C93.4899 102.935 99.9542 102.935 106.419 103.929M115.866 105.67C119.347 106.664 122.331 107.907 125.563 109.399C128.049 102.189 132.027 95.4758 137.249 89.2601M27.106 137.991C34.8135 148.682 45.7532 157.384 57.936 163.351M66.638 166.832C74.3455 169.567 82.5502 171.308 90.755 171.556C91.5008 171.556 92.744 171.556 93.7385 171.556M16.1664 140.229C19.8958 131.278 25.8629 123.322 33.3217 116.609M40.532 111.139C50.7257 104.178 62.6599 98.9566 75.34 96.2217M84.5392 94.4813C92.4954 93.4868 100.451 93.4867 108.408 94.7299M117.855 96.4703C118.85 96.7189 119.347 96.9675 120.342 97.2162C123.325 91.7463 126.806 86.7738 130.784 82.2985M22.1334 145.947C29.8409 156.638 41.2778 165.589 54.2065 172.053M62.9085 175.286C72.6051 178.766 83.0475 180.755 93.4899 181.004M23.128 77.8231C29.095 66.6348 36.8025 55.4466 46.0018 46.2473M38.2943 54.7007C38.7916 55.9438 39.7861 57.187 40.7806 58.1815C43.7641 61.165 48.2395 62.4082 52.2175 61.165C60.1736 58.9274 67.6325 57.9328 75.8372 58.1815M40.7806 41.2747C45.5045 36.7994 52.9634 36.7994 57.4387 41.2747C59.6764 43.5124 60.9195 46.9932 60.9195 50.2254M85.2851 59.4246C96.722 61.4136 107.91 65.889 117.607 72.3533M125.563 77.8231C130.784 82.0498 135.259 86.7738 139.238 91.7463M58.9305 59.9219C56.4442 72.8506 58.1846 86.7738 62.9085 99.7025M66.3893 108.404C70.3674 116.609 75.5886 124.068 81.5557 130.532M49.7312 53.9548C51.4716 53.4575 52.7148 52.7116 54.4552 52.2144C62.1627 49.7281 70.3674 48.9822 78.5721 49.4795M87.5228 50.474C99.7056 52.7116 111.888 57.4356 122.828 64.3972M130.287 69.867C136.503 74.8396 142.221 80.558 147.194 86.7738M49.7312 61.9109C47.2449 75.0882 48.9853 89.5087 53.9579 103.183M57.6873 111.885C62.1627 121.085 68.1297 129.787 75.0914 137.494M196.671 23.1248C207.859 29.0919 219.545 37.2967 228.744 46.4959M213.578 52.9603C212.334 48.9822 213.578 44.2583 216.561 41.2747C217.556 40.2802 218.799 39.5343 220.042 38.7884M233.965 41.0261C238.689 45.75 238.44 53.7062 233.716 58.1815C231.479 60.4191 228.247 61.9109 224.766 61.6623M213.578 52.7116C215.815 60.1705 216.81 68.1266 216.312 76.3314M215.318 85.5306C215.318 86.2765 215.069 87.271 214.821 87.7683C212.583 98.4593 208.108 108.902 202.141 118.101M196.671 125.808C192.444 131.03 187.72 135.505 182.499 139.483M215.069 59.4246C202.141 56.9383 187.969 58.4301 175.04 63.154M166.338 66.6348C158.133 70.6129 149.929 76.0827 143.464 82.0498M221.036 50.2254C221.285 51.4685 222.031 52.7116 222.28 53.7062C225.014 61.6623 225.76 70.1156 225.263 79.0663M224.269 88.0169C222.031 100.2 217.307 112.383 210.097 123.322M204.627 130.781C199.654 136.997 193.936 142.715 187.472 147.439M213.08 50.2254C199.903 47.7391 185.482 49.4795 171.808 54.2034M163.106 57.9328C153.907 62.4082 144.956 68.1266 137.497 75.3368M8.95612 126.554C10.1993 114.123 13.1828 100.2 18.1554 88.0169M18.1554 88.0169C19.1499 85.7793 21.6362 84.5361 23.8738 85.5306C26.1115 86.5251 27.106 89.0114 26.1115 91.2491C25.117 93.4868 22.6307 94.7299 20.393 93.7354C18.1554 92.9895 17.1609 90.5032 18.1554 88.0169ZM29.8409 99.2052C26.6088 101.94 21.8848 102.437 17.9067 100.946C16.6636 100.448 15.4205 99.7025 14.4259 98.708M11.691 85.0334C14.1773 79.0663 21.1389 76.0827 27.106 78.569C30.0896 79.8122 32.5758 82.5471 33.5704 85.5306M29.8409 99.4538C35.808 94.4813 43.0182 90.5032 50.4771 87.7683M59.6764 85.0334C70.8647 82.5471 83.0475 82.5471 94.4844 84.5361M103.684 86.7738C110.148 88.7628 116.115 91.2491 121.585 94.4813M129.79 100.2C132.525 102.437 135.011 104.675 137.249 107.41C142.47 101.691 148.685 96.9676 155.647 93.2381M35.3108 95.4758C38.0457 108.404 44.7587 120.836 53.9579 131.03M60.6709 137.494C67.3839 143.461 75.5886 148.682 83.5447 152.412M24.3711 93.4867C25.8629 92.4922 26.6088 91.2491 27.8519 90.2546C33.819 85.0334 41.0292 81.3039 48.9853 78.569M58.1846 76.0827C70.1188 73.3478 83.2961 73.3478 96.2248 75.5855M105.175 77.5745C112.883 79.8122 120.342 82.7957 127.303 86.7738M134.762 92.2436C135.508 92.9895 136.254 93.2381 137 93.984C141.724 90.2546 146.945 86.7738 152.415 84.2875M27.6033 100.697C30.3382 113.626 37.2998 126.554 47.2449 137.245M53.9579 143.958C61.6654 150.92 70.3674 156.638 79.8153 160.865M53.9579 39.0371C63.6544 31.0809 75.8372 23.3735 87.7714 18.1523M77.5776 23.1248C77.5776 24.6166 77.8263 25.8597 78.5721 27.3515C80.3125 31.3296 83.7934 34.0645 88.02 34.5617C95.9762 35.3076 103.684 37.5453 110.894 41.0261M85.0365 11.6879C91.0036 9.20162 98.2138 12.1852 100.7 18.1523C101.943 21.1358 101.695 24.8652 100.451 27.8488M119.099 45.5014C128.795 51.7171 137.497 60.1705 143.961 69.867M149.183 77.8231C152.415 83.5416 154.901 90.006 156.393 96.2217M94.733 35.8049C87.2741 46.7446 83.5447 60.4191 82.7988 74.0937M83.0475 83.5416C83.5447 92.7409 85.5337 101.691 88.5173 109.896M88.5173 26.6056C90.2577 26.8543 91.7495 26.6056 93.4899 26.8543C101.446 27.6001 109.402 29.8378 116.861 33.5672M124.568 38.0425C135.011 44.7555 144.459 53.7061 151.669 64.3972M156.89 72.3533C160.868 79.3149 163.852 87.0224 165.841 94.7299M85.2851 34.0645C78.0749 45.2528 74.0968 59.4246 73.5996 73.8451M73.5996 83.293C74.0968 93.4867 76.3345 103.929 80.0639 113.626M235.954 54.7007C243.91 64.3972 251.618 76.58 256.59 88.7628M251.618 78.3204C250.126 78.3204 248.883 78.569 247.391 79.3149C243.413 81.0553 240.678 84.5361 240.181 88.7628C239.435 96.7189 237.446 103.929 233.965 111.139M263.303 84.7847C265.79 91.0005 262.806 97.9621 256.59 100.448C253.607 101.691 250.126 101.691 247.142 100.2M229.49 119.095C229.49 119.344 228.744 120.09 228.744 120.339C222.528 129.787 214.075 138.24 204.627 144.704M196.422 149.677C190.455 152.909 184.488 155.147 178.272 156.887M238.938 95.2271C238.689 95.2271 238.44 94.9785 238.192 94.7299C227.252 87.5197 214.075 83.7902 200.649 83.293M191.201 83.293C182.002 83.7902 172.802 85.7793 164.349 88.7628M248.137 89.0114C247.888 90.2546 248.137 91.2491 248.137 92.4922C247.64 100.697 245.402 108.653 241.424 116.609M236.451 125.311C229.738 135.754 220.539 144.953 209.848 152.412M202.141 157.136C195.179 161.114 187.72 164.097 179.764 166.086M240.678 86.0279C240.429 85.7793 239.932 85.5306 239.684 85.282C228.744 78.3204 215.318 74.591 201.146 73.8451M191.698 74.0937C181.504 74.591 171.062 76.58 161.117 80.3094M228.495 228.243C226.755 229.984 224.02 229.984 222.28 228.243C220.539 226.503 220.539 223.768 222.28 222.028C224.02 220.287 226.755 220.287 228.495 222.028C230.236 223.768 230.236 226.503 228.495 228.243ZM256.342 186.723C255.347 188.96 252.861 189.955 250.623 189.209C248.386 188.214 247.391 185.728 248.386 183.49C249.38 181.253 251.866 180.01 254.104 181.004C256.093 181.75 257.336 184.236 256.342 186.723ZM186.726 256.339C184.488 257.333 181.753 256.339 181.007 254.101C180.261 251.863 181.256 249.377 183.493 248.382C183.742 248.382 183.742 248.134 183.991 248.134C186.228 247.637 188.466 248.631 189.212 250.62C189.958 252.858 188.963 255.344 186.726 256.339ZM17.9067 186.225C16.9122 183.988 18.1554 181.253 20.393 180.507C22.6307 179.512 25.117 180.755 26.1115 182.993C27.106 185.231 25.8629 187.966 23.6252 188.712C21.3876 189.706 18.9013 188.463 17.9067 186.225ZM87.7714 256.339C85.5338 255.344 84.2906 252.858 85.2851 250.62C86.2796 248.382 88.7659 247.388 91.0036 248.382C93.2412 249.377 94.4844 251.863 93.4899 254.101C92.744 256.339 90.0091 257.333 87.7714 256.339ZM8.21023 137.494C8.21023 135.008 10.1993 133.019 12.6855 133.019C15.1718 133.019 17.1609 135.008 17.1609 137.494C17.1609 139.98 15.1718 141.969 12.6855 141.969C10.1993 141.969 8.21023 139.98 8.21023 137.494ZM45.7532 46.4959C47.4936 44.7555 50.2285 44.7555 51.9689 46.4959C53.7093 48.2363 53.7093 50.9712 51.9689 52.7116C50.2285 54.452 47.4936 54.452 45.7532 52.7116C44.0128 50.9712 44.0128 48.2363 45.7532 46.4959ZM228.495 46.4959C230.236 48.2363 230.236 50.9712 228.495 52.7116C226.755 54.452 224.02 54.452 222.28 52.7116C220.539 50.9712 220.539 48.2363 222.28 46.4959C224.02 44.5069 226.755 44.7555 228.495 46.4959ZM87.5228 18.4009C89.7604 17.4064 92.4954 18.4009 93.2412 20.6385C94.2358 22.8762 92.9926 25.3625 90.755 26.357C88.5173 27.3515 85.7824 26.357 85.0365 24.1193C84.2906 21.8817 85.2851 19.3954 87.5228 18.4009ZM256.342 88.5142C257.336 90.7518 256.093 93.4867 253.855 94.2326C251.618 95.2271 249.131 93.984 248.137 91.7463C247.142 89.5087 248.386 86.7738 250.623 86.0279C252.861 85.0334 255.596 86.0279 256.342 88.5142Z" stroke="#D8D9DA" stroke-width="1.5" stroke-miterlimit="22.926"/>
<path d="M136.751 247.391C132.276 244.408 128.298 240.927 124.568 236.7M103.186 187.969C102.44 181.256 102.44 174.294 103.435 167.83M98.2138 14.6746C110.397 11.1938 124.32 8.45886 137.497 8.45886M125.812 8.95612C125.314 10.4479 125.066 11.691 125.066 13.1828C125.066 17.4095 127.552 21.6362 131.281 23.6252C138.243 27.3546 144.459 32.3272 149.929 38.2943M137.249 1C143.961 1 149.183 6.46983 149.183 13.1828C149.183 16.415 147.691 19.8958 145.453 22.1334M155.647 45.5045C162.36 54.9524 167.084 66.3894 169.57 77.8263M171.062 87.0255C171.808 93.7385 171.808 100.203 170.813 106.667M168.824 116.115C167.83 119.596 166.587 122.579 165.095 125.563C172.305 128.049 179.267 132.027 185.234 137M137 27.106C126.06 34.5649 117.11 45.5045 111.391 57.936M107.91 66.8866C104.927 75.5886 103.186 84.5392 102.938 93.4899M103.186 103.435C103.932 111.391 105.921 119.099 109.402 125.812C106.17 127.055 103.186 128.049 99.9542 129.79M134.514 16.415C135.259 16.9122 136.005 17.1609 136.751 17.4095C144.707 21.1389 151.669 26.6088 157.885 33.5704M163.603 40.7806C170.565 50.9744 175.786 62.9085 178.521 75.5886M180.013 84.7879C180.51 88.7659 180.759 92.744 180.759 96.7221C180.759 100.7 180.261 104.678 179.764 108.656M177.775 117.855C177.526 118.85 177.278 119.347 177.029 120.342C182.499 123.325 187.472 126.806 191.947 130.784M129.044 22.1334C118.104 29.5923 108.905 41.0292 102.938 54.2065M99.2083 62.9085C95.7275 72.6051 93.7385 83.0475 93.4899 93.2412M93.7385 102.938C94.2358 108.905 95.2303 115.121 96.9707 120.839C95.9761 121.336 95.4789 121.585 94.733 122.082M148.188 9.20475C160.62 10.4479 174.791 13.6801 186.974 18.6526M176.035 14.6746C175.04 15.6691 174.294 16.9122 173.797 18.1554C172.057 22.1334 172.802 26.6088 175.289 29.8409C180.261 35.808 184.239 43.0183 186.974 50.4771M189.461 11.4424C195.676 13.9287 198.411 21.1389 195.925 27.3546C194.682 30.3382 191.947 32.8245 188.963 34.0676M189.461 59.925C191.947 71.1133 191.947 83.0475 189.958 94.4844M187.72 103.684C187.471 104.181 187.472 104.927 187.223 105.424C185.482 111.391 182.996 116.861 179.764 122.082M174.543 129.79C172.305 132.525 170.067 134.762 167.333 137.249C173.051 142.221 177.775 148.685 181.504 155.647M179.267 35.5594C179.018 35.5594 178.521 35.808 178.272 35.808C165.592 38.5429 153.658 45.2559 143.713 54.2065M137 60.9195C131.033 67.6325 125.812 75.34 122.082 83.5447M118.601 92.9926C116.364 100.7 115.121 108.408 115.618 116.115C112.137 115.866 108.905 115.866 105.424 116.115M181.256 24.6197C182.002 25.6142 182.996 26.3601 183.742 27.106C189.212 33.5704 193.439 41.0292 196.422 49.4826M198.66 58.4332C201.395 70.3674 201.395 83.2961 199.157 95.9762M196.919 105.424C194.682 113.132 191.698 120.59 187.471 127.552M182.499 135.011C181.753 135.757 181.504 136.254 180.759 137C184.488 141.724 187.969 146.945 190.704 152.415M173.797 27.8519C160.868 30.5868 147.94 37.797 137.249 47.4936M130.784 54.2065C123.823 61.914 118.104 70.616 113.877 80.0639M110.148 89.0146C108.159 94.733 106.916 100.7 106.419 106.916C105.424 106.916 104.678 107.164 103.684 107.164M259.822 98.4624C263.552 110.645 266.038 124.32 266.038 137.249M265.541 125.812C264.049 125.314 262.806 125.066 261.314 125.066C257.088 125.066 252.861 127.552 250.872 131.281C247.142 138.243 242.17 144.459 236.203 149.929M273.994 137.249C273.994 143.962 268.524 149.431 261.563 149.431C258.331 149.431 254.601 147.691 252.364 145.205M228.744 155.896C219.296 162.609 208.108 167.333 196.671 169.57M187.471 171.062C180.759 171.808 174.294 171.808 167.83 170.813M158.382 168.824C154.901 167.83 151.918 166.835 148.685 165.095C146.199 172.305 142.47 179.267 137.249 185.234M247.142 136.751C239.684 125.812 228.744 117.11 216.312 111.391M207.61 107.91C198.908 104.927 189.709 103.186 181.007 102.938M171.062 103.186C163.106 103.932 155.398 105.921 148.685 109.402C147.442 106.17 146.448 103.186 144.707 100.203M258.082 134.514C257.585 135.26 257.336 136.005 257.088 136.751C253.358 144.707 247.888 151.918 240.927 157.885M233.716 163.603C223.523 170.565 211.588 175.786 198.908 178.521M137.497 1C212.583 1 273.994 62.1627 273.994 137.497C273.994 212.832 212.583 273.746 137.497 273.746C62.4113 273.746 1 212.583 1 137.249C1 61.914 62.4113 1 137.497 1ZM137 8.45886C139.486 8.45886 141.475 10.4479 141.475 12.9342C141.475 15.4205 139.486 17.4095 137 17.4095C134.514 17.4095 132.525 15.4205 132.525 12.9342C132.773 10.4479 134.762 8.45886 137 8.45886ZM186.477 18.404C188.715 19.3985 189.958 21.8848 188.963 24.1225C187.969 26.3601 185.482 27.3546 183.245 26.3601C181.007 25.3656 179.764 22.8793 180.759 20.6417C181.753 18.404 184.239 17.4095 186.477 18.404ZM266.038 137C266.038 139.486 264.049 141.475 261.563 141.475C259.077 141.475 257.088 139.486 257.088 137C257.088 134.514 259.077 132.525 261.563 132.525C264.049 132.525 266.038 134.514 266.038 137Z" stroke="#D8D9DA" stroke-width="1.5" stroke-miterlimit="22.926"/>
</svg>
