<svg width="32" height="27" viewBox="0 0 32 27" fill="none" xmlns="http://www.w3.org/2000/svg">
<rect x="1" y="25.5469" width="15.4545" height="19.8182" rx="2" transform="rotate(-90 1 25.5469)" stroke="#42CFEE" stroke-width="2"/>
<path d="M5.82031 22.5469L5.82031 16.7287" stroke="#42CFEE" stroke-width="2" stroke-linecap="round"/>
<path d="M13.8203 22.5469L13.8203 21.0923" stroke="#42CFEE" stroke-width="2" stroke-linecap="round"/>
<path d="M10.1797 22.5469L10.1797 14.5469" stroke="#42CFEE" stroke-width="2" stroke-linecap="round"/>
<path d="M18.686 6.16312C18.9854 5.24181 20.2888 5.24181 20.5881 6.16312L21.0128 7.47011C21.4144 8.70618 22.5663 9.54306 23.866 9.54306H25.2402C26.2089 9.54306 26.6117 10.7827 25.828 11.3521L24.7162 12.1598C23.6648 12.9238 23.2248 14.2779 23.6264 15.5139L24.0511 16.8209C24.3504 17.7423 23.2959 18.5084 22.5122 17.939L21.4004 17.1312C20.349 16.3673 18.9252 16.3673 17.8737 17.1312L16.7619 17.939C15.9782 18.5084 14.9237 17.7423 15.2231 16.8209L15.6477 15.514C16.0494 14.2779 15.6094 12.9238 14.5579 12.1598L13.4461 11.3521C12.6624 10.7827 13.0652 9.54306 14.0339 9.54306H15.4082C16.7079 9.54306 17.8597 8.70618 18.2613 7.47011L18.686 6.16312Z" fill="#F5F5F5" stroke="#42CFEE" stroke-width="2"/>
</svg>
