<svg width="34" height="24" viewBox="0 0 34 24" fill="none" xmlns="http://www.w3.org/2000/svg">
<circle cx="9.60312" cy="6.4" r="5.4" stroke="#6442EE" stroke-width="2"/>
<circle cx="25.2" cy="9.2" r="4.2" stroke="#6442EE" stroke-width="2"/>
<path d="M18.1889 23H1.01111C1.16548 19.0894 2.91799 15.6208 5.591 13.2802C6.73717 14.0697 8.11568 14.533 9.6 14.533C11.0844 14.533 12.4629 14.0697 13.609 13.2802C16.282 15.6208 18.0345 19.0894 18.1889 23Z" stroke="#6442EE" stroke-width="2"/>
<path d="M20.8907 23.9984L20.9141 23.9968L20.9571 23.9954C20.9568 23.9963 20.9565 23.9973 20.9562 23.9984H20.8907ZM33.5003 23.8984H20.9601L20.9541 23.7856C20.9583 23.6411 20.9603 23.496 20.9603 23.3505C20.9603 23.2035 20.9582 23.0571 20.954 22.9112C20.94 22.4279 20.903 21.9506 20.844 21.4803H30.737H30.8696L30.8332 21.3528C30.4171 19.8957 29.6113 18.5681 28.5005 17.4809L28.4523 17.4337L28.3905 17.4607C27.3826 17.9014 26.2695 18.143 25.1079 18.143C23.9463 18.143 22.8332 17.9014 21.8254 17.4607L21.7636 17.4337L21.7154 17.4809C21.194 17.9912 20.7398 18.5544 20.3616 19.1592C20.096 18.2541 19.7465 17.3863 19.3225 16.5653C19.9662 15.7986 20.7121 15.1117 21.5408 14.523C22.5132 15.2745 23.7553 15.7248 25.1079 15.7248C26.4605 15.7248 27.7027 15.2745 28.675 14.523C31.0032 16.1768 32.677 18.6053 33.2686 21.401C33.3993 22.0186 33.4772 22.6544 33.4977 23.3038C33.5013 23.4186 33.5031 23.5339 33.5031 23.6495C33.5031 23.7327 33.5022 23.8157 33.5003 23.8984Z" fill="#6442EE" stroke="#F5F5F5" stroke-width="0.2"/>
</svg>
