<svg width="20" height="25" viewBox="0 0 20 25" fill="none" xmlns="http://www.w3.org/2000/svg">
<path d="M9.5 8.44531V14.2915H13.8846" stroke="#DD264E" stroke-width="2" stroke-linecap="round"/>
<mask id="mask0_2762_33612" style="mask-type:alpha" maskUnits="userSpaceOnUse" x="0" y="5" width="19" height="20">
<circle cx="9.5" cy="14.5352" r="8.5" stroke="#DD264E" stroke-width="2"/>
</mask>
<g mask="url(#mask0_2762_33612)">
<path d="M-1.94531 3.08594H10.2342V13.5603H22.1701L18.029 24.5218L-1.94531 24.0347V3.08594Z" fill="#DD264E"/>
</g>
<path d="M17.2801 5.18522H13.7407C13.3316 5.18522 13 5.55001 13 6C13 6.44999 13.3316 6.81478 13.7407 6.81478H17.2801L13.8307 10.6091C13.5414 10.9273 13.5414 11.4432 13.8307 11.7614C13.9997 11.9472 14.23 12.0245 14.4499 11.9932C14.6699 12.0245 14.9002 11.9472 15.0692 11.7614L19.783 6.57614C20.0723 6.25795 20.0723 5.74205 19.783 5.42386L15.0692 0.238643C14.9002 0.0527761 14.6699 -0.0245192 14.4499 0.00675746C14.23 -0.0245192 13.9997 0.0527761 13.8307 0.238643C13.5414 0.556834 13.5414 1.07272 13.8307 1.39091L17.2801 5.18522Z" fill="#DD264E"/>
</svg>
