<svg width="19" height="24" viewBox="0 0 19 24" fill="none" xmlns="http://www.w3.org/2000/svg">
<circle cx="9.30727" cy="11.9987" r="2.66665" stroke="#DD264E" stroke-width="2"/>
<path d="M9.02344 1L9.02344 3.2564" stroke="#DD264E" stroke-width="2" stroke-linecap="round"/>
<path d="M2.25781 2.12891L3.85333 3.72442" stroke="#DD264E" stroke-width="2" stroke-linecap="round"/>
<path d="M2.25781 21.7734L3.85333 20.1779" stroke="#DD264E" stroke-width="2" stroke-linecap="round"/>
<path d="M15.6953 2.12891L14.0998 3.72442" stroke="#DD264E" stroke-width="2" stroke-linecap="round"/>
<path d="M15.6953 21.7734L14.0998 20.1779" stroke="#DD264E" stroke-width="2" stroke-linecap="round"/>
<path d="M9.02344 20.7422L9.02344 22.9986" stroke="#DD264E" stroke-width="2" stroke-linecap="round"/>
<path d="M17.6153 12.0005C17.6153 13.5666 16.7797 15.0572 15.2853 16.1893C13.7902 17.322 11.6801 18.0517 9.30764 18.0517C6.93522 18.0517 4.82512 17.322 3.33 16.1893C1.83553 15.0572 1 13.5666 1 12.0005C1 10.4343 1.83553 8.94375 3.33 7.81157C4.82512 6.67891 6.93522 5.94922 9.30764 5.94922C11.6801 5.94922 13.7902 6.67891 15.2853 7.81157C16.7797 8.94375 17.6153 10.4343 17.6153 12.0005Z" stroke="#DD264E" stroke-width="2"/>
</svg>
