<svg width="52" height="25" viewBox="0 0 52 25" fill="none" xmlns="http://www.w3.org/2000/svg">
<path d="M50.9435 1.0497V23.9503H40.4759V6.94376V6.50903L40.1663 6.20146L39.0778 5.12028V1.0497H50.9435ZM31.0978 1.0497L36.0702 5.99029V19.0097L31.0978 23.9503H25.2633L20.2908 19.0097V5.99029L25.2633 1.0497H31.0978ZM11.8636 1.0497L16.836 5.98995V10.6753L15.7475 11.7566L15.0006 12.499L15.7475 13.2413L16.836 14.3225V19.008L11.8634 23.9503H1.05647V19.8565L3.38104 17.3813L4.05349 16.6652L3.38104 15.949L1.05647 13.474V11.5238L3.38104 9.04875L4.05349 8.33251L3.38104 7.61648L1.05647 5.14142V1.0497H11.8636ZM52 0H38.0214V5.55501L39.4194 6.94376V25H52V0ZM31.5354 0H24.8257L19.2344 5.55556V19.4445L24.8257 25H31.5354L37.1267 19.4445V5.55556L31.5354 0ZM12.301 0H0V5.55501L2.60858 8.33251L0 11.1101V13.8876L2.60858 16.6652L0 19.4427V25H12.301L17.8925 19.4427V13.8876L16.4944 12.499L17.8925 11.1101V5.55501L12.301 0Z" fill="#313A4B"/>
</svg>
