<svg width="29" height="24" viewBox="0 0 29 24" fill="none" xmlns="http://www.w3.org/2000/svg">
<path d="M28.9032 9.2415L28.5411 8.61175C28.4449 8.44489 28.2864 8.32299 28.1005 8.27282C27.9145 8.22265 27.7162 8.2483 27.5492 8.34415L23.1686 10.9053C23.0886 10.297 22.7904 9.73837 22.3295 9.33336C21.8686 8.92835 21.2763 8.70448 20.6627 8.70338H13.7763V11.5961C13.7918 11.796 13.7658 11.9969 13.7 12.1863C13.6341 12.3756 13.5299 12.5494 13.3937 12.6965C13.2576 12.8436 13.0924 12.961 12.9087 13.0413C12.725 13.1216 12.5267 13.1631 12.3263 13.1631C12.1258 13.1631 11.9275 13.1216 11.7438 13.0413C11.5601 12.961 11.395 12.8436 11.2588 12.6965C11.1226 12.5494 11.0184 12.3756 10.9525 12.1863C10.8867 11.9969 10.8607 11.796 10.8762 11.5961V7.68677C10.8768 7.4415 10.9393 7.20034 11.0581 6.98572C11.1768 6.77111 11.3479 6.59001 11.5554 6.45928L13.068 5.51248C13.5286 5.22527 14.061 5.07403 14.6038 5.07617H19.3742L24.8019 1.98563C24.9683 1.89019 25.0903 1.73285 25.1412 1.54788C25.1922 1.36291 25.1679 1.1653 25.0738 0.998109L24.7175 0.365456C24.6221 0.199021 24.4647 0.0770453 24.2798 0.0261036C24.0948 -0.0248381 23.8972 -0.000617442 23.73 0.0934886L18.8055 2.90625H14.6053C13.6553 2.90661 12.7246 3.17369 11.919 3.67706L10.4007 4.62386C9.9973 4.87446 9.64802 5.20306 9.3733 5.59041C9.09859 5.97776 8.90397 6.41605 8.80086 6.87959L6.10881 8.48813C5.57192 8.81223 5.12798 9.2697 4.82013 9.81608C4.51228 10.3625 4.35099 10.9792 4.35193 11.6063V13.1509L0.364037 15.4531C0.197169 15.5493 0.075275 15.7078 0.025105 15.8937C-0.0250649 16.0797 0.000587188 16.2779 0.096432 16.445L0.458571 17.0748C0.5062 17.158 0.569811 17.2309 0.645746 17.2895C0.721681 17.348 0.808439 17.3909 0.90103 17.4158C0.99362 17.4407 1.09021 17.447 1.18526 17.4344C1.2803 17.4218 1.37191 17.3905 1.45482 17.3424L6.52622 14.4103V11.6107C6.52566 11.3588 6.59051 11.1112 6.71441 10.8919C6.83831 10.6727 7.01702 10.4894 7.23304 10.3599L8.7005 9.47129V11.3838C8.68019 12.3079 8.99982 13.2073 9.59874 13.9113C10.1977 14.6153 11.0342 15.0749 11.9496 15.203C12.4547 15.2558 12.9653 15.2018 13.4483 15.0445C13.9312 14.8873 14.3758 14.6303 14.753 14.2902C15.1302 13.9501 15.4318 13.5346 15.6381 13.0705C15.8444 12.6063 15.9509 12.104 15.9506 11.5961V10.8689H20.6627C20.7587 10.8693 20.8505 10.9076 20.9184 10.9754C20.9862 11.0433 21.0245 11.1352 21.0249 11.2311V12.6855C21.0245 12.7814 20.9862 12.8733 20.9184 12.9411C20.8505 13.0089 20.7587 13.0472 20.6627 13.0476H19.2084V15.7658C19.2084 16.0999 19.0757 16.4202 18.8395 16.6564C18.6033 16.8926 18.2829 17.0253 17.9489 17.0253H16.8566V18.1132C16.8566 18.4989 16.7034 18.8688 16.4307 19.1416C16.1579 19.4143 15.788 19.5675 15.4023 19.5675H9.57604L6.72983 21.2154C6.56296 21.3115 6.44107 21.47 6.3909 21.656C6.34073 21.8419 6.36638 22.0402 6.46222 22.2072L6.82436 22.837C6.92055 23.0038 7.07901 23.1257 7.26496 23.1759C7.45092 23.2261 7.64918 23.2004 7.81625 23.1046L10.1534 21.7506H15.4023C16.1997 21.7498 16.9749 21.4869 17.6082 21.0023C18.2416 20.5176 18.698 19.8382 18.9073 19.0687C19.6197 18.8585 20.2452 18.4239 20.6907 17.8296C21.1362 17.2352 21.3778 16.5129 21.3797 15.7702V15.123C21.7723 15.0043 22.1303 14.7923 22.4231 14.5051C22.7159 14.2178 22.9348 13.864 23.061 13.4737L28.6371 10.2334C28.8037 10.137 28.9253 9.97839 28.9752 9.79245C29.025 9.60652 28.9992 9.40839 28.9032 9.2415Z" fill="#C12DD9"/>
</svg>
